####
#
# OBJ File Generated by Meshlab
#
####
# Object base_L.obj
#
# Vertices: 24
# Faces: 44
#
####
vn -3.118170 -0.266113 3.004661
v -0.334121 -0.168770 0.656175
vn 2.695833 1.096218 -2.369168
v 0.334121 0.268782 0.000000
vn -1.125037 -2.667014 -2.343221
v -0.270455 -0.334121 0.000000
vn -1.125037 2.667014 -2.343221
v -0.270455 0.334121 0.000000
vn 2.088381 -4.279258 1.657931
v 0.270455 -0.334121 0.230193
vn -2.695833 1.096218 -2.369168
v -0.334121 0.268782 0.000000
vn 0.964755 2.446657 3.717759
v -0.254598 0.209797 0.656175
vn -2.037126 -5.182801 0.615676
v -0.270455 -0.334121 0.230193
vn 1.125037 -2.667014 -2.343221
v 0.270455 -0.334121 0.000000
vn -2.695833 -1.096218 -2.369168
v -0.334121 -0.268782 0.000000
vn -1.811961 1.867441 2.277063
v -0.325830 0.209797 0.656175
vn 2.088381 4.279257 1.657931
v 0.270455 0.334121 0.230193
vn 0.964754 -2.446657 3.717759
v -0.254598 -0.209797 0.656175
vn 2.695833 -1.096218 -2.369167
v 0.334121 -0.268782 0.000000
vn -5.307661 -2.263457 0.186376
v -0.334121 -0.268782 0.230193
vn -2.037126 5.182801 0.615676
v -0.270455 0.334121 0.230193
vn -3.118170 0.266113 3.004659
v -0.334121 0.168770 0.656175
vn 1.125037 2.667014 -2.343220
v 0.270455 0.334121 0.000000
vn 4.436006 0.246187 4.058309
v 0.302369 0.046282 0.294941
vn -1.811961 -1.867441 2.277062
v -0.325830 -0.209797 0.656175
vn -5.307662 2.263457 0.186376
v -0.334121 0.268782 0.230193
vn 4.173457 1.775014 1.885198
v 0.334121 0.268782 0.230193
vn 4.173458 -1.775014 1.885198
v 0.334121 -0.268782 0.230193
vn 4.436006 -0.246187 4.058310
v 0.302369 -0.046282 0.294941
# 24 vertices, 0 vertices normals

f 9//9 8//8 3//3
f 9//9 5//5 8//8
f 15//15 10//10 3//3
f 15//15 3//3 8//8
f 16//16 11//11 7//7
f 16//16 7//7 12//12
f 18//18 2//2 14//14
f 18//18 16//16 12//12
f 18//18 4//4 16//16
f 18//18 6//6 4//4
f 18//18 10//10 6//6
f 18//18 3//3 10//10
f 18//18 14//14 9//9
f 18//18 9//9 3//3
f 20//20 1//1 15//15
f 20//20 17//17 1//1
f 20//20 15//15 8//8
f 20//20 8//8 5//5
f 20//20 5//5 13//13
f 20//20 13//13 7//7
f 20//20 7//7 11//11
f 20//20 11//11 17//17
f 21//21 11//11 16//16
f 21//21 16//16 4//4
f 21//21 4//4 6//6
f 21//21 17//17 11//11
f 21//21 6//6 10//10
f 21//21 10//10 15//15
f 21//21 15//15 1//1
f 21//21 1//1 17//17
f 22//22 12//12 7//7
f 22//22 7//7 19//19
f 22//22 2//2 18//18
f 22//22 18//18 12//12
f 23//23 13//13 5//5
f 23//23 5//5 9//9
f 23//23 9//9 14//14
f 23//23 22//22 19//19
f 23//23 14//14 2//2
f 23//23 2//2 22//22
f 24//24 23//23 19//19
f 24//24 13//13 23//23
f 24//24 19//19 7//7
f 24//24 7//7 13//13
# 44 faces, 0 coords texture

# End of File
