####
#
# OBJ File Generated by Meshlab
#
####
# Object torso_lift_L.obj
#
# Vertices: 51
# Faces: 98
#
####
vn 0.967122 2.838677 -3.103459
v -0.181426 0.164919 -0.506000
vn -0.850047 -0.469432 6.110034
v -0.131662 -0.087264 0.314034
vn 2.608842 4.495498 0.674842
v 0.046537 0.259041 0.161468
vn 2.882112 -4.346399 -0.641806
v 0.046537 -0.259041 0.157500
vn -3.445046 3.679389 1.679324
v -0.261086 0.186854 0.218862
vn -1.695015 -1.715958 -2.072391
v -0.212071 -0.164919 -0.506000
vn 3.090286 0.000000 3.584768
v 0.098927 0.000000 0.314034
vn 2.564608 -0.000000 -2.634140
v -0.016507 0.000000 -0.506000
vn -2.965247 4.901696 -0.357973
v -0.261086 0.208015 -0.045054
vn -3.445046 -3.679389 1.679324
v -0.261086 -0.186854 0.218862
vn 2.062614 -1.984773 3.161851
v 0.062558 -0.194321 0.308946
vn -0.855731 2.405274 5.264351
v -0.089071 0.190559 0.304657
vn 2.882112 4.346400 -0.641806
v 0.046537 0.259041 0.157500
vn 0.967122 -2.838677 -3.103459
v -0.181426 -0.164919 -0.506000
vn 6.039886 -0.869948 -0.628813
v 0.111556 -0.087264 0.157500
vn -0.488328 5.899722 1.048525
v -0.025955 0.263628 0.161468
vn -1.695015 1.715958 -2.072391
v -0.212071 0.164919 -0.506000
vn -2.965247 -4.901696 -0.357973
v -0.261086 -0.208015 -0.045054
vn -3.607358 -0.488940 3.615912
v -0.261086 -0.075311 0.283445
vn 0.731578 -0.281378 6.175809
v 0.073672 -0.087264 0.314034
vn -0.969626 -4.792212 3.289240
v -0.089071 -0.209285 0.288590
vn -0.850047 0.469432 6.110035
v -0.131662 0.087264 0.314034
vn 2.062614 1.984773 3.161851
v 0.062558 0.194321 0.308946
vn -0.392936 -6.149987 -0.356557
v -0.025955 -0.263628 0.157500
vn 5.647336 -2.324157 -0.742573
v 0.081049 -0.194321 0.157500
vn 6.039886 0.869948 -0.628813
v 0.111556 0.087264 0.157500
vn 5.949309 -0.902407 0.892088
v 0.111556 -0.087264 0.237751
vn -3.416509 4.667322 0.545681
v -0.261086 0.197332 0.157500
vn -0.969626 4.792212 3.289239
v -0.089071 0.209285 0.288590
vn -0.392936 6.149987 -0.356557
v -0.025955 0.263628 0.157500
vn -5.471374 -1.902716 -0.385617
v -0.287455 -0.174496 -0.045054
vn -2.040449 -3.314519 4.490860
v -0.212071 -0.172351 0.269840
vn -0.855731 -2.405274 5.264350
v -0.089071 -0.190559 0.304657
vn -3.607359 0.488940 3.615912
v -0.261086 0.075311 0.283445
vn 0.731578 0.281378 6.175808
v 0.073672 0.087264 0.314034
vn 2.274277 4.483460 2.190747
v 0.057051 0.209285 0.288590
vn -3.416510 -4.667322 0.545681
v -0.261086 -0.197332 0.157500
vn -0.488328 -5.899722 1.048525
v -0.025955 -0.263628 0.161468
vn 5.441855 -2.593229 0.795746
v 0.081049 -0.194321 0.236904
vn 5.647336 2.324157 -0.742573
v 0.081049 0.194321 0.157500
vn 5.949308 0.902407 0.892088
v 0.111556 0.087264 0.237751
vn -2.040449 3.314519 4.490861
v -0.212071 0.172351 0.269840
vn -5.471374 1.902716 -0.385617
v -0.287455 0.174496 -0.045054
vn -5.732300 -1.648919 0.616376
v -0.282214 -0.163813 0.157500
vn -3.827699 -1.955733 3.070679
v -0.261086 -0.155591 0.255523
vn 5.441855 2.593229 0.795746
v 0.081049 0.194321 0.236904
vn 2.274277 -4.483460 2.190747
v 0.057051 -0.209285 0.288590
vn -3.827699 1.955733 3.070679
v -0.261086 0.155591 0.255523
vn -5.732300 1.648919 0.616376
v -0.282214 0.163813 0.157500
vn 2.608843 -4.495497 0.674842
v 0.046537 -0.259041 0.161468
vn -6.208726 0.000000 0.652880
v -0.287653 0.000000 0.157500
# 51 vertices, 0 vertices normals

f 13//13 8//8 1//1
f 14//14 8//8 4//4
f 17//17 14//14 6//6
f 17//17 1//1 8//8
f 17//17 8//8 14//14
f 20//20 11//11 7//7
f 20//20 2//2 11//11
f 23//23 12//12 22//22
f 24//24 14//14 4//4
f 24//24 6//6 14//14
f 24//24 18//18 6//6
f 25//25 4//4 8//8
f 25//25 8//8 15//15
f 26//26 15//15 8//8
f 27//27 7//7 11//11
f 27//27 25//25 15//15
f 28//28 16//16 9//9
f 28//28 5//5 16//16
f 29//29 16//16 5//5
f 29//29 12//12 23//23
f 30//30 13//13 1//1
f 30//30 16//16 3//3
f 30//30 3//3 13//13
f 30//30 1//1 17//17
f 30//30 17//17 9//9
f 30//30 9//9 16//16
f 31//31 6//6 18//18
f 32//32 10//10 21//21
f 33//33 21//21 11//11
f 33//33 11//11 2//2
f 33//33 32//32 21//21
f 33//33 2//2 19//19
f 33//33 19//19 32//32
f 34//34 22//22 12//12
f 34//34 19//19 2//2
f 34//34 2//2 22//22
f 35//35 23//23 22//22
f 35//35 7//7 23//23
f 35//35 20//20 7//7
f 35//35 22//22 2//2
f 35//35 2//2 20//20
f 36//36 3//3 16//16
f 36//36 29//29 23//23
f 36//36 16//16 29//29
f 37//37 31//31 18//18
f 38//38 21//21 10//10
f 38//38 10//10 37//37
f 38//38 37//37 18//18
f 38//38 18//18 24//24
f 39//39 4//4 25//25
f 39//39 27//27 11//11
f 39//39 25//25 27//27
f 40//40 26//26 8//8
f 40//40 8//8 13//13
f 41//41 23//23 7//7
f 41//41 26//26 40//40
f 41//41 7//7 27//27
f 41//41 27//27 15//15
f 41//41 15//15 26//26
f 42//42 29//29 5//5
f 42//42 12//12 29//29
f 42//42 34//34 12//12
f 43//43 9//9 17//17
f 43//43 28//28 9//9
f 43//43 17//17 6//6
f 43//43 6//6 31//31
f 44//44 37//37 10//10
f 44//44 31//31 37//37
f 45//45 32//32 19//19
f 45//45 10//10 32//32
f 45//45 44//44 10//10
f 45//45 19//19 44//44
f 46//46 36//36 23//23
f 46//46 3//3 36//36
f 46//46 40//40 13//13
f 46//46 13//13 3//3
f 46//46 41//41 40//40
f 46//46 23//23 41//41
f 47//47 11//11 21//21
f 47//47 21//21 38//38
f 47//47 39//39 11//11
f 48//48 42//42 5//5
f 48//48 34//34 42//42
f 49//49 5//5 28//28
f 49//49 28//28 43//43
f 49//49 48//48 5//5
f 49//49 34//34 48//48
f 50//50 47//47 38//38
f 50//50 38//38 24//24
f 50//50 24//24 4//4
f 50//50 4//4 39//39
f 50//50 39//39 47//47
f 51//51 49//49 43//43
f 51//51 43//43 31//31
f 51//51 31//31 44//44
f 51//51 44//44 19//19
f 51//51 19//19 34//34
f 51//51 34//34 49//49
# 98 faces, 0 coords texture

# End of File
