####
#
# OBJ File Generated by Meshlab
#
####
# Object head_tilt_L.obj
#
# Vertices: 36
# Faces: 68
#
####
vn -0.067969 -5.861386 -1.546942
v -0.113641 -0.146989 0.080663
vn -0.067969 5.861386 -1.546942
v -0.113641 0.146989 0.080663
vn 3.108693 0.000000 3.573297
v 0.068738 -0.000000 0.155138
vn 3.049493 0.000000 -3.895631
v 0.070864 0.000000 0.046104
vn -3.140569 0.000000 3.090525
v -0.182561 0.000000 0.155138
vn 3.048307 -3.600183 -0.229864
v 0.061558 -0.143586 0.085388
vn 3.048307 3.600183 -0.229864
v 0.061558 0.143586 0.085388
vn -3.618321 0.000000 -3.053519
v -0.182561 0.000000 0.080663
vn 6.085891 0.000000 -0.162138
v 0.081019 0.000000 0.085388
vn 2.714242 -0.896031 -2.940540
v 0.069223 -0.095842 0.046104
vn -2.334084 -1.186662 2.651916
v -0.179165 -0.132947 0.155138
vn 2.714242 0.896031 -2.940540
v 0.069223 0.095842 0.046104
vn -2.334083 1.186662 2.651916
v -0.179165 0.132947 0.155138
vn 2.318920 -1.362537 2.796985
v 0.061045 -0.132947 0.155138
vn 2.318920 1.362537 2.796984
v 0.061045 0.132947 0.155138
vn 0.112077 -4.267882 -3.458120
v 0.038853 -0.141150 0.065672
vn -1.826138 -1.780262 -1.606503
v -0.178473 -0.145790 0.080663
vn 0.112077 4.267883 -3.458120
v 0.038853 0.141150 0.065672
vn -1.826138 1.780262 -1.606503
v -0.178473 0.145790 0.080663
vn -0.346647 -1.140746 -5.981266
v 0.039953 -0.095842 0.046104
vn 2.399331 -2.490850 -1.881720
v 0.062885 -0.139016 0.065672
vn 0.070989 -5.408518 2.141268
v -0.012637 -0.146410 0.141091
vn 0.070989 5.408516 2.141266
v -0.012637 0.146410 0.141091
vn 2.399331 2.490850 -1.881720
v 0.062885 0.139016 0.065672
vn 0.098163 -6.121615 -0.957969
v -0.013080 -0.146417 0.080663
vn 0.098162 6.121614 -0.957970
v -0.013080 0.146417 0.080663
vn -0.346647 1.140746 -5.981266
v 0.039953 0.095842 0.046104
vn 2.401388 -3.157254 1.258732
v 0.059745 -0.143586 0.144038
vn -2.402012 -2.859441 1.131181
v -0.178473 -0.145790 0.141737
vn 2.401388 3.157255 1.258732
v 0.059745 0.143586 0.144038
vn -2.402013 2.859440 1.131182
v -0.178473 0.145790 0.141737
vn 0.034805 -6.123371 -0.988861
v -0.072387 -0.146755 0.080663
vn -0.020506 5.409450 2.149527
v -0.113801 0.146988 0.140487
vn -0.000002 -4.536290 4.347470
v -0.159995 -0.142121 0.145566
vn -0.020507 -5.409441 2.149536
v -0.113801 -0.146988 0.140487
vn -0.058186 5.409196 2.173738
v -0.155475 0.146216 0.141293
# 36 vertices, 0 vertices normals

f 10//10 4//4 9//9
f 11//11 5//5 8//8
f 12//12 9//9 4//4
f 13//13 8//8 5//5
f 14//14 9//9 3//3
f 15//15 3//3 9//9
f 15//15 14//14 3//3
f 15//15 13//13 5//5
f 15//15 5//5 11//11
f 15//15 11//11 14//14
f 17//17 16//16 1//1
f 17//17 11//11 8//8
f 19//19 8//8 13//13
f 19//19 2//2 18//18
f 20//20 17//17 8//8
f 20//20 10//10 16//16
f 20//20 16//16 17//17
f 21//21 10//10 9//9
f 21//21 9//9 14//14
f 21//21 16//16 10//10
f 21//21 6//6 16//16
f 24//24 15//15 9//9
f 24//24 9//9 12//12
f 24//24 18//18 7//7
f 24//24 12//12 18//18
f 25//25 16//16 6//6
f 25//25 6//6 22//22
f 26//26 18//18 2//2
f 26//26 7//7 18//18
f 26//26 23//23 7//7
f 27//27 19//19 18//18
f 27//27 18//18 12//12
f 27//27 20//20 8//8
f 27//27 8//8 19//19
f 27//27 12//12 4//4
f 27//27 4//4 10//10
f 27//27 10//10 20//20
f 28//28 21//21 14//14
f 28//28 6//6 21//21
f 28//28 22//22 6//6
f 29//29 11//11 17//17
f 30//30 7//7 23//23
f 30//30 24//24 7//7
f 30//30 15//15 24//24
f 31//31 19//19 13//13
f 32//32 1//1 16//16
f 32//32 16//16 25//25
f 33//33 26//26 2//2
f 33//33 23//23 26//26
f 33//33 2//2 19//19
f 34//34 28//28 14//14
f 34//34 14//14 11//11
f 34//34 11//11 29//29
f 35//35 29//29 17//17
f 35//35 17//17 1//1
f 35//35 1//1 32//32
f 35//35 34//34 29//29
f 35//35 32//32 25//25
f 35//35 25//25 22//22
f 35//35 22//22 28//28
f 35//35 28//28 34//34
f 36//36 13//13 15//15
f 36//36 15//15 30//30
f 36//36 19//19 31//31
f 36//36 31//31 13//13
f 36//36 30//30 23//23
f 36//36 23//23 33//33
f 36//36 33//33 19//19
# 68 faces, 0 coords texture

# End of File
