####
#
# OBJ File Generated by Meshlab
#
####
# Object head_pan_L.obj
#
# Vertices: 54
# Faces: 104
#
####
vn 0.383037 -6.229091 -0.241903
v 0.115048 -0.159889 -0.031507
vn -0.026786 6.262432 0.131464
v 0.049811 0.161403 0.016135
vn -3.027483 0.070718 -2.155341
v -0.112988 0.006459 -0.063958
vn -0.599674 -2.867413 3.070330
v 0.053753 -0.157973 0.072489
vn 1.173777 2.570096 -2.840714
v 0.106482 0.157406 -0.062763
vn -2.739500 -2.853821 -1.075652
v -0.081164 -0.157712 -0.050687
vn -2.511350 2.552271 1.552335
v -0.077611 0.157529 -0.003489
vn 2.378355 2.645759 1.953946
v 0.125622 0.158071 0.047538
vn -2.578271 -2.818265 1.449828
v -0.076748 -0.158625 -0.007311
vn 0.630074 -2.823511 -3.336688
v 0.098462 -0.156606 -0.064074
vn -1.867027 2.207937 -1.764323
v -0.078429 0.157569 -0.058247
vn 2.771791 -2.670873 1.673180
v 0.132102 -0.156514 0.038086
vn -1.132404 2.837510 3.165247
v 0.034989 0.156540 0.067926
vn 2.702405 2.737446 -1.604731
v 0.132191 0.157435 -0.038525
vn -5.017182 -0.162344 2.867304
v -0.102538 -0.009343 -0.018735
vn 2.174061 -2.494495 -2.250460
v 0.120858 -0.157633 -0.054192
vn -1.102818 -2.773955 -3.144880
v -0.068390 -0.156281 -0.063372
vn 1.253451 0.074645 -6.010715
v 0.101154 0.113860 -0.065265
vn -0.009872 6.249582 -0.568673
v 0.013244 0.158108 -0.056907
vn 1.091049 -2.659546 2.865361
v 0.092587 -0.157793 0.071212
vn 0.611614 2.629254 3.097193
v 0.082046 0.157443 0.074052
vn 3.170312 2.692167 0.189602
v 0.142717 0.157095 0.003046
vn -3.527699 -0.005144 5.182434
v -0.056248 -0.013182 0.017306
vn 3.185660 -2.576958 -0.261534
v 0.142880 -0.157061 -0.005169
vn 3.646716 0.063609 -4.924963
v 0.115375 0.098035 -0.058994
vn -0.019438 -5.103447 -2.762340
v -0.019114 -0.156487 -0.063490
vn -0.494844 -0.284638 -6.217976
v -0.063294 -0.129068 -0.065861
vn -0.302646 2.200817 -5.320250
v -0.035040 0.153947 -0.064897
vn -0.121495 5.294735 -2.641628
v -0.024757 0.157319 -0.062126
vn 4.064851 -0.087909 4.620102
v 0.117928 -0.098083 0.056934
vn -0.030399 0.006153 5.952874
v 0.067280 -0.011807 0.079373
vn 5.649879 0.059527 2.533321
v 0.135168 0.097786 0.033343
vn -3.287954 0.286699 5.325698
v -0.020867 0.112073 0.038231
vn -4.012857 0.153124 4.817105
v -0.085388 0.048223 -0.005441
vn -3.977877 -0.470331 4.737537
v -0.067301 -0.119910 0.008024
vn 5.878206 0.056670 -1.767011
v 0.141295 0.097849 -0.021406
vn 4.207536 -0.074438 -4.200677
v 0.121242 -0.098277 -0.055481
vn -1.287573 -0.371224 -6.135015
v -0.092752 -0.062511 -0.064035
vn -0.021488 -2.181633 -5.597987
v 0.008745 -0.156097 -0.063960
vn 1.434203 -0.090814 -5.937056
v 0.102045 -0.109402 -0.064954
vn 0.040618 0.592957 -6.227202
v 0.034995 0.148978 -0.065159
vn -1.166601 0.394625 -6.063691
v -0.095771 0.058041 -0.064035
vn -0.031970 4.778466 -3.870835
v -0.017198 0.157014 -0.062766
vn 2.897093 0.091318 5.469226
v 0.099468 0.098001 0.068526
vn -0.736403 0.247722 6.230187
v 0.066557 0.098204 0.075097
vn -2.034530 -0.166008 5.894350
v 0.045698 -0.104993 0.072183
vn 0.131114 -0.274733 6.261847
v 0.068653 -0.097727 0.075750
vn 6.041996 -0.072799 0.243906
v 0.144703 -0.098106 0.000254
vn -3.658618 0.159856 5.102974
v -0.063839 0.070859 0.010012
vn -1.834559 -3.006948 3.238685
v -0.006820 -0.156573 0.045760
vn 0.028612 2.524950 -5.555389
v 0.045898 0.156042 -0.063705
vn -2.826471 -0.015736 5.595826
v 0.014587 -0.019486 0.059072
vn -0.011982 3.976188 -4.863350
v 0.000054 0.156597 -0.063168
vn -0.079226 3.763093 -4.999795
v -0.020722 0.155698 -0.063827
# 54 vertices, 0 vertices normals

f 9//9 6//6 1//1
f 9//9 1//1 4//4
f 9//9 3//3 6//6
f 11//11 7//7 2//2
f 11//11 3//3 7//7
f 13//13 2//2 7//7
f 14//14 5//5 2//2
f 14//14 2//2 8//8
f 15//15 7//7 3//3
f 15//15 3//3 9//9
f 16//16 1//1 6//6
f 16//16 6//6 10//10
f 17//17 6//6 3//3
f 19//19 11//11 2//2
f 19//19 2//2 5//5
f 20//20 4//4 1//1
f 20//20 1//1 12//12
f 21//21 8//8 2//2
f 21//21 2//2 13//13
f 22//22 14//14 8//8
f 24//24 12//12 1//1
f 24//24 1//1 16//16
f 25//25 5//5 14//14
f 25//25 18//18 5//5
f 26//26 17//17 10//10
f 26//26 10//10 6//6
f 26//26 6//6 17//17
f 28//28 27//27 3//3
f 29//29 19//19 5//5
f 29//29 11//11 19//19
f 29//29 28//28 11//11
f 30//30 20//20 12//12
f 30//30 12//12 8//8
f 32//32 22//22 8//8
f 32//32 8//8 12//12
f 33//33 13//13 7//7
f 34//34 7//7 15//15
f 34//34 15//15 23//23
f 35//35 23//23 15//15
f 35//35 15//15 9//9
f 36//36 24//24 16//16
f 36//36 14//14 22//22
f 37//37 25//25 14//14
f 37//37 36//36 16//16
f 37//37 14//14 36//36
f 38//38 27//27 17//17
f 38//38 17//17 3//3
f 38//38 3//3 27//27
f 39//39 27//27 10//10
f 39//39 10//10 17//17
f 39//39 17//17 27//27
f 40//40 27//27 18//18
f 40//40 10//10 27//27
f 40//40 37//37 16//16
f 40//40 16//16 10//10
f 40//40 18//18 25//25
f 40//40 25//25 37//37
f 41//41 5//5 18//18
f 41//41 18//18 27//27
f 41//41 27//27 28//28
f 42//42 28//28 3//3
f 42//42 3//3 11//11
f 42//42 11//11 28//28
f 43//43 29//29 5//5
f 43//43 28//28 29//29
f 44//44 20//20 30//30
f 44//44 30//30 8//8
f 44//44 8//8 21//21
f 44//44 31//31 20//20
f 44//44 21//21 31//31
f 45//45 31//31 21//21
f 45//45 21//21 13//13
f 45//45 13//13 31//31
f 46//46 31//31 13//13
f 46//46 4//4 31//31
f 47//47 31//31 4//4
f 47//47 4//4 20//20
f 47//47 20//20 31//31
f 48//48 22//22 32//32
f 48//48 32//32 12//12
f 48//48 12//12 24//24
f 48//48 36//36 22//22
f 48//48 24//24 36//36
f 49//49 33//33 7//7
f 49//49 23//23 33//33
f 49//49 34//34 23//23
f 49//49 7//7 34//34
f 50//50 35//35 9//9
f 50//50 9//9 4//4
f 50//50 4//4 46//46
f 50//50 23//23 35//35
f 51//51 41//41 28//28
f 51//51 5//5 41//41
f 52//52 33//33 23//23
f 52//52 23//23 50//50
f 52//52 13//13 33//33
f 52//52 50//50 46//46
f 52//52 46//46 13//13
f 53//53 43//43 5//5
f 53//53 5//5 51//51
f 54//54 53//53 51//51
f 54//54 51//51 28//28
f 54//54 28//28 43//43
f 54//54 43//43 53//53
# 104 faces, 0 coords texture

# End of File
