# Created by Open3D 
# object name: mesh_piece_002
# number of vertices: 342
# number of triangles: 124
v -0.033234 -0.03832 0.150666
vn -0.562774 -0.593944 0.574905
v -0.038659 -0.042048 0.141504
vn -0.562774 -0.593944 0.574905
v -0.029505 -0.04612 0.146258
vn -0.562774 -0.593944 0.574905
v -0.023402 -0.041372 0.154399
vn 0 -0 1
v 0.003044 -0.012885 0.154399
vn 0 -0 1
v -0.032556 -0.013573 0.154399
vn 0 -0 1
v 0.028821 -0.022725 0.116075
vn -0 0 -1
v 0.020006 -0.053577 0.116075
vn -0 0 -1
v -0.051553 0.006445 0.116075
vn -0 0 -1
v -0.021707 -0.047816 0.116075
vn 0 0 -1
v -0.010179 0.003055 0.116075
vn 0 0 -1
v 0.005079 -0.026115 0.154399
vn 0 0 1
v -0.023402 -0.041372 0.154399
vn 0.0352069 -0.0657225 0.997217
v -0.005432 -0.042048 0.15372
vn 0.0352069 -0.0657225 0.997217
v 0.005079 -0.026115 0.154399
vn 0.0352069 -0.0657225 0.997217
v -0.023402 -0.041372 0.154399
vn -0.0887358 -0.02922 0.995627
v -0.032556 -0.013573 0.154399
vn -0.0887358 -0.02922 0.995627
v -0.03493 -0.029499 0.15372
vn -0.0887358 -0.02922 0.995627
v -0.061385 -0.012209 0.116075
vn 0 -0 -1
v 0.010174 -0.007461 0.116075
vn 0 0 -1
v -0.033234 0.008484 0.13032
vn 0.0426972 0.999088 -0
v -0.033234 0.008484 0.13202
vn 0.0426972 0.999088 -0
v -0.017299 0.007803 0.140825
vn 0.0426972 0.999088 -0
v -0.004076 0.004068 0.143879
vn 0.291537 0.951458 -0.0986577
v -0.010179 0.003055 0.116075
vn 0.291537 0.951458 -0.0986577
v -0.017299 0.007803 0.140825
vn 0.291537 0.951458 -0.0986577
v 0.010513 -0.054265 0.116075
vn 0 0 -1
v -0.029505 0.007459 0.116075
vn 0 0 -1
v -0.033234 0.008484 0.13032
vn 0.0765723 0.995728 -0.0516029
v -0.017299 0.007803 0.140825
vn 0.0765723 0.995728 -0.0516029
v -0.029505 0.007459 0.116075
vn 0.0765723 0.995728 -0.0516029
v -0.017299 0.007803 0.140825
vn 0.220518 0.967697 -0.122203
v -0.010179 0.003055 0.116075
vn 0.220518 0.967697 -0.122203
v -0.029505 0.007459 0.116075
vn 0.220518 0.967697 -0.122203
v -0.038659 -0.042048 0.141504
vn -0.6556 -0.754018 -0.040567
v -0.059351 -0.022725 0.11675
vn -0.6556 -0.754018 -0.040567
v -0.049179 -0.031533 0.116075
vn -0.6556 -0.754018 -0.040567
v -0.059351 -0.022725 0.11675
vn -0.144321 -0.0911603 -0.985323
v -0.061385 -0.012209 0.116075
vn -0.144321 -0.0911603 -0.985323
v -0.049179 -0.031533 0.116075
vn -0.144321 -0.0911603 -0.985323
v -0.049179 -0.031533 0.116075
vn 0 0 -1
v 0.020006 -0.053577 0.116075
vn 0.80065 -0.56628 0.195671
v 0.0295 -0.039333 0.11845
vn 0.80065 -0.56628 0.195671
v 0.021023 -0.048154 0.127608
vn 0.80065 -0.56628 0.195671
v -0.004076 -0.005428 0.154399
vn 0 0 1
v 0.005079 -0.026115 0.154399
vn 0.656631 -0.259918 0.708011
v 0.015598 -0.042054 0.138792
vn 0.656631 -0.259918 0.708011
v 0.022379 -0.033234 0.135741
vn 0.656631 -0.259918 0.708011
v 0.015598 -0.042054 0.138792
vn 0.738303 -0.373308 0.561738
v 0.021023 -0.048154 0.127608
vn 0.738303 -0.373308 0.561738
v 0.022379 -0.033234 0.135741
vn 0.738303 -0.373308 0.561738
v -0.021707 -0.047816 0.116075
vn -0.36341 -0.925892 -0.103232
v -0.020011 -0.051544 0.143541
vn -0.36341 -0.925892 -0.103232
v -0.030861 -0.047134 0.142183
vn -0.36341 -0.925892 -0.103232
v -0.038659 -0.042048 0.141504
vn -0.534402 -0.835995 -0.124605
v -0.049179 -0.031533 0.116075
vn -0.534402 -0.835995 -0.124605
v -0.030861 -0.047134 0.142183
vn -0.534402 -0.835995 -0.124605
v 0.031882 -0.031877 0.116075
vn 0 0 -1
v 0.0295 -0.039333 0.11845
vn 0.743092 -0.40668 -0.531437
v 0.020006 -0.053577 0.116075
vn 0.743092 -0.40668 -0.531437
v 0.031882 -0.031877 0.116075
vn 0.743092 -0.40668 -0.531437
v -0.010179 0.003055 0.116075
vn 0.391767 0.912306 -0.119232
v -0.004076 0.004068 0.143879
vn 0.391767 0.912306 -0.119232
v 0.002027 0.001359 0.143204
vn 0.391767 0.912306 -0.119232
v 0.010174 -0.007461 0.116075
vn 0.453885 0.878464 -0.149296
v -0.010179 0.003055 0.116075
vn 0.453885 0.878464 -0.149296
v 0.002027 0.001359 0.143204
vn 0.453885 0.878464 -0.149296
v 0.011191 -0.00509 0.139812
vn 0.5456 0.831263 -0.106408
v 0.010174 -0.007461 0.116075
vn 0.5456 0.831263 -0.106408
v 0.002027 0.001359 0.143204
vn 0.5456 0.831263 -0.106408
v -0.004076 0.004068 0.143879
vn 0.374271 0.688359 0.621356
v -0.004076 -0.005428 0.154399
vn 0.374271 0.688359 0.621356
v 0.002027 0.001359 0.143204
vn 0.374271 0.688359 0.621356
v -0.059351 -0.022725 0.11675
vn -0.731318 -0.676986 0.0828564
v -0.038659 -0.042048 0.141504
vn -0.731318 -0.676986 0.0828564
v -0.049518 -0.030857 0.137096
vn -0.731318 -0.676986 0.0828564
v -0.03493 -0.029499 0.15372
vn -0.71314 -0.268162 0.647705
v -0.053248 -0.023394 0.136079
vn -0.71314 -0.268162 0.647705
v -0.049518 -0.030857 0.137096
vn -0.71314 -0.268162 0.647705
v -0.020011 -0.051544 0.143541
vn -0.277078 -0.954249 -0.112412
v -0.021707 -0.047816 0.116075
vn -0.277078 -0.954249 -0.112412
v -0.011196 -0.050868 0.116075
vn -0.277078 -0.954249 -0.112412
v -0.011196 -0.050868 0.116075
vn 0 0 -1
v -0.012213 -0.053239 0.141508
vn -0.236063 -0.966625 -0.0995534
v -0.020011 -0.051544 0.143541
vn -0.236063 -0.966625 -0.0995534
v -0.011196 -0.050868 0.116075
vn -0.236063 -0.966625 -0.0995534
v 0.010513 -0.054265 0.116075
vn -0.153856 -0.98324 -0.0978151
v -0.012213 -0.053239 0.141508
vn -0.153856 -0.98324 -0.0978151
v -0.011196 -0.050868 0.116075
vn -0.153856 -0.98324 -0.0978151
v -0.061385 -0.012209 0.116075
vn -0.978288 -0.182972 0.0973306
v -0.059351 -0.022725 0.11675
vn -0.978288 -0.182972 0.0973306
v -0.059012 -0.019666 0.125908
vn -0.978288 -0.182972 0.0973306
v -0.053248 -0.023394 0.136079
vn -0.85427 0.080365 0.513579
v -0.053587 -0.011871 0.133712
vn -0.85427 0.080365 0.513579
v -0.059012 -0.019666 0.125908
vn -0.85427 0.080365 0.513579
v -0.059351 -0.022725 0.11675
vn -0.836932 -0.509055 0.201018
v -0.049518 -0.030857 0.137096
vn -0.836932 -0.509055 0.201018
v -0.059012 -0.019666 0.125908
vn -0.836932 -0.509055 0.201018
v -0.049518 -0.030857 0.137096
vn -0.857243 -0.381291 0.346052
v -0.053248 -0.023394 0.136079
vn -0.857243 -0.381291 0.346052
v -0.059012 -0.019666 0.125908
vn -0.857243 -0.381291 0.346052
v -0.051553 0.006445 0.116075
vn -0.883714 0.465781 0.0458072
v -0.061385 -0.012209 0.116075
vn -0.883714 0.465781 0.0458072
v -0.057655 -0.005766 0.12252
vn -0.883714 0.465781 0.0458072
v -0.053587 -0.011871 0.133712
vn -0.810623 0.337326 0.478645
v -0.050874 -0.001018 0.130658
vn -0.810623 0.337326 0.478645
v -0.057655 -0.005766 0.12252
vn -0.810623 0.337326 0.478645
v -0.061385 -0.012209 0.116075
vn -0.918046 0.176195 0.355172
v -0.059012 -0.019666 0.125908
vn -0.918046 0.176195 0.355172
v -0.057655 -0.005766 0.12252
vn -0.918046 0.176195 0.355172
v -0.059012 -0.019666 0.125908
vn -0.884875 0.190049 0.425297
v -0.053587 -0.011871 0.133712
vn -0.884875 0.190049 0.425297
v -0.057655 -0.005766 0.12252
vn -0.884875 0.190049 0.425297
v 0.015598 -0.042054 0.138792
vn 0.618981 -0.301589 0.725194
v 0.005079 -0.026115 0.154399
vn 0.618981 -0.301589 0.725194
v 0.000332 -0.03832 0.153375
vn 0.618981 -0.301589 0.725194
v 0.005079 -0.026115 0.154399
vn 0.149245 -0.140169 0.978815
v -0.005432 -0.042048 0.15372
vn 0.149245 -0.140169 0.978815
v 0.000332 -0.03832 0.153375
vn 0.149245 -0.140169 0.978815
v -0.023402 -0.041372 0.154399
vn -0.110345 -0.74229 0.660931
v -0.020011 -0.051544 0.143541
vn -0.110345 -0.74229 0.660931
v -0.010518 -0.045101 0.152362
vn -0.110345 -0.74229 0.660931
v -0.005432 -0.042048 0.15372
vn 0.0178716 -0.431056 0.902148
v -0.023402 -0.041372 0.154399
vn 0.0178716 -0.431056 0.902148
v -0.010518 -0.045101 0.152362
vn 0.0178716 -0.431056 0.902148
v 0.007113 -0.052902 0.136083
vn 0.265683 -0.725167 0.635252
v -0.005432 -0.042048 0.15372
vn 0.265683 -0.725167 0.635252
v -0.010518 -0.045101 0.152362
vn 0.265683 -0.725167 0.635252
v -0.020011 -0.051544 0.143541
vn -0.0168023 -0.798715 0.601475
v -0.012213 -0.053239 0.141508
vn -0.0168023 -0.798715 0.601475
v -0.010518 -0.045101 0.152362
vn -0.0168023 -0.798715 0.601475
v -0.012213 -0.053239 0.141508
vn 0.174815 -0.800677 0.573023
v 0.007113 -0.052902 0.136083
vn 0.174815 -0.800677 0.573023
v -0.010518 -0.045101 0.152362
vn 0.174815 -0.800677 0.573023
v -0.039347 0.005425 0.136758
vn -0.608307 0.523397 0.596673
v -0.050874 -0.001018 0.130658
vn -0.608307 0.523397 0.596673
v -0.046806 -0.004408 0.137779
vn -0.608307 0.523397 0.596673
v -0.050874 -0.001018 0.130658
vn -0.733195 0.347727 0.584389
v -0.053587 -0.011871 0.133712
vn -0.733195 0.347727 0.584389
v -0.046806 -0.004408 0.137779
vn -0.733195 0.347727 0.584389
v -0.046806 -0.004408 0.137779
vn -0.573518 0.402322 0.713593
v -0.032556 -0.013573 0.154399
vn -0.573518 0.402322 0.713593
v -0.028827 -0.006441 0.153375
vn -0.573518 0.402322 0.713593
v -0.039347 0.005425 0.136758
vn -0.542115 0.482654 0.687863
v -0.046806 -0.004408 0.137779
vn -0.542115 0.482654 0.687863
v -0.028827 -0.006441 0.153375
vn -0.542115 0.482654 0.687863
v -0.03493 -0.029499 0.15372
vn -0.394454 0.019631 0.918706
v -0.032556 -0.013573 0.154399
vn -0.394454 0.019631 0.918706
v -0.035947 -0.01797 0.153037
vn -0.394454 0.019631 0.918706
v -0.053248 -0.023394 0.136079
vn -0.696823 -0.0189918 0.716992
v -0.03493 -0.029499 0.15372
vn -0.696823 -0.0189918 0.716992
v -0.035947 -0.01797 0.153037
vn -0.696823 -0.0189918 0.716992
v -0.053587 -0.011871 0.133712
vn -0.713915 0.120683 0.689754
v -0.053248 -0.023394 0.136079
vn -0.713915 0.120683 0.689754
v -0.035947 -0.01797 0.153037
vn -0.713915 0.120683 0.689754
v -0.032556 -0.013573 0.154399
vn -0.647291 0.279536 0.709136
v -0.046806 -0.004408 0.137779
vn -0.647291 0.279536 0.709136
v -0.035947 -0.01797 0.153037
vn -0.647291 0.279536 0.709136
v -0.046806 -0.004408 0.137779
vn -0.678734 0.238125 0.694706
v -0.053587 -0.011871 0.133712
vn -0.678734 0.238125 0.694706
v -0.035947 -0.01797 0.153037
vn -0.678734 0.238125 0.694706
v -0.005432 -0.042048 0.15372
vn 0.368089 -0.651883 0.662993
v 0.007113 -0.052902 0.136083
vn 0.368089 -0.651883 0.662993
v 0.012547 -0.050868 0.135066
vn 0.368089 -0.651883 0.662993
v 0.021023 -0.048154 0.127608
vn 0.662232 -0.474414 0.579983
v 0.015598 -0.042054 0.138792
vn 0.662232 -0.474414 0.579983
v 0.012547 -0.050868 0.135066
vn 0.662232 -0.474414 0.579983
v 0.020006 -0.053577 0.116075
vn 0.533127 -0.782753 0.321051
v 0.021023 -0.048154 0.127608
vn 0.533127 -0.782753 0.321051
v 0.012547 -0.050868 0.135066
vn 0.533127 -0.782753 0.321051
v 0.015598 -0.042054 0.138792
vn 0.54205 -0.479399 0.690187
v 0.000332 -0.03832 0.153375
vn 0.54205 -0.479399 0.690187
v 0.012547 -0.050868 0.135066
vn 0.54205 -0.479399 0.690187
v 0.000332 -0.03832 0.153375
vn 0.423137 -0.590642 0.687093
v -0.005432 -0.042048 0.15372
vn 0.423137 -0.590642 0.687093
v 0.012547 -0.050868 0.135066
vn 0.423137 -0.590642 0.687093
v 0.003044 -0.012885 0.154399
vn 0.680902 0.104734 0.724847
v 0.005079 -0.026115 0.154399
vn 0.680902 0.104734 0.724847
v 0.020345 -0.022049 0.139471
vn 0.680902 0.104734 0.724847
v 0.026787 -0.025089 0.130995
vn 0.811704 0.13707 0.567757
v 0.021023 -0.017639 0.137437
vn 0.811704 0.13707 0.567757
v 0.020345 -0.022049 0.139471
vn 0.811704 0.13707 0.567757
v 0.021023 -0.017639 0.137437
vn 0.699767 0.207672 0.683519
v 0.003044 -0.012885 0.154399
vn 0.699767 0.207672 0.683519
v 0.020345 -0.022049 0.139471
vn 0.699767 0.207672 0.683519
v 0.005079 -0.026115 0.154399
vn 0.709349 -0.103514 0.697216
v 0.022379 -0.033234 0.135741
vn 0.709349 -0.103514 0.697216
v 0.020345 -0.022049 0.139471
vn 0.709349 -0.103514 0.697216
v 0.022379 -0.033234 0.135741
vn 0.783392 -0.0637162 0.618253
v 0.026787 -0.025089 0.130995
vn 0.783392 -0.0637162 0.618253
v 0.020345 -0.022049 0.139471
vn 0.783392 -0.0637162 0.618253
v 0.010513 -0.054265 0.116075
vn 0.072285 -0.997384 0
v 0.020006 -0.053577 0.116075
vn 0.072285 -0.997384 0
v 0.010513 -0.054265 0.128966
vn 0.072285 -0.997384 0
v 0.007113 -0.052902 0.136083
vn 0.0798618 -0.971274 0.224164
v -0.012213 -0.053239 0.141508
vn 0.0798618 -0.971274 0.224164
v 0.010513 -0.054265 0.128966
vn 0.0798618 -0.971274 0.224164
v -0.012213 -0.053239 0.141508
vn -0.0451006 -0.998982 0
v 0.010513 -0.054265 0.116075
vn -0.0451006 -0.998982 0
v 0.010513 -0.054265 0.128966
vn -0.0451006 -0.998982 0
v 0.020006 -0.053577 0.116075
vn 0.472105 -0.827654 0.303488
v 0.012547 -0.050868 0.135066
vn 0.472105 -0.827654 0.303488
v 0.010513 -0.054265 0.128966
vn 0.472105 -0.827654 0.303488
v 0.012547 -0.050868 0.135066
vn 0.385065 -0.854894 0.34768
v 0.007113 -0.052902 0.136083
vn 0.385065 -0.854894 0.34768
v 0.010513 -0.054265 0.128966
vn 0.385065 -0.854894 0.34768
v -0.023402 -0.041372 0.154399
vn -0.42771 -0.368069 0.825584
v -0.03493 -0.029499 0.15372
vn -0.42771 -0.368069 0.825584
v -0.033234 -0.03832 0.150666
vn -0.42771 -0.368069 0.825584
v -0.049518 -0.030857 0.137096
vn -0.68565 -0.435584 0.583225
v -0.038659 -0.042048 0.141504
vn -0.68565 -0.435584 0.583225
v -0.033234 -0.03832 0.150666
vn -0.68565 -0.435584 0.583225
v -0.03493 -0.029499 0.15372
vn -0.689144 -0.351825 0.633482
v -0.049518 -0.030857 0.137096
vn -0.689144 -0.351825 0.633482
v -0.033234 -0.03832 0.150666
vn -0.689144 -0.351825 0.633482
v -0.039347 0.005425 0.136758
vn -0.276249 0.929651 0.243794
v -0.033234 0.008484 0.13202
vn -0.276249 0.929651 0.243794
v -0.049518 0.005425 0.125233
vn -0.276249 0.929651 0.243794
v -0.050874 -0.001018 0.130658
vn -0.609929 0.581592 0.538273
v -0.039347 0.005425 0.136758
vn -0.609929 0.581592 0.538273
v -0.049518 0.005425 0.125233
vn -0.609929 0.581592 0.538273
v -0.051553 0.006445 0.116075
vn -0.811941 0.532254 0.239703
v -0.057655 -0.005766 0.12252
vn -0.811941 0.532254 0.239703
v -0.049518 0.005425 0.125233
vn -0.811941 0.532254 0.239703
v -0.057655 -0.005766 0.12252
vn -0.790314 0.48336 0.37652
v -0.050874 -0.001018 0.130658
vn -0.790314 0.48336 0.37652
v -0.049518 0.005425 0.125233
vn -0.790314 0.48336 0.37652
v -0.027132 -0.045439 0.116075
vn 0 0 -1
v -0.021707 -0.047816 0.116075
vn -0.398614 -0.909753 -0.115998
v -0.030861 -0.047134 0.142183
vn -0.398614 -0.909753 -0.115998
v -0.027132 -0.045439 0.116075
vn -0.398614 -0.909753 -0.115998
v -0.030861 -0.047134 0.142183
vn -0.528961 -0.83863 -0.129997
v -0.049179 -0.031533 0.116075
vn -0.528961 -0.83863 -0.129997
v -0.027132 -0.045439 0.116075
vn -0.528961 -0.83863 -0.129997
v 0.028821 -0.022725 0.116075
vn 0.727677 0.685201 0.0314035
v 0.011191 -0.00509 0.139812
vn 0.727677 0.685201 0.0314035
v 0.027804 -0.022049 0.124891
vn 0.727677 0.685201 0.0314035
v 0.021023 -0.017639 0.137437
vn 0.863057 0.379828 0.332962
v 0.026787 -0.025089 0.130995
vn 0.863057 0.379828 0.332962
v 0.027804 -0.022049 0.124891
vn 0.863057 0.379828 0.332962
v 0.011191 -0.00509 0.139812
vn 0.787336 0.574553 0.223589
v 0.021023 -0.017639 0.137437
vn 0.787336 0.574553 0.223589
v 0.027804 -0.022049 0.124891
vn 0.787336 0.574553 0.223589
v 0.031882 -0.031877 0.116075
vn 0.944948 0.316049 0.0847736
v 0.028821 -0.022725 0.116075
vn 0.944948 0.316049 0.0847736
v 0.027804 -0.022049 0.124891
vn 0.944948 0.316049 0.0847736
v 0.026787 -0.025089 0.130995
vn 0.953359 0.174943 0.245969
v 0.031882 -0.031877 0.116075
vn 0.953359 0.174943 0.245969
v 0.027804 -0.022049 0.124891
vn 0.953359 0.174943 0.245969
v -0.033234 0.008484 0.13202
vn -0.0247211 0.999694 0
v -0.033234 0.008484 0.13032
vn -0.0247211 0.999694 0
v -0.047145 0.00814 0.116075
vn -0.0247211 0.999694 0
v -0.033234 0.008484 0.13032
vn 0.0385032 0.997353 -0.0616854
v -0.029505 0.007459 0.116075
vn 0.0385032 0.997353 -0.0616854
v -0.047145 0.00814 0.116075
vn 0.0385032 0.997353 -0.0616854
v -0.047145 0.00814 0.116075
vn -0 0 -1
v -0.049518 0.005425 0.125233
vn -0.264517 0.941134 0.21047
v -0.033234 0.008484 0.13202
vn -0.264517 0.941134 0.21047
v -0.047145 0.00814 0.116075
vn -0.264517 0.941134 0.21047
v -0.051553 0.006445 0.116075
vn -0.353001 0.91801 0.180687
v -0.049518 0.005425 0.125233
vn -0.353001 0.91801 0.180687
v -0.047145 0.00814 0.116075
vn -0.353001 0.91801 0.180687
v 0.021023 -0.048154 0.127608
vn 0.831959 -0.395183 0.389453
v 0.0295 -0.039333 0.11845
vn 0.831959 -0.395183 0.389453
v 0.027465 -0.034929 0.127266
vn 0.831959 -0.395183 0.389453
v 0.026787 -0.025089 0.130995
vn 0.835684 -0.143337 0.530177
v 0.022379 -0.033234 0.135741
vn 0.835684 -0.143337 0.530177
v 0.027465 -0.034929 0.127266
vn 0.835684 -0.143337 0.530177
v 0.022379 -0.033234 0.135741
vn 0.766586 -0.359653 0.531973
v 0.021023 -0.048154 0.127608
vn 0.766586 -0.359653 0.531973
v 0.027465 -0.034929 0.127266
vn 0.766586 -0.359653 0.531973
v 0.031882 -0.031877 0.116075
vn 0.934218 -0.0683052 0.3501
v 0.026787 -0.025089 0.130995
vn 0.934218 -0.0683052 0.3501
v 0.027465 -0.034929 0.127266
vn 0.934218 -0.0683052 0.3501
v 0.0295 -0.039333 0.11845
vn 0.929088 -0.197137 0.312941
v 0.031882 -0.031877 0.116075
vn 0.929088 -0.197137 0.312941
v 0.027465 -0.034929 0.127266
vn 0.929088 -0.197137 0.312941
v -0.004076 0.004068 0.143879
vn 0.0931129 0.806757 0.583501
v -0.017299 0.007803 0.140825
vn 0.0931129 0.806757 0.583501
v -0.011196 -0.002719 0.154399
vn 0.0931129 0.806757 0.583501
v -0.017299 0.007803 0.140825
vn 0.0305152 0.796583 0.603759
v -0.019672 -0.001362 0.153037
vn 0.0305152 0.796583 0.603759
v -0.011196 -0.002719 0.154399
vn 0.0305152 0.796583 0.603759
v -0.011196 -0.002719 0.154399
vn 0 0 1
v -0.004076 -0.005428 0.154399
vn 0.2718 0.714366 0.644831
v -0.004076 0.004068 0.143879
vn 0.2718 0.714366 0.644831
v -0.011196 -0.002719 0.154399
vn 0.2718 0.714366 0.644831
v -0.028827 -0.006441 0.153375
vn -0.097049 0.190986 0.976783
v -0.032556 -0.013573 0.154399
vn -0.097049 0.190986 0.976783
v -0.011196 -0.002719 0.154399
vn -0.097049 0.190986 0.976783
v -0.019672 -0.001362 0.153037
vn -0.111525 0.264769 0.957841
v -0.028827 -0.006441 0.153375
vn -0.111525 0.264769 0.957841
v -0.011196 -0.002719 0.154399
vn -0.111525 0.264769 0.957841
v -0.004076 -0.005428 0.154399
vn 0.529692 0.505754 0.680911
v 0.003044 -0.012885 0.154399
vn 0.529692 0.505754 0.680911
v 0.007791 -0.007805 0.146933
vn 0.529692 0.505754 0.680911
v 0.003044 -0.012885 0.154399
vn 0.694809 0.306755 0.650493
v 0.021023 -0.017639 0.137437
vn 0.694809 0.306755 0.650493
v 0.007791 -0.007805 0.146933
vn 0.694809 0.306755 0.650493
v 0.021023 -0.017639 0.137437
vn 0.717584 0.463902 0.519488
v 0.011191 -0.00509 0.139812
vn 0.717584 0.463902 0.519488
v 0.007791 -0.007805 0.146933
vn 0.717584 0.463902 0.519488
v 0.011191 -0.00509 0.139812
vn 0.611952 0.596317 0.519538
v 0.002027 0.001359 0.143204
vn 0.611952 0.596317 0.519538
v 0.007791 -0.007805 0.146933
vn 0.611952 0.596317 0.519538
v 0.002027 0.001359 0.143204
vn 0.513783 0.58029 0.631894
v -0.004076 -0.005428 0.154399
vn 0.513783 0.58029 0.631894
v 0.007791 -0.007805 0.146933
vn 0.513783 0.58029 0.631894
v -0.033234 0.008484 0.13202
vn -0.215544 0.923267 0.317993
v -0.039347 0.005425 0.136758
vn -0.215544 0.923267 0.317993
v -0.032895 0.005763 0.14015
vn -0.215544 0.923267 0.317993
v -0.017299 0.007803 0.140825
vn -0.136483 0.937697 0.319526
v -0.033234 0.008484 0.13202
vn -0.136483 0.937697 0.319526
v -0.032895 0.005763 0.14015
vn -0.136483 0.937697 0.319526
v -0.019672 -0.001362 0.153037
vn -0.130345 0.804982 0.578804
v -0.017299 0.007803 0.140825
vn -0.130345 0.804982 0.578804
v -0.032895 0.005763 0.14015
vn -0.130345 0.804982 0.578804
v -0.028827 -0.006441 0.153375
vn -0.330012 0.640972 0.692999
v -0.019672 -0.001362 0.153037
vn -0.330012 0.640972 0.692999
v -0.032895 0.005763 0.14015
vn -0.330012 0.640972 0.692999
v -0.039347 0.005425 0.136758
vn -0.392741 0.61249 0.686011
v -0.028827 -0.006441 0.153375
vn -0.392741 0.61249 0.686011
v -0.032895 0.005763 0.14015
vn -0.392741 0.61249 0.686011
v 0.011191 -0.00509 0.139812
vn 0.691232 0.72226 -0.0231975
v 0.028821 -0.022725 0.116075
vn 0.691232 0.72226 -0.0231975
v 0.021023 -0.015262 0.116075
vn 0.691232 0.72226 -0.0231975
v 0.021023 -0.015262 0.116075
vn 0 0 -1
v 0.010174 -0.007461 0.116075
vn 0.580539 0.807366 -0.105518
v 0.011191 -0.00509 0.139812
vn 0.580539 0.807366 -0.105518
v 0.021023 -0.015262 0.116075
vn 0.580539 0.807366 -0.105518
v -0.020011 -0.051544 0.143541
vn -0.247871 -0.74443 0.619987
v -0.023402 -0.041372 0.154399
vn -0.247871 -0.74443 0.619987
v -0.029505 -0.04612 0.146258
vn -0.247871 -0.74443 0.619987
v -0.030861 -0.047134 0.142183
vn -0.390236 -0.854633 0.342518
v -0.020011 -0.051544 0.143541
vn -0.390236 -0.854633 0.342518
v -0.029505 -0.04612 0.146258
vn -0.390236 -0.854633 0.342518
v -0.038659 -0.042048 0.141504
vn -0.53043 -0.764315 0.366695
v -0.030861 -0.047134 0.142183
vn -0.53043 -0.764315 0.366695
v -0.029505 -0.04612 0.146258
vn -0.53043 -0.764315 0.366695
v -0.023402 -0.041372 0.154399
vn -0.440109 -0.591972 0.675184
v -0.033234 -0.03832 0.150666
vn -0.440109 -0.591972 0.675184
v -0.029505 -0.04612 0.146258
vn -0.440109 -0.591972 0.675184
f 1//1 2//2 3//3
f 4//4 5//5 6//6
f 7//7 8//8 9//9
f 9//9 8//8 10//10
f 7//7 9//9 11//11
f 5//5 4//4 12//12
f 13//13 14//14 15//15
f 16//16 17//17 18//18
f 9//9 10//10 19//19
f 7//7 11//11 20//20
f 21//21 22//22 23//23
f 24//24 25//25 26//26
f 10//10 8//8 27//27
f 11//11 9//9 28//28
f 29//29 30//30 31//31
f 32//32 33//33 34//34
f 35//35 36//36 37//37
f 38//38 39//39 40//40
f 19//19 10//10 41//41
f 42//42 43//43 44//44
f 6//6 5//5 45//45
f 46//46 47//47 48//48
f 49//49 50//50 51//51
f 52//52 53//53 54//54
f 55//55 56//56 57//57
f 8//8 7//7 58//58
f 59//59 60//60 61//61
f 62//62 63//63 64//64
f 65//65 66//66 67//67
f 68//68 69//69 70//70
f 71//71 72//72 73//73
f 74//74 75//75 76//76
f 77//77 78//78 79//79
f 80//80 81//81 82//82
f 10//10 27//27 83//83
f 84//84 85//85 86//86
f 87//87 88//88 89//89
f 90//90 91//91 92//92
f 93//93 94//94 95//95
f 96//96 97//97 98//98
f 99//99 100//100 101//101
f 102//102 103//103 104//104
f 105//105 106//106 107//107
f 108//108 109//109 110//110
f 111//111 112//112 113//113
f 114//114 115//115 116//116
f 117//117 118//118 119//119
f 120//120 121//121 122//122
f 123//123 124//124 125//125
f 126//126 127//127 128//128
f 129//129 130//130 131//131
f 132//132 133//133 134//134
f 135//135 136//136 137//137
f 138//138 139//139 140//140
f 141//141 142//142 143//143
f 144//144 145//145 146//146
f 147//147 148//148 149//149
f 150//150 151//151 152//152
f 153//153 154//154 155//155
f 156//156 157//157 158//158
f 159//159 160//160 161//161
f 162//162 163//163 164//164
f 165//165 166//166 167//167
f 168//168 169//169 170//170
f 171//171 172//172 173//173
f 174//174 175//175 176//176
f 177//177 178//178 179//179
f 180//180 181//181 182//182
f 183//183 184//184 185//185
f 186//186 187//187 188//188
f 189//189 190//190 191//191
f 192//192 193//193 194//194
f 195//195 196//196 197//197
f 198//198 199//199 200//200
f 201//201 202//202 203//203
f 204//204 205//205 206//206
f 207//207 208//208 209//209
f 210//210 211//211 212//212
f 213//213 214//214 215//215
f 216//216 217//217 218//218
f 219//219 220//220 221//221
f 222//222 223//223 224//224
f 225//225 226//226 227//227
f 41//41 10//10 228//228
f 229//229 230//230 231//231
f 232//232 233//233 234//234
f 235//235 236//236 237//237
f 238//238 239//239 240//240
f 241//241 242//242 243//243
f 244//244 245//245 246//246
f 247//247 248//248 249//249
f 250//250 251//251 252//252
f 253//253 254//254 255//255
f 28//28 9//9 256//256
f 257//257 258//258 259//259
f 260//260 261//261 262//262
f 263//263 264//264 265//265
f 266//266 267//267 268//268
f 269//269 270//270 271//271
f 272//272 273//273 274//274
f 275//275 276//276 277//277
f 278//278 279//279 280//280
f 281//281 282//282 283//283
f 6//6 45//45 284//284
f 285//285 286//286 287//287
f 288//288 289//289 290//290
f 291//291 292//292 293//293
f 294//294 295//295 296//296
f 297//297 298//298 299//299
f 300//300 301//301 302//302
f 303//303 304//304 305//305
f 306//306 307//307 308//308
f 309//309 310//310 311//311
f 312//312 313//313 314//314
f 315//315 316//316 317//317
f 318//318 319//319 320//320
f 321//321 322//322 323//323
f 324//324 325//325 326//326
f 7//7 20//20 327//327
f 328//328 329//329 330//330
f 331//331 332//332 333//333
f 334//334 335//335 336//336
f 337//337 338//338 339//339
f 340//340 341//341 342//342
