# Created by Open3D 
# object name: mesh_piece_005
# number of vertices: 218
# number of triangles: 76
v -0.015263 -0.031875 0.18628
vn 0.000615656 -0.707793 0.706419
v -0.012213 -0.031535 0.186618
vn 0.000615656 -0.707793 0.706419
v -0.011875 -0.02984 0.188316
vn 0.000615656 -0.707793 0.706419
v -0.006785 -0.01221 0.178818
vn 0.902988 0.367786 0.222139
v -0.006108 -0.018994 0.187298
vn 0.902988 0.367786 0.222139
v -0.002378 -0.017297 0.169326
vn 0.902988 0.367786 0.222139
v -0.002378 -0.027468 0.168984
vn 0 0 -1
v -0.027475 -0.018654 0.168984
vn 0 0 -1
v -0.02137 -0.010852 0.168984
vn 0 0 -1
v -0.027475 -0.026448 0.168984
vn 0 0 -1
v -0.023065 -0.025431 0.187636
vn -0.923107 -0.304492 0.234858
v -0.027475 -0.026448 0.168984
vn -0.923107 -0.304492 0.234858
v -0.023742 -0.03018 0.178818
vn -0.923107 -0.304492 0.234858
v -0.006108 -0.018994 0.187298
vn 0.705962 -0.0590325 0.705785
v -0.007465 -0.027128 0.187975
vn 0.705962 -0.0590325 0.705785
v -0.005091 -0.023056 0.185941
vn 0.705962 -0.0590325 0.705785
v -0.002378 -0.017297 0.169326
vn 0.961793 0.168793 0.215554
v -0.006108 -0.018994 0.187298
vn 0.961793 0.168793 0.215554
v -0.005091 -0.023056 0.185941
vn 0.961793 0.168793 0.215554
v -0.011875 -0.009498 0.169326
vn 0.0184426 0.997108 0.0737188
v -0.01323 -0.009498 0.169665
vn 0.0184426 0.997108 0.0737188
v -0.011875 -0.010175 0.178483
vn 0.0184426 0.997108 0.0737188
v -0.027475 -0.018654 0.168984
vn -0.981987 0 0.188946
v -0.027475 -0.026448 0.168984
vn -0.981987 0 0.188946
v -0.024082 -0.021366 0.186618
vn -0.981987 0 0.188946
v -0.027475 -0.026448 0.168984
vn -0.955044 -0.179931 0.235617
v -0.023065 -0.025431 0.187636
vn -0.955044 -0.179931 0.235617
v -0.024082 -0.021366 0.186618
vn -0.955044 -0.179931 0.235617
v -0.022727 -0.016959 0.18628
vn -0.92642 0.302077 0.224712
v -0.027475 -0.018654 0.168984
vn -0.92642 0.302077 0.224712
v -0.024082 -0.021366 0.186618
vn -0.92642 0.302077 0.224712
v -0.007465 -0.027128 0.187975
vn 0.284781 0.0322298 0.958051
v -0.006108 -0.018994 0.187298
vn 0.284781 0.0322298 0.958051
v -0.00984 -0.016279 0.188316
vn 0.284781 0.0322298 0.958051
v -0.006785 -0.01221 0.178818
vn 0.80511 0.59034 0.0574231
v -0.002378 -0.017297 0.169326
vn 0.80511 0.59034 0.0574231
v -0.006108 -0.01221 0.169326
vn 0.80511 0.59034 0.0574231
v -0.022727 -0.016959 0.18628
vn -0.551281 0.661797 0.508048
v -0.018315 -0.014585 0.187975
vn -0.551281 0.661797 0.508048
v -0.018655 -0.013567 0.18628
vn -0.551281 0.661797 0.508048
v -0.018315 -0.014585 0.187975
vn -0.146901 0.834688 0.53077
v -0.01357 -0.012887 0.186618
vn -0.146901 0.834688 0.53077
v -0.018655 -0.013567 0.18628
vn -0.146901 0.834688 0.53077
v -0.01357 -0.012887 0.186618
vn -0.145648 0.947263 0.285446
v -0.011875 -0.010175 0.178483
vn -0.145648 0.947263 0.285446
v -0.018655 -0.013567 0.18628
vn -0.145648 0.947263 0.285446
v -0.023742 -0.03018 0.178818
vn -0.510373 -0.828105 0.231864
v -0.020352 -0.034927 0.169326
vn -0.510373 -0.828105 0.231864
v -0.020352 -0.03018 0.18628
vn -0.510373 -0.828105 0.231864
v -0.023065 -0.025431 0.187636
vn -0.767465 -0.537991 0.348661
v -0.023742 -0.03018 0.178818
vn -0.767465 -0.537991 0.348661
v -0.020352 -0.03018 0.18628
vn -0.767465 -0.537991 0.348661
v -0.018995 -0.029163 0.188316
vn -0.575283 -0.511013 0.638682
v -0.023065 -0.025431 0.187636
vn -0.575283 -0.511013 0.638682
v -0.020352 -0.03018 0.18628
vn -0.575283 -0.511013 0.638682
v -0.015263 -0.031875 0.18628
vn -0.260762 -0.782901 0.564863
v -0.018995 -0.029163 0.188316
vn -0.260762 -0.782901 0.564863
v -0.020352 -0.03018 0.18628
vn -0.260762 -0.782901 0.564863
v -0.01628 -0.03425 0.178483
vn -0.300067 -0.90091 0.31356
v -0.015263 -0.031875 0.18628
vn -0.300067 -0.90091 0.31356
v -0.020352 -0.03018 0.18628
vn -0.300067 -0.90091 0.31356
v -0.020352 -0.034927 0.169326
vn -0.407493 -0.879388 0.246223
v -0.01628 -0.03425 0.178483
vn -0.407493 -0.879388 0.246223
v -0.020352 -0.03018 0.18628
vn -0.407493 -0.879388 0.246223
v -0.024422 -0.013227 0.168984
vn 0 0 -1
v -0.027475 -0.018654 0.168984
vn -0.856046 0.481575 0.187803
v -0.022727 -0.016959 0.18628
vn -0.856046 0.481575 0.187803
v -0.024422 -0.013227 0.168984
vn -0.856046 0.481575 0.187803
v -0.022727 -0.016959 0.18628
vn -0.623953 0.749037 0.222769
v -0.018655 -0.013567 0.18628
vn -0.623953 0.749037 0.222769
v -0.024422 -0.013227 0.168984
vn -0.623953 0.749037 0.222769
v -0.018655 -0.013567 0.18628
vn -0.599758 0.770721 0.215128
v -0.02137 -0.010852 0.168984
vn -0.599758 0.770721 0.215128
v -0.024422 -0.013227 0.168984
vn -0.599758 0.770721 0.215128
v -0.00916 -0.03459 0.169326
vn 0.43695 -0.869387 0.230742
v -0.008483 -0.02984 0.185941
vn 0.43695 -0.869387 0.230742
v -0.012213 -0.031535 0.186618
vn 0.43695 -0.869387 0.230742
v -0.015263 -0.031875 0.18628
vn 0.0754348 -0.95658 0.281539
v -0.01628 -0.03425 0.178483
vn 0.0754348 -0.95658 0.281539
v -0.012213 -0.031535 0.186618
vn 0.0754348 -0.95658 0.281539
v -0.00916 -0.03459 0.169326
vn 0.145659 -0.185374 -0.971813
v -0.002378 -0.027468 0.168984
vn 0.145659 -0.185374 -0.971813
v -0.004413 -0.03086 0.169326
vn 0.145659 -0.185374 -0.971813
v -0.008483 -0.02984 0.185941
vn 0.60589 -0.771088 0.195756
v -0.00916 -0.03459 0.169326
vn 0.60589 -0.771088 0.195756
v -0.004413 -0.03086 0.169326
vn 0.60589 -0.771088 0.195756
v -0.018315 -0.014585 0.187975
vn -0.52387 0.463207 0.714842
v -0.022727 -0.016959 0.18628
vn -0.52387 0.463207 0.714842
v -0.022047 -0.019332 0.188316
vn -0.52387 0.463207 0.714842
v -0.023065 -0.025431 0.187636
vn -0.226877 -0.0704332 0.971373
v -0.018995 -0.029163 0.188316
vn -0.226877 -0.0704332 0.971373
v -0.022047 -0.019332 0.188316
vn -0.226877 -0.0704332 0.971373
v -0.024082 -0.021366 0.186618
vn -0.655179 0.0251739 0.755055
v -0.023065 -0.025431 0.187636
vn -0.655179 0.0251739 0.755055
v -0.022047 -0.019332 0.188316
vn -0.655179 0.0251739 0.755055
v -0.022727 -0.016959 0.18628
vn -0.764303 0.279566 0.581106
v -0.024082 -0.021366 0.186618
vn -0.764303 0.279566 0.581106
v -0.022047 -0.019332 0.188316
vn -0.764303 0.279566 0.581106
v -0.00984 -0.016279 0.188316
vn -0.0222687 0.0890385 0.995779
v -0.018315 -0.014585 0.187975
vn -0.0222687 0.0890385 0.995779
v -0.022047 -0.019332 0.188316
vn -0.0222687 0.0890385 0.995779
v -0.018995 -0.029163 0.188316
vn 0 -0 1
v -0.00984 -0.016279 0.188316
vn 0 -0 1
v -0.022047 -0.019332 0.188316
vn 0 -0 1
v -0.001698 -0.024413 0.168984
vn 0 0 -1
v -0.005091 -0.023056 0.185941
vn 0.954753 -0.212515 0.208047
v -0.002378 -0.027468 0.168984
vn 0.954753 -0.212515 0.208047
v -0.001698 -0.024413 0.168984
vn 0.954753 -0.212515 0.208047
v -0.002378 -0.017297 0.169326
vn 0.978342 0.0844056 0.189006
v -0.005091 -0.023056 0.185941
vn 0.978342 0.0844056 0.189006
v -0.001698 -0.024413 0.168984
vn 0.978342 0.0844056 0.189006
v -0.006108 -0.01221 0.169326
vn 0.0750433 0.0550249 -0.995661
v -0.002378 -0.017297 0.169326
vn 0.0750433 0.0550249 -0.995661
v -0.001698 -0.024413 0.168984
vn 0.0750433 0.0550249 -0.995661
v -0.006108 -0.01221 0.169326
vn 0.0395566 0.042275 -0.998323
v -0.001698 -0.024413 0.168984
vn 0.0395566 0.042275 -0.998323
v -0.017638 -0.009498 0.168984
vn 0.0395566 0.042275 -0.998323
v -0.01323 -0.009498 0.169665
vn 0 1 0
v -0.011875 -0.009498 0.169326
vn 0 1 0
v -0.017638 -0.009498 0.168984
vn 0 1 0
v -0.011875 -0.010175 0.178483
vn -0.0121112 0.996849 0.0783939
v -0.01323 -0.009498 0.169665
vn -0.0121112 0.996849 0.0783939
v -0.017638 -0.009498 0.168984
vn -0.0121112 0.996849 0.0783939
v -0.011875 -0.009498 0.169326
vn 0.0587773 0.124988 -0.990416
v -0.006108 -0.01221 0.169326
vn 0.0587773 0.124988 -0.990416
v -0.017638 -0.009498 0.168984
vn 0.0587773 0.124988 -0.990416
v -0.02137 -0.010852 0.168984
vn -0.334361 0.921593 0.197151
v -0.018655 -0.013567 0.18628
vn -0.334361 0.921593 0.197151
v -0.017638 -0.009498 0.168984
vn -0.334361 0.921593 0.197151
v -0.018655 -0.013567 0.18628
vn -0.233941 0.94939 0.209595
v -0.011875 -0.010175 0.178483
vn -0.233941 0.94939 0.209595
v -0.017638 -0.009498 0.168984
vn -0.233941 0.94939 0.209595
v -0.017638 -0.009498 0.168984
vn 0 0 -1
v -0.002378 -0.027468 0.168984
vn 0.0233646 -0.0701396 -0.997264
v -0.00916 -0.03459 0.169326
vn 0.0233646 -0.0701396 -0.997264
v -0.012213 -0.035607 0.169326
vn 0.0233646 -0.0701396 -0.997264
v -0.020352 -0.034927 0.169326
vn -0.00362099 -0.04334 -0.999054
v -0.027475 -0.026448 0.168984
vn -0.00362099 -0.04334 -0.999054
v -0.012213 -0.035607 0.169326
vn -0.00362099 -0.04334 -0.999054
v -0.027475 -0.026448 0.168984
vn -0.00162659 -0.0400221 -0.999197
v -0.002378 -0.027468 0.168984
vn -0.00162659 -0.0400221 -0.999197
v -0.012213 -0.035607 0.169326
vn -0.00162659 -0.0400221 -0.999197
v -0.01628 -0.03425 0.178483
vn -0.0827527 -0.990478 0.110028
v -0.020352 -0.034927 0.169326
vn -0.0827527 -0.990478 0.110028
v -0.012213 -0.035607 0.169326
vn -0.0827527 -0.990478 0.110028
v -0.00916 -0.03459 0.169326
vn 0.308437 -0.925919 0.21804
v -0.012213 -0.031535 0.186618
vn 0.308437 -0.925919 0.21804
v -0.012213 -0.035607 0.169326
vn 0.308437 -0.925919 0.21804
v -0.012213 -0.031535 0.186618
vn 0.1879 -0.956038 0.225132
v -0.01628 -0.03425 0.178483
vn 0.1879 -0.956038 0.225132
v -0.012213 -0.035607 0.169326
vn 0.1879 -0.956038 0.225132
v -0.027475 -0.026448 0.168984
vn -0.0866827 -0.112746 -0.989836
v -0.020352 -0.034927 0.169326
vn -0.0866827 -0.112746 -0.989836
v -0.02476 -0.031538 0.169326
vn -0.0866827 -0.112746 -0.989836
v -0.020352 -0.034927 0.169326
vn -0.599997 -0.780403 0.175999
v -0.023742 -0.03018 0.178818
vn -0.599997 -0.780403 0.175999
v -0.02476 -0.031538 0.169326
vn -0.599997 -0.780403 0.175999
v -0.023742 -0.03018 0.178818
vn -0.875481 -0.456285 0.159174
v -0.027475 -0.026448 0.168984
vn -0.875481 -0.456285 0.159174
v -0.02476 -0.031538 0.169326
vn -0.875481 -0.456285 0.159174
v -0.007465 -0.027128 0.187975
vn 0.681993 -0.585099 0.438799
v -0.008483 -0.02984 0.185941
vn 0.681993 -0.585099 0.438799
v -0.006448 -0.027468 0.185941
vn 0.681993 -0.585099 0.438799
v -0.002378 -0.027468 0.168984
vn 0.931611 -0.286536 0.223604
v -0.005091 -0.023056 0.185941
vn 0.931611 -0.286536 0.223604
v -0.006448 -0.027468 0.185941
vn 0.931611 -0.286536 0.223604
v -0.005091 -0.023056 0.185941
vn 0.845561 -0.26007 0.466251
v -0.007465 -0.027128 0.187975
vn 0.845561 -0.26007 0.466251
v -0.006448 -0.027468 0.185941
vn 0.845561 -0.26007 0.466251
v -0.004413 -0.03086 0.169326
vn 0.848468 -0.488497 0.203648
v -0.002378 -0.027468 0.168984
vn 0.848468 -0.488497 0.203648
v -0.006448 -0.027468 0.185941
vn 0.848468 -0.488497 0.203648
v -0.008483 -0.02984 0.185941
vn 0.740311 -0.635131 0.220337
v -0.004413 -0.03086 0.169326
vn 0.740311 -0.635131 0.220337
v -0.006448 -0.027468 0.185941
vn 0.740311 -0.635131 0.220337
v -0.006108 -0.018994 0.187298
vn 0.689826 0.591196 0.417885
v -0.006785 -0.01221 0.178818
vn 0.689826 0.591196 0.417885
v -0.010178 -0.014245 0.187298
vn 0.689826 0.591196 0.417885
v -0.01357 -0.012887 0.186618
vn 0.0474098 0.539397 0.840716
v -0.018315 -0.014585 0.187975
vn 0.0474098 0.539397 0.840716
v -0.010178 -0.014245 0.187298
vn 0.0474098 0.539397 0.840716
v -0.00984 -0.016279 0.188316
vn 0.524156 0.449213 0.723511
v -0.006108 -0.018994 0.187298
vn 0.524156 0.449213 0.723511
v -0.010178 -0.014245 0.187298
vn 0.524156 0.449213 0.723511
v -0.018315 -0.014585 0.187975
vn 0.055005 0.454183 0.889209
v -0.00984 -0.016279 0.188316
vn 0.055005 0.454183 0.889209
v -0.010178 -0.014245 0.187298
vn 0.055005 0.454183 0.889209
v -0.011875 -0.009498 0.169326
vn 0.207637 0.975543 0.0721245
v -0.011875 -0.010175 0.178483
vn 0.207637 0.975543 0.0721245
v -0.00882 -0.01085 0.178818
vn 0.207637 0.975543 0.0721245
v -0.011875 -0.010175 0.178483
vn 0.166656 0.924464 0.342917
v -0.01357 -0.012887 0.186618
vn 0.166656 0.924464 0.342917
v -0.00882 -0.01085 0.178818
vn 0.166656 0.924464 0.342917
v -0.006108 -0.01221 0.169326
vn 0.425541 0.904903 -0.00806994
v -0.011875 -0.009498 0.169326
vn 0.425541 0.904903 -0.00806994
v -0.00882 -0.01085 0.178818
vn 0.425541 0.904903 -0.00806994
v -0.006785 -0.01221 0.178818
vn 0.555207 0.830769 0.0395992
v -0.006108 -0.01221 0.169326
vn 0.555207 0.830769 0.0395992
v -0.00882 -0.01085 0.178818
vn 0.555207 0.830769 0.0395992
v -0.010178 -0.014245 0.187298
vn 0.511955 0.76605 0.388676
v -0.006785 -0.01221 0.178818
vn 0.511955 0.76605 0.388676
v -0.00882 -0.01085 0.178818
vn 0.511955 0.76605 0.388676
v -0.01357 -0.012887 0.186618
vn 0.272144 0.877496 0.39489
v -0.010178 -0.014245 0.187298
vn 0.272144 0.877496 0.39489
v -0.00882 -0.01085 0.178818
vn 0.272144 0.877496 0.39489
v -0.008483 -0.02984 0.185941
vn 0.441415 -0.63852 0.630432
v -0.007465 -0.027128 0.187975
vn 0.441415 -0.63852 0.630432
v -0.011875 -0.02984 0.188316
vn 0.441415 -0.63852 0.630432
v -0.018995 -0.029163 0.188316
vn -0.0620344 -0.652414 0.75532
v -0.015263 -0.031875 0.18628
vn -0.0620344 -0.652414 0.75532
v -0.011875 -0.02984 0.188316
vn -0.0620344 -0.652414 0.75532
v -0.007465 -0.027128 0.187975
vn 0.0848707 -0.0127359 0.996311
v -0.00984 -0.016279 0.188316
vn 0.0848707 -0.0127359 0.996311
v -0.011875 -0.02984 0.188316
vn 0.0848707 -0.0127359 0.996311
v -0.011875 -0.02984 0.188316
vn 0 0 1
v -0.012213 -0.031535 0.186618
vn 0.418959 -0.682964 0.598359
v -0.008483 -0.02984 0.185941
vn 0.418959 -0.682964 0.598359
v -0.011875 -0.02984 0.188316
vn 0.418959 -0.682964 0.598359
f 1//1 2//2 3//3
f 4//4 5//5 6//6
f 7//7 8//8 9//9
f 8//8 7//7 10//10
f 11//11 12//12 13//13
f 14//14 15//15 16//16
f 17//17 18//18 19//19
f 20//20 21//21 22//22
f 23//23 24//24 25//25
f 26//26 27//27 28//28
f 29//29 30//30 31//31
f 32//32 33//33 34//34
f 35//35 36//36 37//37
f 38//38 39//39 40//40
f 41//41 42//42 43//43
f 44//44 45//45 46//46
f 47//47 48//48 49//49
f 50//50 51//51 52//52
f 53//53 54//54 55//55
f 56//56 57//57 58//58
f 59//59 60//60 61//61
f 62//62 63//63 64//64
f 9//9 8//8 65//65
f 66//66 67//67 68//68
f 69//69 70//70 71//71
f 72//72 73//73 74//74
f 75//75 76//76 77//77
f 78//78 79//79 80//80
f 81//81 82//82 83//83
f 84//84 85//85 86//86
f 87//87 88//88 89//89
f 90//90 91//91 92//92
f 93//93 94//94 95//95
f 96//96 97//97 98//98
f 99//99 100//100 101//101
f 102//102 103//103 104//104
f 7//7 9//9 105//105
f 106//106 107//107 108//108
f 109//109 110//110 111//111
f 112//112 113//113 114//114
f 115//115 116//116 117//117
f 118//118 119//119 120//120
f 121//121 122//122 123//123
f 124//124 125//125 126//126
f 127//127 128//128 129//129
f 130//130 131//131 132//132
f 105//105 9//9 133//133
f 134//134 135//135 136//136
f 137//137 138//138 139//139
f 140//140 141//141 142//142
f 143//143 144//144 145//145
f 146//146 147//147 148//148
f 149//149 150//150 151//151
f 152//152 153//153 154//154
f 155//155 156//156 157//157
f 158//158 159//159 160//160
f 161//161 162//162 163//163
f 164//164 165//165 166//166
f 167//167 168//168 169//169
f 170//170 171//171 172//172
f 173//173 174//174 175//175
f 176//176 177//177 178//178
f 179//179 180//180 181//181
f 182//182 183//183 184//184
f 185//185 186//186 187//187
f 188//188 189//189 190//190
f 191//191 192//192 193//193
f 194//194 195//195 196//196
f 197//197 198//198 199//199
f 200//200 201//201 202//202
f 203//203 204//204 205//205
f 206//206 207//207 208//208
f 209//209 210//210 211//211
f 212//212 213//213 214//214
f 103//103 102//102 215//215
f 216//216 217//217 218//218
