# Created by Open3D 
# object name: mesh_piece_003
# number of vertices: 348
# number of triangles: 124
v -0.037644 0.007806 -0.001284
vn 0.0316941 0.491872 -0.87009
v -0.01934 0.005429 -0.001961
vn 0.0316941 0.491872 -0.87009
v -0.037984 0.005431 -0.002639
vn 0.0316941 0.491872 -0.87009
v 0.016616 -0.00983 0.018383
vn -0 -1 0
v -0.061053 -0.00983 0.031271
vn -0 -1 0
v -0.059018 -0.00983 0.00109
vn -0 -1 0
v 0.013561 -0.00983 -0.001623
vn 0 -1 0
v -0.061053 -0.00983 0.031271
vn 0 0 1
v -0.005771 0.002038 0.031271
vn 0 0 1
v -0.050199 0.008483 0.031271
vn 0 0 1
v 0.013901 -0.00983 0.031271
vn 0 -1 0
v 0.013901 -0.00983 0.031271
vn 0 0 1
v -0.050199 -0.00983 -0.001284
vn 0 -1 0
v -0.033242 5e-06 -0.003316
vn 0.00823088 0 -0.999966
v -0.033242 0.00136 -0.003316
vn 0.00823088 0 -0.999966
v 0.007457 -0.00983 -0.002981
vn 0.00823088 0 -0.999966
v 0.007457 -0.00983 -0.002981
vn -0 -1 0
v -0.01934 0.005429 -0.001961
vn 0.240659 0.745466 -0.621582
v -0.01391 0.006787 0.00177
vn 0.240659 0.745466 -0.621582
v -0.003056 0.002716 0.00109
vn 0.240659 0.745466 -0.621582
v 0.005763 -0.003725 0.031271
vn 0 0 1
v -0.01391 0.006787 0.00177
vn 0.322445 0.946151 -0.028773
v -0.014931 0.007465 0.012623
vn 0.322445 0.946151 -0.028773
v -0.004077 0.003735 0.011604
vn 0.322445 0.946151 -0.028773
v 0.004061 -0.000334 0.013642
vn 0.447194 0.894437 9.58433e-05
v 0.007457 -0.002031 0.00516
vn 0.447194 0.894437 9.58433e-05
v -0.004077 0.003735 0.011604
vn 0.447194 0.894437 9.58433e-05
v -0.003056 0.002716 0.00109
vn 0.347479 0.935956 -0.0569681
v -0.01391 0.006787 0.00177
vn 0.347479 0.935956 -0.0569681
v -0.004077 0.003735 0.011604
vn 0.347479 0.935956 -0.0569681
v -0.050199 0.008483 0.031271
vn 0.000161048 0.00111017 0.999999
v -0.005771 0.002038 0.031271
vn 0.000161048 0.00111017 0.999999
v -0.033915 0.008822 0.031268
vn 0.000161048 0.00111017 0.999999
v -0.005771 0.002038 0.031271
vn 0.000166677 0.00113352 0.999999
v -0.022381 0.007126 0.031268
vn 0.000166677 0.00113352 0.999999
v -0.033915 0.008822 0.031268
vn 0.000166677 0.00113352 0.999999
v 0.013561 -0.00983 -0.001623
vn 0.207916 0.288767 -0.934551
v 0.007457 -0.00983 -0.002981
vn 0.207916 0.288767 -0.934551
v 0.005082 -0.003725 -0.001623
vn 0.207916 0.288767 -0.934551
v 0.013901 -0.00983 0.031271
vn 0.632662 0.762874 0.133277
v 0.016616 -0.00983 0.018383
vn 0.632662 0.762874 0.133277
v 0.012547 -0.0061 0.016348
vn 0.632662 0.762874 0.133277
v 0.007457 -0.002031 0.00516
vn 0.54955 0.833764 0.0532156
v 0.004061 -0.000334 0.013642
vn 0.54955 0.833764 0.0532156
v 0.012547 -0.0061 0.016348
vn 0.54955 0.833764 0.0532156
v 0.016616 -0.00983 0.018383
vn 0.661642 0.748248 0.0485232
v 0.016276 -0.008474 0.002109
vn 0.661642 0.748248 0.0485232
v 0.012547 -0.0061 0.016348
vn 0.661642 0.748248 0.0485232
v 0.016276 -0.008474 0.002109
vn 0.594672 0.803674 0.0217438
v 0.007457 -0.002031 0.00516
vn 0.594672 0.803674 0.0217438
v 0.012547 -0.0061 0.016348
vn 0.594672 0.803674 0.0217438
v 0.005763 -0.003725 0.031271
vn 0.593842 0.791595 0.143978
v 0.013901 -0.00983 0.031271
vn 0.593842 0.791595 0.143978
v 0.012547 -0.0061 0.016348
vn 0.593842 0.791595 0.143978
v 0.004061 -0.000334 0.013642
vn 0.534479 0.838045 0.109599
v 0.005763 -0.003725 0.031271
vn 0.534479 0.838045 0.109599
v 0.012547 -0.0061 0.016348
vn 0.534479 0.838045 0.109599
v -0.033242 0.00136 -0.003316
vn -0.0728938 -0 -0.99734
v -0.033242 5e-06 -0.003316
vn -0.0728938 -0 -0.99734
v -0.047143 0.002716 -0.0023
vn -0.0728938 -0 -0.99734
v -0.033242 5e-06 -0.003316
vn -0.0843947 -0.0599896 -0.994625
v -0.050199 -0.00983 -0.001284
vn -0.0843947 -0.0599896 -0.994625
v -0.047143 0.002716 -0.0023
vn -0.0843947 -0.0599896 -0.994625
v -0.01391 0.006787 0.00177
vn 0.176943 0.813707 -0.553689
v -0.01934 0.005429 -0.001961
vn 0.176943 0.813707 -0.553689
v -0.026457 0.008822 0.000751
vn 0.176943 0.813707 -0.553689
v 0.007457 -0.00983 -0.002981
vn 0.020369 0.0441818 -0.998816
v -0.033242 0.00136 -0.003316
vn 0.020369 0.0441818 -0.998816
v -0.021035 0.003396 -0.002977
vn 0.020369 0.0441818 -0.998816
v -0.061393 -0.008811 0.006856
vn -0.985616 0.167724 0.0207258
v -0.061053 -0.00983 0.031271
vn -0.985616 0.167724 0.0207258
v -0.060712 -0.006778 0.022789
vn -0.985616 0.167724 0.0207258
v -0.004077 0.003735 0.011604
vn 0.331022 0.939666 0.086321
v -0.014931 0.007465 0.012623
vn 0.331022 0.939666 0.086321
v -0.011194 0.00509 0.024146
vn 0.331022 0.939666 0.086321
v -0.050199 -0.00983 -0.001284
vn -0.035604 -0.142968 -0.989087
v -0.033242 5e-06 -0.003316
vn -0.035604 -0.142968 -0.989087
v -0.003056 -0.00983 -0.002981
vn -0.035604 -0.142968 -0.989087
v -0.033242 5e-06 -0.003316
vn 0 -0.0340423 -0.99942
v 0.007457 -0.00983 -0.002981
vn 0 -0.0340423 -0.99942
v -0.003056 -0.00983 -0.002981
vn 0 -0.0340423 -0.99942
v -0.003056 -0.00983 -0.002981
vn 0 -1 0
v -0.055289 0.004751 0.010246
vn -0.847191 0.531289 0
v -0.055289 0.004751 0.024146
vn -0.847191 0.531289 0
v -0.053587 0.007465 0.01838
vn -0.847191 0.531289 0
v -0.050199 0.008483 0.031271
vn -0.426301 0.903666 0.0406778
v -0.050872 0.008822 0.016687
vn -0.426301 0.903666 0.0406778
v -0.053587 0.007465 0.01838
vn -0.426301 0.903666 0.0406778
v -0.053247 0.006787 0.030255
vn -0.501351 0.862902 0.0636216
v -0.050199 0.008483 0.031271
vn -0.501351 0.862902 0.0636216
v -0.053587 0.007465 0.01838
vn -0.501351 0.862902 0.0636216
v -0.055289 0.004751 0.024146
vn -0.786079 0.615433 0.0576446
v -0.053247 0.006787 0.030255
vn -0.786079 0.615433 0.0576446
v -0.053587 0.007465 0.01838
vn -0.786079 0.615433 0.0576446
v -0.022381 0.007126 0.031268
vn 0.207442 0.973063 0.10058
v -0.014931 0.007465 0.012623
vn 0.207442 0.973063 0.10058
v -0.026117 0.0095 0.016006
vn 0.207442 0.973063 0.10058
v -0.014931 0.007465 0.012623
vn 0.187391 0.981858 0.0289898
v -0.025436 0.0095 0.011604
vn 0.187391 0.981858 0.0289898
v -0.026117 0.0095 0.016006
vn 0.187391 0.981858 0.0289898
v -0.033915 0.008822 0.031268
vn 0.144472 0.982512 0.117464
v -0.022381 0.007126 0.031268
vn 0.144472 0.982512 0.117464
v -0.026117 0.0095 0.016006
vn 0.144472 0.982512 0.117464
v -0.050872 0.008822 0.016687
vn -0.12176 0.99249 -0.0117347
v -0.04613 0.0095 0.024827
vn -0.12176 0.99249 -0.0117347
v -0.049859 0.008822 0.006176
vn -0.12176 0.99249 -0.0117347
v -0.03663 0.009841 0.002448
vn 0.00772407 0.877049 -0.480339
v -0.026457 0.008822 0.000751
vn 0.00772407 0.877049 -0.480339
v -0.037644 0.007806 -0.001284
vn 0.00772407 0.877049 -0.480339
v -0.026457 0.008822 0.000751
vn 0.0650546 0.702733 -0.708473
v -0.01934 0.005429 -0.001961
vn 0.0650546 0.702733 -0.708473
v -0.037644 0.007806 -0.001284
vn 0.0650546 0.702733 -0.708473
v -0.014931 0.007465 0.012623
vn 0.210214 0.976785 -0.0412449
v -0.01391 0.006787 0.00177
vn 0.210214 0.976785 -0.0412449
v -0.026117 0.0095 0.003805
vn 0.210214 0.976785 -0.0412449
v -0.025436 0.0095 0.011604
vn 0.19172 0.981307 -0.0167408
v -0.014931 0.007465 0.012623
vn 0.19172 0.981307 -0.0167408
v -0.026117 0.0095 0.003805
vn 0.19172 0.981307 -0.0167408
v -0.026457 0.008822 0.000751
vn 0.0603099 0.973014 -0.222727
v -0.03663 0.009841 0.002448
vn 0.0603099 0.973014 -0.222727
v -0.026117 0.0095 0.003805
vn 0.0603099 0.973014 -0.222727
v -0.01391 0.006787 0.00177
vn 0.174054 0.957054 -0.231847
v -0.026457 0.008822 0.000751
vn 0.174054 0.957054 -0.231847
v -0.026117 0.0095 0.003805
vn 0.174054 0.957054 -0.231847
v 0.016276 -0.008474 0.002109
vn 0.48044 0.652109 -0.586456
v 0.013561 -0.00983 -0.001623
vn 0.48044 0.652109 -0.586456
v 0.007117 -0.002031 0.00177
vn 0.48044 0.652109 -0.586456
v 0.007457 -0.002031 0.00516
vn 0.575829 0.815528 -0.0577528
v 0.016276 -0.008474 0.002109
vn 0.575829 0.815528 -0.0577528
v 0.007117 -0.002031 0.00177
vn 0.575829 0.815528 -0.0577528
v -0.004077 0.003735 0.011604
vn 0.427474 0.90301 -0.0428735
v 0.007457 -0.002031 0.00516
vn 0.427474 0.90301 -0.0428735
v 0.007117 -0.002031 0.00177
vn 0.427474 0.90301 -0.0428735
v -0.003056 0.002716 0.00109
vn 0.424944 0.904032 -0.0463516
v -0.004077 0.003735 0.011604
vn 0.424944 0.904032 -0.0463516
v 0.007117 -0.002031 0.00177
vn 0.424944 0.904032 -0.0463516
v 0.013561 -0.00983 -0.001623
vn 0.46619 0.647474 -0.602864
v 0.005082 -0.003725 -0.001623
vn 0.46619 0.647474 -0.602864
v 0.007117 -0.002031 0.00177
vn 0.46619 0.647474 -0.602864
v 0.005082 -0.003725 -0.001623
vn 0.374927 0.719792 -0.584234
v -0.003056 0.002716 0.00109
vn 0.374927 0.719792 -0.584234
v 0.007117 -0.002031 0.00177
vn 0.374927 0.719792 -0.584234
v -0.051212 0.007804 0.003128
vn -0.282859 0.940449 -0.188539
v -0.049859 0.008822 0.006176
vn -0.282859 0.940449 -0.188539
v -0.047824 0.008483 0.001432
vn -0.282859 0.940449 -0.188539
v -0.049859 0.008822 0.006176
vn -0.109098 0.987082 -0.117335
v -0.03663 0.009841 0.002448
vn -0.109098 0.987082 -0.117335
v -0.047824 0.008483 0.001432
vn -0.109098 0.987082 -0.117335
v -0.03663 0.009841 0.002448
vn -0.0650547 0.883422 -0.46404
v -0.037644 0.007806 -0.001284
vn -0.0650547 0.883422 -0.46404
v -0.047824 0.008483 0.001432
vn -0.0650547 0.883422 -0.46404
v -0.037644 0.007806 -0.001284
vn -0.117219 0.76721 -0.630594
v -0.045109 0.006109 -0.001961
vn -0.117219 0.76721 -0.630594
v -0.047824 0.008483 0.001432
vn -0.117219 0.76721 -0.630594
v -0.058337 -0.003046 0.031271
vn 0 0 1
v -0.050199 0.008483 0.031271
vn -0.455637 0.321622 0.830033
v -0.053247 0.006787 0.030255
vn -0.455637 0.321622 0.830033
v -0.058337 -0.003046 0.031271
vn -0.455637 0.321622 0.830033
v -0.053247 0.006787 0.030255
vn -0.873908 0.466492 0.136641
v -0.055289 0.004751 0.024146
vn -0.873908 0.466492 0.136641
v -0.058337 -0.003046 0.031271
vn -0.873908 0.466492 0.136641
v -0.060712 -0.006778 0.022789
vn -0.924078 0.369958 0.095968
v -0.061053 -0.00983 0.031271
vn -0.924078 0.369958 0.095968
v -0.058337 -0.003046 0.031271
vn -0.924078 0.369958 0.095968
v -0.055289 0.004751 0.024146
vn -0.905824 0.417868 0.0697772
v -0.060712 -0.006778 0.022789
vn -0.905824 0.417868 0.0697772
v -0.058337 -0.003046 0.031271
vn -0.905824 0.417868 0.0697772
v -0.005771 0.002038 0.031271
vn 0.441655 0.883923 0.153691
v 0.005763 -0.003725 0.031271
vn 0.441655 0.883923 0.153691
v -0.003056 0.002038 0.023469
vn 0.441655 0.883923 0.153691
v 0.005763 -0.003725 0.031271
vn 0.46361 0.87732 0.123996
v 0.004061 -0.000334 0.013642
vn 0.46361 0.87732 0.123996
v -0.003056 0.002038 0.023469
vn 0.46361 0.87732 0.123996
v 0.004061 -0.000334 0.013642
vn 0.426803 0.899658 0.0919473
v -0.004077 0.003735 0.011604
vn 0.426803 0.899658 0.0919473
v -0.003056 0.002038 0.023469
vn 0.426803 0.899658 0.0919473
v -0.011194 0.00509 0.024146
vn 0.357477 0.9256 0.124398
v -0.005771 0.002038 0.031271
vn 0.357477 0.9256 0.124398
v -0.003056 0.002038 0.023469
vn 0.357477 0.9256 0.124398
v -0.004077 0.003735 0.011604
vn 0.356749 0.928602 0.102115
v -0.011194 0.00509 0.024146
vn 0.356749 0.928602 0.102115
v -0.003056 0.002038 0.023469
vn 0.356749 0.928602 0.102115
v -0.055289 0.004751 0.024146
vn -0.894603 0.446862 0
v -0.055289 0.004751 0.010246
vn -0.894603 0.446862 0
v -0.058337 -0.001351 0.008891
vn -0.894603 0.446862 0
v -0.061393 -0.008811 0.006856
vn -0.924451 0.381192 -0.00912643
v -0.060712 -0.006778 0.022789
vn -0.924451 0.381192 -0.00912643
v -0.058337 -0.001351 0.008891
vn -0.924451 0.381192 -0.00912643
v -0.060712 -0.006778 0.022789
vn -0.905337 0.424549 0.0110699
v -0.055289 0.004751 0.024146
vn -0.905337 0.424549 0.0110699
v -0.058337 -0.001351 0.008891
vn -0.905337 0.424549 0.0110699
v -0.055289 0.004751 0.010246
vn -0.872036 0.467655 -0.144404
v -0.056643 0.000342 0.004144
vn -0.872036 0.467655 -0.144404
v -0.058337 -0.001351 0.008891
vn -0.872036 0.467655 -0.144404
v -0.056643 0.000342 0.004144
vn -0.894292 0.413204 -0.171766
v -0.061393 -0.008811 0.006856
vn -0.894292 0.413204 -0.171766
v -0.058337 -0.001351 0.008891
vn -0.894292 0.413204 -0.171766
v -0.053247 0.003735 0.00109
vn -0.546504 0.577219 -0.606756
v -0.051212 0.007804 0.003128
vn -0.546504 0.577219 -0.606756
v -0.049178 0.005092 -0.001284
vn -0.546504 0.577219 -0.606756
v -0.059018 -0.00983 0.00109
vn -0.546827 0.232638 -0.804276
v -0.053247 0.003735 0.00109
vn -0.546827 0.232638 -0.804276
v -0.049178 0.005092 -0.001284
vn -0.546827 0.232638 -0.804276
v -0.045109 0.006109 -0.001961
vn -0.214036 0.22332 -0.950956
v -0.047143 0.002716 -0.0023
vn -0.214036 0.22332 -0.950956
v -0.049178 0.005092 -0.001284
vn -0.214036 0.22332 -0.950956
v -0.051212 0.007804 0.003128
vn -0.437344 0.662077 -0.608592
v -0.047824 0.008483 0.001432
vn -0.437344 0.662077 -0.608592
v -0.049178 0.005092 -0.001284
vn -0.437344 0.662077 -0.608592
v -0.047824 0.008483 0.001432
vn -0.281386 0.665821 -0.691017
v -0.045109 0.006109 -0.001961
vn -0.281386 0.665821 -0.691017
v -0.049178 0.005092 -0.001284
vn -0.281386 0.665821 -0.691017
v -0.055622 -0.00983 -0.000607
vn 0 -1 0
v -0.047143 0.002716 -0.0023
vn -0.123721 -0.0501208 -0.99105
v -0.050199 -0.00983 -0.001284
vn -0.123721 -0.0501208 -0.99105
v -0.055622 -0.00983 -0.000607
vn -0.123721 -0.0501208 -0.99105
v -0.059018 -0.00983 0.00109
vn -0.441897 0.150711 -0.884315
v -0.049178 0.005092 -0.001284
vn -0.441897 0.150711 -0.884315
v -0.055622 -0.00983 -0.000607
vn -0.441897 0.150711 -0.884315
v -0.049178 0.005092 -0.001284
vn -0.342706 0.105645 -0.933484
v -0.047143 0.002716 -0.0023
vn -0.342706 0.105645 -0.933484
v -0.055622 -0.00983 -0.000607
vn -0.342706 0.105645 -0.933484
v -0.050872 0.008822 0.016687
vn -0.304186 0.951926 0.0361643
v -0.050199 0.008483 0.031271
vn -0.304186 0.951926 0.0361643
v -0.048164 0.009159 0.030594
vn -0.304186 0.951926 0.0361643
v -0.033915 0.008822 0.031268
vn 0.0190003 0.995208 0.0959187
v -0.037644 0.009841 0.021434
vn 0.0190003 0.995208 0.0959187
v -0.048164 0.009159 0.030594
vn 0.0190003 0.995208 0.0959187
v -0.050199 0.008483 0.031271
vn -0.0150677 0.729831 0.683461
v -0.033915 0.008822 0.031268
vn -0.0150677 0.729831 0.683461
v -0.048164 0.009159 0.030594
vn -0.0150677 0.729831 0.683461
v -0.037644 0.009841 0.021434
vn -0.0192276 0.998449 0.0522563
v -0.04613 0.0095 0.024827
vn -0.0192276 0.998449 0.0522563
v -0.048164 0.009159 0.030594
vn -0.0192276 0.998449 0.0522563
v -0.04613 0.0095 0.024827
vn -0.150544 0.988589 0.00535845
v -0.050872 0.008822 0.016687
vn -0.150544 0.988589 0.00535845
v -0.048164 0.009159 0.030594
vn -0.150544 0.988589 0.00535845
v -0.03663 0.009841 0.002448
vn 0 1 -0
v -0.037644 0.009841 0.021434
vn 0 1 -0
v -0.029846 0.009841 0.016348
vn 0 1 -0
v -0.037644 0.009841 0.021434
vn 0.0539181 0.995117 0.0826687
v -0.033915 0.008822 0.031268
vn 0.0539181 0.995117 0.0826687
v -0.029846 0.009841 0.016348
vn 0.0539181 0.995117 0.0826687
v -0.026117 0.0095 0.016006
vn 0.0923556 0.995624 0.0142876
v -0.025436 0.0095 0.011604
vn 0.0923556 0.995624 0.0142876
v -0.029846 0.009841 0.016348
vn 0.0923556 0.995624 0.0142876
v -0.033915 0.008822 0.031268
vn 0.0992681 0.990542 0.0947241
v -0.026117 0.0095 0.016006
vn 0.0992681 0.990542 0.0947241
v -0.029846 0.009841 0.016348
vn 0.0992681 0.990542 0.0947241
v -0.026117 0.0095 0.003805
vn 0.0345912 0.999259 -0.0168825
v -0.03663 0.009841 0.002448
vn 0.0345912 0.999259 -0.0168825
v -0.029846 0.009841 0.016348
vn 0.0345912 0.999259 -0.0168825
v -0.025436 0.0095 0.011604
vn 0.0705075 0.997492 -0.00615663
v -0.026117 0.0095 0.003805
vn 0.0705075 0.997492 -0.00615663
v -0.029846 0.009841 0.016348
vn 0.0705075 0.997492 -0.00615663
v -0.051212 0.007804 0.003128
vn -0.758671 0.552403 -0.345353
v -0.053247 0.003735 0.00109
vn -0.758671 0.552403 -0.345353
v -0.053247 0.007126 0.006514
vn -0.758671 0.552403 -0.345353
v -0.055289 0.004751 0.010246
vn -0.787959 0.614418 -0.0401309
v -0.053587 0.007465 0.01838
vn -0.787959 0.614418 -0.0401309
v -0.053247 0.007126 0.006514
vn -0.787959 0.614418 -0.0401309
v -0.053587 0.007465 0.01838
vn -0.465906 0.883992 -0.0386045
v -0.050872 0.008822 0.016687
vn -0.465906 0.883992 -0.0386045
v -0.053247 0.007126 0.006514
vn -0.465906 0.883992 -0.0386045
v -0.049859 0.008822 0.006176
vn -0.453169 0.886362 -0.0948744
v -0.051212 0.007804 0.003128
vn -0.453169 0.886362 -0.0948744
v -0.053247 0.007126 0.006514
vn -0.453169 0.886362 -0.0948744
v -0.050872 0.008822 0.016687
vn -0.450675 0.891631 -0.043434
v -0.049859 0.008822 0.006176
vn -0.450675 0.891631 -0.043434
v -0.053247 0.007126 0.006514
vn -0.450675 0.891631 -0.043434
v -0.056643 0.000342 0.004144
vn -0.858997 0.486126 -0.160643
v -0.055289 0.004751 0.010246
vn -0.858997 0.486126 -0.160643
v -0.053247 0.007126 0.006514
vn -0.858997 0.486126 -0.160643
v -0.053247 0.003735 0.00109
vn -0.797949 0.511067 -0.319511
v -0.056643 0.000342 0.004144
vn -0.797949 0.511067 -0.319511
v -0.053247 0.007126 0.006514
vn -0.797949 0.511067 -0.319511
v -0.01934 0.005429 -0.001961
vn 0.241626 0.725138 -0.644819
v -0.003056 0.002716 0.00109
vn 0.241626 0.725138 -0.644819
v -0.008146 0.001699 -0.001961
vn 0.241626 0.725138 -0.644819
v 0.005082 -0.003725 -0.001623
vn 0.132713 0.264129 -0.955313
v 0.007457 -0.00983 -0.002981
vn 0.132713 0.264129 -0.955313
v -0.008146 0.001699 -0.001961
vn 0.132713 0.264129 -0.955313
v -0.003056 0.002716 0.00109
vn 0.287002 0.656464 -0.697628
v 0.005082 -0.003725 -0.001623
vn 0.287002 0.656464 -0.697628
v -0.008146 0.001699 -0.001961
vn 0.287002 0.656464 -0.697628
v -0.021035 0.003396 -0.002977
vn 0.120484 0.361581 -0.924523
v -0.01934 0.005429 -0.001961
vn 0.120484 0.361581 -0.924523
v -0.008146 0.001699 -0.001961
vn 0.120484 0.361581 -0.924523
v 0.007457 -0.00983 -0.002981
vn 0.106505 0.229729 -0.967409
v -0.021035 0.003396 -0.002977
vn 0.106505 0.229729 -0.967409
v -0.008146 0.001699 -0.001961
vn 0.106505 0.229729 -0.967409
v -0.060712 -0.00983 0.003467
vn 0 -1 0
v -0.061053 -0.00983 0.031271
vn -0.846994 -0.531501 -0.0103879
v -0.061393 -0.008811 0.006856
vn -0.846994 -0.531501 -0.0103879
v -0.060712 -0.00983 0.003467
vn -0.846994 -0.531501 -0.0103879
v -0.053247 0.003735 0.00109
vn -0.769486 0.327365 -0.548383
v -0.059018 -0.00983 0.00109
vn -0.769486 0.327365 -0.548383
v -0.060712 -0.00983 0.003467
vn -0.769486 0.327365 -0.548383
v -0.061393 -0.008811 0.006856
vn -0.88203 0.372071 -0.289113
v -0.056643 0.000342 0.004144
vn -0.88203 0.372071 -0.289113
v -0.060712 -0.00983 0.003467
vn -0.88203 0.372071 -0.289113
v -0.056643 0.000342 0.004144
vn -0.795253 0.351017 -0.494328
v -0.053247 0.003735 0.00109
vn -0.795253 0.351017 -0.494328
v -0.060712 -0.00983 0.003467
vn -0.795253 0.351017 -0.494328
v 0.017297 -0.00983 0.002448
vn 0 -1 -0
v 0.016276 -0.008474 0.002109
vn 0.794311 0.606562 0.0339458
v 0.016616 -0.00983 0.018383
vn 0.794311 0.606562 0.0339458
v 0.017297 -0.00983 0.002448
vn 0.794311 0.606562 0.0339458
v 0.013561 -0.00983 -0.001623
vn 0.687408 0.359873 -0.630842
v 0.016276 -0.008474 0.002109
vn 0.687408 0.359873 -0.630842
v 0.017297 -0.00983 0.002448
vn 0.687408 0.359873 -0.630842
v -0.022381 0.007126 0.031268
vn 0.00042402 0.00197363 0.999998
v -0.005771 0.002038 0.031271
vn 0.00042402 0.00197363 0.999998
v -0.017638 0.006107 0.031268
vn 0.00042402 0.00197363 0.999998
v -0.014931 0.007465 0.012623
vn 0.208972 0.972673 0.101184
v -0.022381 0.007126 0.031268
vn 0.208972 0.972673 0.101184
v -0.017638 0.006107 0.031268
vn 0.208972 0.972673 0.101184
v -0.005771 0.002038 0.031271
vn 0.320319 0.934308 0.156409
v -0.011194 0.00509 0.024146
vn 0.320319 0.934308 0.156409
v -0.017638 0.006107 0.031268
vn 0.320319 0.934308 0.156409
v -0.011194 0.00509 0.024146
vn 0.271451 0.956253 0.109059
v -0.014931 0.007465 0.012623
vn 0.271451 0.956253 0.109059
v -0.017638 0.006107 0.031268
vn 0.271451 0.956253 0.109059
v -0.042734 0.009841 0.01906
vn 0 1 0
v -0.04613 0.0095 0.024827
vn -0.0216077 0.998693 0.0463282
v -0.037644 0.009841 0.021434
vn -0.0216077 0.998693 0.0463282
v -0.042734 0.009841 0.01906
vn -0.0216077 0.998693 0.0463282
v -0.03663 0.009841 0.002448
vn -0.0855674 0.995836 -0.0314413
v -0.049859 0.008822 0.006176
vn -0.0855674 0.995836 -0.0314413
v -0.042734 0.009841 0.01906
vn -0.0855674 0.995836 -0.0314413
v -0.049859 0.008822 0.006176
vn -0.12016 0.992681 -0.0120616
v -0.04613 0.0095 0.024827
vn -0.12016 0.992681 -0.0120616
v -0.042734 0.009841 0.01906
vn -0.12016 0.992681 -0.0120616
v -0.033242 0.00136 -0.003316
vn -0.0637589 0.0910006 -0.993808
v -0.047143 0.002716 -0.0023
vn -0.0637589 0.0910006 -0.993808
v -0.037984 0.005431 -0.002639
vn -0.0637589 0.0910006 -0.993808
v -0.047143 0.002716 -0.0023
vn -0.0798933 0.146406 -0.985993
v -0.045109 0.006109 -0.001961
vn -0.0798933 0.146406 -0.985993
v -0.037984 0.005431 -0.002639
vn -0.0798933 0.146406 -0.985993
v -0.021035 0.003396 -0.002977
vn 2.82059e-05 0.164077 -0.986448
v -0.033242 0.00136 -0.003316
vn 2.82059e-05 0.164077 -0.986448
v -0.037984 0.005431 -0.002639
vn 2.82059e-05 0.164077 -0.986448
v -0.01934 0.005429 -0.001961
vn 0.0329471 0.42468 -0.904744
v -0.021035 0.003396 -0.002977
vn 0.0329471 0.42468 -0.904744
v -0.037984 0.005431 -0.002639
vn 0.0329471 0.42468 -0.904744
v -0.045109 0.006109 -0.001961
vn -0.0349115 0.499012 -0.865892
v -0.037644 0.007806 -0.001284
vn -0.0349115 0.499012 -0.865892
v -0.037984 0.005431 -0.002639
vn -0.0349115 0.499012 -0.865892
f 1//1 2//2 3//3
f 4//4 5//5 6//6
f 4//4 6//6 7//7
f 8//8 9//9 10//10
f 5//5 4//4 11//11
f 9//9 8//8 12//12
f 7//7 6//6 13//13
f 14//14 15//15 16//16
f 7//7 13//13 17//17
f 18//18 19//19 20//20
f 9//9 12//12 21//21
f 22//22 23//23 24//24
f 25//25 26//26 27//27
f 28//28 29//29 30//30
f 31//31 32//32 33//33
f 34//34 35//35 36//36
f 37//37 38//38 39//39
f 40//40 41//41 42//42
f 43//43 44//44 45//45
f 46//46 47//47 48//48
f 49//49 50//50 51//51
f 52//52 53//53 54//54
f 55//55 56//56 57//57
f 58//58 59//59 60//60
f 61//61 62//62 63//63
f 64//64 65//65 66//66
f 67//67 68//68 69//69
f 70//70 71//71 72//72
f 73//73 74//74 75//75
f 76//76 77//77 78//78
f 79//79 80//80 81//81
f 17//17 13//13 82//82
f 83//83 84//84 85//85
f 86//86 87//87 88//88
f 89//89 90//90 91//91
f 92//92 93//93 94//94
f 95//95 96//96 97//97
f 98//98 99//99 100//100
f 101//101 102//102 103//103
f 104//104 105//105 106//106
f 107//107 108//108 109//109
f 110//110 111//111 112//112
f 113//113 114//114 115//115
f 116//116 117//117 118//118
f 119//119 120//120 121//121
f 122//122 123//123 124//124
f 125//125 126//126 127//127
f 128//128 129//129 130//130
f 131//131 132//132 133//133
f 134//134 135//135 136//136
f 137//137 138//138 139//139
f 140//140 141//141 142//142
f 143//143 144//144 145//145
f 146//146 147//147 148//148
f 149//149 150//150 151//151
f 152//152 153//153 154//154
f 8//8 10//10 155//155
f 156//156 157//157 158//158
f 159//159 160//160 161//161
f 162//162 163//163 164//164
f 165//165 166//166 167//167
f 168//168 169//169 170//170
f 171//171 172//172 173//173
f 174//174 175//175 176//176
f 177//177 178//178 179//179
f 180//180 181//181 182//182
f 183//183 184//184 185//185
f 186//186 187//187 188//188
f 189//189 190//190 191//191
f 192//192 193//193 194//194
f 195//195 196//196 197//197
f 198//198 199//199 200//200
f 201//201 202//202 203//203
f 204//204 205//205 206//206
f 207//207 208//208 209//209
f 210//210 211//211 212//212
f 13//13 6//6 213//213
f 214//214 215//215 216//216
f 217//217 218//218 219//219
f 220//220 221//221 222//222
f 223//223 224//224 225//225
f 226//226 227//227 228//228
f 229//229 230//230 231//231
f 232//232 233//233 234//234
f 235//235 236//236 237//237
f 238//238 239//239 240//240
f 241//241 242//242 243//243
f 244//244 245//245 246//246
f 247//247 248//248 249//249
f 250//250 251//251 252//252
f 253//253 254//254 255//255
f 256//256 257//257 258//258
f 259//259 260//260 261//261
f 262//262 263//263 264//264
f 265//265 266//266 267//267
f 268//268 269//269 270//270
f 271//271 272//272 273//273
f 274//274 275//275 276//276
f 277//277 278//278 279//279
f 280//280 281//281 282//282
f 283//283 284//284 285//285
f 286//286 287//287 288//288
f 289//289 290//290 291//291
f 6//6 5//5 292//292
f 293//293 294//294 295//295
f 296//296 297//297 298//298
f 299//299 300//300 301//301
f 302//302 303//303 304//304
f 4//4 7//7 305//305
f 306//306 307//307 308//308
f 309//309 310//310 311//311
f 312//312 313//313 314//314
f 315//315 316//316 317//317
f 318//318 319//319 320//320
f 321//321 322//322 323//323
f 239//239 238//238 324//324
f 325//325 326//326 327//327
f 328//328 329//329 330//330
f 331//331 332//332 333//333
f 334//334 335//335 336//336
f 337//337 338//338 339//339
f 340//340 341//341 342//342
f 343//343 344//344 345//345
f 346//346 347//347 348//348
