# Created by Open3D 
# object name: mesh_piece_008
# number of vertices: 352
# number of triangles: 124
v -0.034256 -0.028485 0.156096
vn -0.926711 -0.372627 -0.0485333
v -0.03256 -0.033233 0.160166
vn -0.926711 -0.372627 -0.0485333
v -0.033918 -0.030518 0.165251
vn -0.926711 -0.372627 -0.0485333
v 0.003387 -0.014585 0.154399
vn -0 0 -1
v -0.010517 -0.042389 0.154399
vn -0 0 -1
v -0.028153 -0.008137 0.154399
vn -0 0 -1
v -0.031206 -0.03425 0.154399
vn 0 -0 -1
v -0.023405 -0.041031 0.154399
vn 0 0 -1
v -0.016278 -0.002709 0.154399
vn 0 0 -1
v -0.001699 -0.03764 0.154399
vn 0 0 -1
v -0.023405 -0.037978 0.168983
vn 0 -0 1
v -0.00611 -0.011869 0.168983
vn 0 -0 1
v -0.0251 -0.013568 0.168983
vn 0 -0 1
v -0.001358 -0.024753 0.168983
vn 0 0 1
v -0.034256 -0.025432 0.154399
vn 0 0 -1
v -0.035276 -0.024753 0.163217
vn -0.993058 0.0179241 -0.11625
v -0.034256 -0.016618 0.155758
vn -0.993058 0.0179241 -0.11625
v -0.034256 -0.025432 0.154399
vn -0.993058 0.0179241 -0.11625
v -0.034256 -0.016618 0.155758
vn -0.396452 0.139899 -0.907333
v -0.028153 -0.008137 0.154399
vn -0.396452 0.139899 -0.907333
v -0.034256 -0.025432 0.154399
vn -0.396452 0.139899 -0.907333
v -0.033239 -0.030176 0.167625
vn -0.179905 -0.0558183 0.982099
v -0.023405 -0.037978 0.168983
vn -0.179905 -0.0558183 0.982099
v -0.032902 -0.019333 0.168303
vn -0.179905 -0.0558183 0.982099
v -0.0251 -0.013568 0.168983
vn -0.153842 0.092159 0.983788
v -0.02917 -0.009495 0.167965
vn -0.153842 0.092159 0.983788
v -0.032902 -0.019333 0.168303
vn -0.153842 0.092159 0.983788
v -0.023405 -0.037978 0.168983
vn -0.0826186 -0.00573693 0.996565
v -0.0251 -0.013568 0.168983
vn -0.0826186 -0.00573693 0.996565
v -0.032902 -0.019333 0.168303
vn -0.0826186 -0.00573693 0.996565
v -0.02917 -0.009495 0.167965
vn -0.603612 0.254931 0.755422
v -0.033581 -0.013906 0.165929
vn -0.603612 0.254931 0.755422
v -0.032902 -0.019333 0.168303
vn -0.603612 0.254931 0.755422
v -0.023405 -0.037978 0.168983
vn -0.0195159 -0.398915 0.91678
v -0.014924 -0.043072 0.166947
vn -0.0195159 -0.398915 0.91678
v -0.008822 -0.041031 0.167965
vn -0.0195159 -0.398915 0.91678
v -0.001699 -0.038657 0.165591
vn 0.421592 -0.527106 0.737848
v 0.001354 -0.032892 0.167965
vn 0.421592 -0.527106 0.737848
v -0.008822 -0.041031 0.167965
vn 0.421592 -0.527106 0.737848
v 0.005765 -0.023057 0.166609
vn 0.752269 -0.253549 0.608116
v 0.001354 -0.032892 0.167965
vn 0.752269 -0.253549 0.608116
v 0.003387 -0.032554 0.165591
vn 0.752269 -0.253549 0.608116
v 0.001354 -0.032892 0.167965
vn 0.668346 -0.556973 0.493047
v -0.001699 -0.038657 0.165591
vn 0.668346 -0.556973 0.493047
v 0.003387 -0.032554 0.165591
vn 0.668346 -0.556973 0.493047
v -0.00102 -0.008141 0.154399
vn 0 0 -1
v -0.016278 -0.002709 0.154399
vn 0.146007 0.41012 -0.900269
v -0.007127 -0.00373 0.155418
vn 0.146007 0.41012 -0.900269
v -0.00102 -0.008141 0.154399
vn 0.146007 0.41012 -0.900269
v 0.004744 -0.025094 0.154399
vn 0 0 -1
v 0.004065 -0.030176 0.155758
vn 0.551956 -0.283457 -0.784217
v -0.001699 -0.03764 0.154399
vn 0.551956 -0.283457 -0.784217
v 0.004744 -0.025094 0.154399
vn 0.551956 -0.283457 -0.784217
v -0.028153 -0.008137 0.154399
vn -0.645821 0.356557 -0.675117
v -0.034256 -0.016618 0.155758
vn -0.645821 0.356557 -0.675117
v -0.030865 -0.009836 0.156096
vn -0.645821 0.356557 -0.675117
v -0.034256 -0.016618 0.155758
vn -0.891579 0.448805 -0.0604996
v -0.033581 -0.013906 0.165929
vn -0.891579 0.448805 -0.0604996
v -0.030865 -0.009836 0.156096
vn -0.891579 0.448805 -0.0604996
v -0.014924 -0.043072 0.166947
vn 0.140813 -0.990026 -0.0044328
v -0.010517 -0.042389 0.154399
vn 0.140813 -0.990026 -0.0044328
v -0.007806 -0.042052 0.165251
vn 0.140813 -0.990026 -0.0044328
v -0.008822 -0.041031 0.167965
vn 0.225336 -0.881088 0.415821
v -0.014924 -0.043072 0.166947
vn 0.225336 -0.881088 0.415821
v -0.007806 -0.042052 0.165251
vn 0.225336 -0.881088 0.415821
v -0.001699 -0.038657 0.165591
vn 0.414009 -0.790014 0.452189
v -0.008822 -0.041031 0.167965
vn 0.414009 -0.790014 0.452189
v -0.007806 -0.042052 0.165251
vn 0.414009 -0.790014 0.452189
v -0.016278 -0.002709 0.154399
vn -0.262105 0.573415 -0.776206
v -0.028153 -0.008137 0.154399
vn -0.262105 0.573415 -0.776206
v -0.024759 -0.004746 0.155758
vn -0.262105 0.573415 -0.776206
v -0.021031 -0.002709 0.161524
vn -0.255892 0.951515 -0.170702
v -0.016278 -0.002709 0.154399
vn -0.255892 0.951515 -0.170702
v -0.024759 -0.004746 0.155758
vn -0.255892 0.951515 -0.170702
v -0.026117 -0.005088 0.165591
vn -0.443108 0.895965 -0.0300336
v -0.021031 -0.002709 0.161524
vn -0.443108 0.895965 -0.0300336
v -0.024759 -0.004746 0.155758
vn -0.443108 0.895965 -0.0300336
v -0.028153 -0.008137 0.154399
vn -0.625853 0.733099 -0.266221
v -0.030865 -0.009836 0.156096
vn -0.625853 0.733099 -0.266221
v -0.024759 -0.004746 0.155758
vn -0.625853 0.733099 -0.266221
v -0.026117 -0.005088 0.165591
vn -0.348676 0.620119 0.702764
v -0.02917 -0.009495 0.167965
vn -0.348676 0.620119 0.702764
v -0.018994 -0.003388 0.167625
vn -0.348676 0.620119 0.702764
v -0.010517 -0.042389 0.154399
vn 0.0268683 -0.998629 -0.0449198
v -0.014924 -0.043072 0.166947
vn 0.0268683 -0.998629 -0.0449198
v -0.018652 -0.04273 0.157114
vn 0.0268683 -0.998629 -0.0449198
v -0.023405 -0.041031 0.154399
vn -0.0959546 -0.910649 -0.401885
v -0.010517 -0.042389 0.154399
vn -0.0959546 -0.910649 -0.401885
v -0.018652 -0.04273 0.157114
vn -0.0959546 -0.910649 -0.401885
v -0.023405 -0.041031 0.154399
vn -0.30706 -0.949986 -0.0569322
v -0.018652 -0.04273 0.157114
vn -0.30706 -0.949986 -0.0569322
v -0.022384 -0.042052 0.165929
vn -0.30706 -0.949986 -0.0569322
v -0.014924 -0.043072 0.166947
vn -0.188669 -0.618873 0.762496
v -0.023405 -0.037978 0.168983
vn -0.188669 -0.618873 0.762496
v -0.022384 -0.042052 0.165929
vn -0.188669 -0.618873 0.762496
v -0.023405 -0.037978 0.168983
vn -0.277136 -0.619818 0.734181
v -0.026795 -0.039677 0.166269
vn -0.277136 -0.619818 0.734181
v -0.022384 -0.042052 0.165929
vn -0.277136 -0.619818 0.734181
v -0.026795 -0.039677 0.166269
vn -0.475904 -0.878773 -0.0356747
v -0.023405 -0.041031 0.154399
vn -0.475904 -0.878773 -0.0356747
v -0.022384 -0.042052 0.165929
vn -0.475904 -0.878773 -0.0356747
v -0.018652 -0.04273 0.157114
vn -0.137833 -0.990295 0.0178135
v -0.014924 -0.043072 0.166947
vn -0.137833 -0.990295 0.0178135
v -0.022384 -0.042052 0.165929
vn -0.137833 -0.990295 0.0178135
v 0.001354 -0.032892 0.167965
vn 0.122218 -0.0829804 0.989028
v -0.001358 -0.024753 0.168983
vn 0.122218 -0.0829804 0.989028
v -0.007806 -0.03425 0.168983
vn 0.122218 -0.0829804 0.989028
v -0.007806 -0.03425 0.168983
vn 0 0 1
v -0.023405 -0.037978 0.168983
vn 0.0367431 -0.153743 0.987427
v -0.008822 -0.041031 0.167965
vn 0.0367431 -0.153743 0.987427
v -0.007806 -0.03425 0.168983
vn 0.0367431 -0.153743 0.987427
v -0.008822 -0.041031 0.167965
vn 0.133281 -0.166638 0.976969
v 0.001354 -0.032892 0.167965
vn 0.133281 -0.166638 0.976969
v -0.007806 -0.03425 0.168983
vn 0.133281 -0.166638 0.976969
v -0.011538 -0.00203 0.165591
vn 0.266757 0.861337 0.432364
v -0.011538 -0.003051 0.167625
vn 0.266757 0.861337 0.432364
v -0.004415 -0.004746 0.166607
vn 0.266757 0.861337 0.432364
v -0.035276 -0.024753 0.163217
vn -1 0 0
v -0.035276 -0.02509 0.164913
vn -1 0 0
v -0.035276 -0.021029 0.166607
vn -1 0 0
v -0.034256 -0.016618 0.155758
vn -0.995722 0.0621988 -0.0683267
v -0.035276 -0.024753 0.163217
vn -0.995722 0.0621988 -0.0683267
v -0.035276 -0.021029 0.166607
vn -0.995722 0.0621988 -0.0683267
v -0.035276 -0.02509 0.164913
vn -0.909653 -0.159912 0.383353
v -0.033239 -0.030176 0.167625
vn -0.909653 -0.159912 0.383353
v -0.035276 -0.021029 0.166607
vn -0.909653 -0.159912 0.383353
v -0.033581 -0.013906 0.165929
vn -0.972772 0.231746 0.00276545
v -0.034256 -0.016618 0.155758
vn -0.972772 0.231746 0.00276545
v -0.035276 -0.021029 0.166607
vn -0.972772 0.231746 0.00276545
v -0.033239 -0.030176 0.167625
vn -0.564766 -0.0340054 0.82455
v -0.032902 -0.019333 0.168303
vn -0.564766 -0.0340054 0.82455
v -0.035276 -0.021029 0.166607
vn -0.564766 -0.0340054 0.82455
v -0.032902 -0.019333 0.168303
vn -0.668116 0.226449 0.70876
v -0.033581 -0.013906 0.165929
vn -0.668116 0.226449 0.70876
v -0.035276 -0.021029 0.166607
vn -0.668116 0.226449 0.70876
v 0.003387 -0.014585 0.154399
vn 0.81024 0.554117 -0.19096
v -0.00102 -0.008141 0.154399
vn 0.81024 0.554117 -0.19096
v 0.003049 -0.011869 0.160846
vn 0.81024 0.554117 -0.19096
v -0.00102 -0.008141 0.154399
vn 0.743161 0.663655 -0.0852827
v -0.000342 -0.007462 0.165591
vn 0.743161 0.663655 -0.0852827
v 0.003049 -0.011869 0.160846
vn 0.743161 0.663655 -0.0852827
v 0.005086 -0.016618 0.161859
vn 0.921775 0.372237 -0.10849
v 0.003387 -0.014585 0.154399
vn 0.921775 0.372237 -0.10849
v 0.003049 -0.011869 0.160846
vn 0.921775 0.372237 -0.10849
v -0.010517 -0.042389 0.154399
vn 0.414456 -0.769566 -0.485793
v -0.001699 -0.03764 0.154399
vn 0.414456 -0.769566 -0.485793
v -0.004753 -0.040356 0.156096
vn 0.414456 -0.769566 -0.485793
v -0.001699 -0.03764 0.154399
vn 0.641116 -0.764295 -0.0694501
v -0.001699 -0.038657 0.165591
vn 0.641116 -0.764295 -0.0694501
v -0.004753 -0.040356 0.156096
vn 0.641116 -0.764295 -0.0694501
v -0.007806 -0.042052 0.165251
vn 0.347122 -0.936046 -0.0576484
v -0.010517 -0.042389 0.154399
vn 0.347122 -0.936046 -0.0576484
v -0.004753 -0.040356 0.156096
vn 0.347122 -0.936046 -0.0576484
v -0.001699 -0.038657 0.165591
vn 0.485881 -0.874025 0.00011449
v -0.007806 -0.042052 0.165251
vn 0.485881 -0.874025 0.00011449
v -0.004753 -0.040356 0.156096
vn 0.485881 -0.874025 0.00011449
v -0.00611 -0.011869 0.168983
vn 0.0431317 0.17795 0.983094
v -0.011538 -0.003051 0.167625
vn 0.0431317 0.17795 0.983094
v -0.017299 -0.009157 0.168983
vn 0.0431317 0.17795 0.983094
v -0.02917 -0.009495 0.167965
vn -0.0888202 0.157081 0.983583
v -0.0251 -0.013568 0.168983
vn -0.0888202 0.157081 0.983583
v -0.017299 -0.009157 0.168983
vn -0.0888202 0.157081 0.983583
v -0.017299 -0.009157 0.168983
vn 0 0 1
v -0.011538 -0.003051 0.167625
vn -0.0102272 0.226274 0.97401
v -0.018994 -0.003388 0.167625
vn -0.0102272 0.226274 0.97401
v -0.017299 -0.009157 0.168983
vn -0.0102272 0.226274 0.97401
v -0.018994 -0.003388 0.167625
vn -0.0894018 0.203253 0.975036
v -0.02917 -0.009495 0.167965
vn -0.0894018 0.203253 0.975036
v -0.017299 -0.009157 0.168983
vn -0.0894018 0.203253 0.975036
v -0.031206 -0.03425 0.154399
vn -0.58482 -0.672789 -0.453146
v -0.023405 -0.041031 0.154399
vn -0.58482 -0.672789 -0.453146
v -0.028491 -0.037982 0.156436
vn -0.58482 -0.672789 -0.453146
v -0.023405 -0.041031 0.154399
vn -0.529409 -0.846606 -0.0546245
v -0.026795 -0.039677 0.166269
vn -0.529409 -0.846606 -0.0546245
v -0.028491 -0.037982 0.156436
vn -0.529409 -0.846606 -0.0546245
v -0.03256 -0.033233 0.160166
vn -0.786004 -0.613488 -0.0763539
v -0.031206 -0.03425 0.154399
vn -0.786004 -0.613488 -0.0763539
v -0.028491 -0.037982 0.156436
vn -0.786004 -0.613488 -0.0763539
v 0.004744 -0.025094 0.154399
vn 0.811117 0.104737 -0.57543
v 0.003387 -0.014585 0.154399
vn 0.811117 0.104737 -0.57543
v 0.005423 -0.021029 0.156096
vn 0.811117 0.104737 -0.57543
v 0.005086 -0.016618 0.161859
vn 0.995421 0.0945326 -0.0141464
v 0.005765 -0.023057 0.166609
vn 0.995421 0.0945326 -0.0141464
v 0.005423 -0.021029 0.156096
vn 0.995421 0.0945326 -0.0141464
v 0.003387 -0.014585 0.154399
vn 0.953752 0.263014 -0.145538
v 0.005086 -0.016618 0.161859
vn 0.953752 0.263014 -0.145538
v 0.005423 -0.021029 0.156096
vn 0.953752 0.263014 -0.145538
v -0.033581 -0.013906 0.165929
vn -0.719384 0.493985 0.48833
v -0.02917 -0.009495 0.167965
vn -0.719384 0.493985 0.48833
v -0.029849 -0.008137 0.165591
vn -0.719384 0.493985 0.48833
v -0.02917 -0.009495 0.167965
vn -0.536769 0.65701 0.529355
v -0.026117 -0.005088 0.165591
vn -0.536769 0.65701 0.529355
v -0.029849 -0.008137 0.165591
vn -0.536769 0.65701 0.529355
v -0.030865 -0.009836 0.156096
vn -0.839801 0.542846 -0.00727304
v -0.033581 -0.013906 0.165929
vn -0.839801 0.542846 -0.00727304
v -0.029849 -0.008137 0.165591
vn -0.839801 0.542846 -0.00727304
v -0.026117 -0.005088 0.165591
vn -0.631531 0.772999 -0.0603329
v -0.024759 -0.004746 0.155758
vn -0.631531 0.772999 -0.0603329
v -0.029849 -0.008137 0.165591
vn -0.631531 0.772999 -0.0603329
v -0.024759 -0.004746 0.155758
vn -0.641042 0.76447 -0.0681975
v -0.030865 -0.009836 0.156096
vn -0.641042 0.76447 -0.0681975
v -0.029849 -0.008137 0.165591
vn -0.641042 0.76447 -0.0681975
v -0.001699 -0.03764 0.154399
vn 0.58302 -0.313781 -0.749419
v 0.004065 -0.030176 0.155758
vn 0.58302 -0.313781 -0.749419
v 0.001691 -0.034587 0.155758
vn 0.58302 -0.313781 -0.749419
v -0.001699 -0.038657 0.165591
vn 0.682256 -0.728114 -0.0661623
v -0.001699 -0.03764 0.154399
vn 0.682256 -0.728114 -0.0661623
v 0.001691 -0.034587 0.155758
vn 0.682256 -0.728114 -0.0661623
v 0.004065 -0.030176 0.155758
vn 0.879291 -0.473234 -0.0538179
v 0.003387 -0.032554 0.165591
vn 0.879291 -0.473234 -0.0538179
v 0.001691 -0.034587 0.155758
vn 0.879291 -0.473234 -0.0538179
v 0.003387 -0.032554 0.165591
vn 0.768211 -0.640197 -0.00013892
v -0.001699 -0.038657 0.165591
vn 0.768211 -0.640197 -0.00013892
v 0.001691 -0.034587 0.155758
vn 0.768211 -0.640197 -0.00013892
v -0.026795 -0.039677 0.166269
vn -0.396988 -0.468571 0.789203
v -0.023405 -0.037978 0.168983
vn -0.396988 -0.468571 0.789203
v -0.030528 -0.035945 0.166607
vn -0.396988 -0.468571 0.789203
v -0.023405 -0.037978 0.168983
vn -0.38237 -0.331856 0.86236
v -0.033239 -0.030176 0.167625
vn -0.38237 -0.331856 0.86236
v -0.030528 -0.035945 0.166607
vn -0.38237 -0.331856 0.86236
v -0.028491 -0.037982 0.156436
vn -0.707011 -0.707203 3.85048e-05
v -0.026795 -0.039677 0.166269
vn -0.707011 -0.707203 3.85048e-05
v -0.030528 -0.035945 0.166607
vn -0.707011 -0.707203 3.85048e-05
v -0.03256 -0.033233 0.160166
vn -0.769186 -0.638489 -0.0261753
v -0.028491 -0.037982 0.156436
vn -0.769186 -0.638489 -0.0261753
v -0.030528 -0.035945 0.166607
vn -0.769186 -0.638489 -0.0261753
v 0.005765 -0.023057 0.166609
vn 0.955181 -0.255244 0.149931
v 0.003387 -0.032554 0.165591
vn 0.955181 -0.255244 0.149931
v 0.005423 -0.027127 0.161859
vn 0.955181 -0.255244 0.149931
v 0.003387 -0.032554 0.165591
vn 0.930392 -0.365759 -0.0243028
v 0.004065 -0.030176 0.155758
vn 0.930392 -0.365759 -0.0243028
v 0.005423 -0.027127 0.161859
vn 0.930392 -0.365759 -0.0243028
v 0.004065 -0.030176 0.155758
vn 0.97687 -0.166423 -0.134267
v 0.004744 -0.025094 0.154399
vn 0.97687 -0.166423 -0.134267
v 0.005423 -0.027127 0.161859
vn 0.97687 -0.166423 -0.134267
v 0.004744 -0.025094 0.154399
vn 0.986071 -0.114244 -0.120884
v 0.005423 -0.021029 0.156096
vn 0.986071 -0.114244 -0.120884
v 0.005423 -0.027127 0.161859
vn 0.986071 -0.114244 -0.120884
v 0.005423 -0.021029 0.156096
vn 0.998505 -0.0375423 -0.0397245
v 0.005765 -0.023057 0.166609
vn 0.998505 -0.0375423 -0.0397245
v 0.005423 -0.027127 0.161859
vn 0.998505 -0.0375423 -0.0397245
v 0.002712 -0.013906 0.167625
vn 0.784508 0.196428 0.588186
v 0.005765 -0.023057 0.166609
vn 0.784508 0.196428 0.588186
v 0.004407 -0.014585 0.165591
vn 0.784508 0.196428 0.588186
v -0.000342 -0.007462 0.165591
vn 0.74175 0.494534 0.453038
v 0.002712 -0.013906 0.167625
vn 0.74175 0.494534 0.453038
v 0.004407 -0.014585 0.165591
vn 0.74175 0.494534 0.453038
v 0.005765 -0.023057 0.166609
vn 0.981943 0.167877 0.0872043
v 0.005086 -0.016618 0.161859
vn 0.981943 0.167877 0.0872043
v 0.004407 -0.014585 0.165591
vn 0.981943 0.167877 0.0872043
v 0.003049 -0.011869 0.160846
vn 0.829422 0.552987 0.0791479
v -0.000342 -0.007462 0.165591
vn 0.829422 0.552987 0.0791479
v 0.004407 -0.014585 0.165591
vn 0.829422 0.552987 0.0791479
v 0.005086 -0.016618 0.161859
vn 0.921454 0.386134 -0.0426964
v 0.003049 -0.011869 0.160846
vn 0.921454 0.386134 -0.0426964
v 0.004407 -0.014585 0.165591
vn 0.921454 0.386134 -0.0426964
v 0.002712 -0.013906 0.167625
vn 0.16796 0.071972 0.983163
v -0.00611 -0.011869 0.168983
vn 0.16796 0.071972 0.983163
v 0.004065 -0.021708 0.167965
vn 0.16796 0.071972 0.983163
v 0.005765 -0.023057 0.166609
vn 0.686546 0.150062 0.711432
v 0.002712 -0.013906 0.167625
vn 0.686546 0.150062 0.711432
v 0.004065 -0.021708 0.167965
vn 0.686546 0.150062 0.711432
v 0.001354 -0.032892 0.167965
vn 0.55104 -0.133572 0.823719
v 0.005765 -0.023057 0.166609
vn 0.55104 -0.133572 0.823719
v 0.004065 -0.021708 0.167965
vn 0.55104 -0.133572 0.823719
v -0.001358 -0.024753 0.168983
vn 0.212059 -0.051403 0.975904
v 0.001354 -0.032892 0.167965
vn 0.212059 -0.051403 0.975904
v 0.004065 -0.021708 0.167965
vn 0.212059 -0.051403 0.975904
v -0.00611 -0.011869 0.168983
vn 0.15342 0.0565858 0.98654
v -0.001358 -0.024753 0.168983
vn 0.15342 0.0565858 0.98654
v 0.004065 -0.021708 0.167965
vn 0.15342 0.0565858 0.98654
v -0.011538 -0.003051 0.167625
vn 0.0973936 0.209779 0.972886
v -0.00611 -0.011869 0.168983
vn 0.0973936 0.209779 0.972886
v -0.002037 -0.007462 0.167625
vn 0.0973936 0.209779 0.972886
v -0.00611 -0.011869 0.168983
vn 0.180762 0.133215 0.974463
v 0.002712 -0.013906 0.167625
vn 0.180762 0.133215 0.974463
v -0.002037 -0.007462 0.167625
vn 0.180762 0.133215 0.974463
v 0.002712 -0.013906 0.167625
vn 0.668516 0.492673 0.557099
v -0.000342 -0.007462 0.165591
vn 0.668516 0.492673 0.557099
v -0.002037 -0.007462 0.167625
vn 0.668516 0.492673 0.557099
v -0.004415 -0.004746 0.166607
vn 0.240615 0.518268 0.820672
v -0.011538 -0.003051 0.167625
vn 0.240615 0.518268 0.820672
v -0.002037 -0.007462 0.167625
vn 0.240615 0.518268 0.820672
v -0.000342 -0.007462 0.165591
vn 0.567455 0.674077 0.47288
v -0.004415 -0.004746 0.166607
vn 0.567455 0.674077 0.47288
v -0.002037 -0.007462 0.167625
vn 0.567455 0.674077 0.47288
v -0.016278 -0.002709 0.154399
vn -0.106328 0.991798 -0.07093
v -0.021031 -0.002709 0.161524
vn -0.106328 0.991798 -0.07093
v -0.017636 -0.00203 0.165929
vn -0.106328 0.991798 -0.07093
v -0.021031 -0.002709 0.161524
vn -0.340978 0.932502 0.119058
v -0.026117 -0.005088 0.165591
vn -0.340978 0.932502 0.119058
v -0.017636 -0.00203 0.165929
vn -0.340978 0.932502 0.119058
v -0.011538 -0.003051 0.167625
vn 0.0248587 0.893446 0.448482
v -0.011538 -0.00203 0.165591
vn 0.0248587 0.893446 0.448482
v -0.017636 -0.00203 0.165929
vn 0.0248587 0.893446 0.448482
v -0.018994 -0.003388 0.167625
vn -0.0358839 0.793917 0.606966
v -0.011538 -0.003051 0.167625
vn -0.0358839 0.793917 0.606966
v -0.017636 -0.00203 0.165929
vn -0.0358839 0.793917 0.606966
v -0.026117 -0.005088 0.165591
vn -0.322507 0.847932 0.420714
v -0.018994 -0.003388 0.167625
vn -0.322507 0.847932 0.420714
v -0.017636 -0.00203 0.165929
vn -0.322507 0.847932 0.420714
v -0.035276 -0.02509 0.164913
vn -0.980192 -0.19425 -0.0385978
v -0.035276 -0.024753 0.163217
vn -0.980192 -0.19425 -0.0385978
v -0.034256 -0.028485 0.156096
vn -0.980192 -0.19425 -0.0385978
v -0.035276 -0.024753 0.163217
vn -0.992043 -0.0611667 -0.110042
v -0.034256 -0.025432 0.154399
vn -0.992043 -0.0611667 -0.110042
v -0.034256 -0.028485 0.156096
vn -0.992043 -0.0611667 -0.110042
v -0.034256 -0.025432 0.154399
vn -0.81464 -0.28177 -0.50692
v -0.031206 -0.03425 0.154399
vn -0.81464 -0.28177 -0.50692
v -0.034256 -0.028485 0.156096
vn -0.81464 -0.28177 -0.50692
v -0.031206 -0.03425 0.154399
vn -0.891714 -0.432594 -0.133073
v -0.03256 -0.033233 0.160166
vn -0.891714 -0.432594 -0.133073
v -0.034256 -0.028485 0.156096
vn -0.891714 -0.432594 -0.133073
v -0.007127 -0.00373 0.155418
vn 0.305194 0.951915 -0.0267418
v -0.011538 -0.00203 0.165591
vn 0.305194 0.951915 -0.0267418
v -0.004415 -0.004409 0.162199
vn 0.305194 0.951915 -0.0267418
v -0.000342 -0.007462 0.165591
vn 0.642021 0.761948 -0.085119
v -0.00102 -0.008141 0.154399
vn 0.642021 0.761948 -0.085119
v -0.004415 -0.004409 0.162199
vn 0.642021 0.761948 -0.085119
v -0.00102 -0.008141 0.154399
vn 0.563534 0.813458 -0.143926
v -0.007127 -0.00373 0.155418
vn 0.563534 0.813458 -0.143926
v -0.004415 -0.004409 0.162199
vn 0.563534 0.813458 -0.143926
v -0.004415 -0.004746 0.166607
vn 0.564512 0.823023 0.0629216
v -0.000342 -0.007462 0.165591
vn 0.564512 0.823023 0.0629216
v -0.004415 -0.004409 0.162199
vn 0.564512 0.823023 0.0629216
v -0.011538 -0.00203 0.165591
vn 0.346446 0.935341 0.0715085
v -0.004415 -0.004746 0.166607
vn 0.346446 0.935341 0.0715085
v -0.004415 -0.004409 0.162199
vn 0.346446 0.935341 0.0715085
v -0.007127 -0.00373 0.155418
vn 0.155671 0.714935 -0.681641
v -0.016278 -0.002709 0.154399
vn 0.155671 0.714935 -0.681641
v -0.011875 -0.002372 0.155758
vn 0.155671 0.714935 -0.681641
v -0.011538 -0.00203 0.165591
vn 0.271906 0.961374 -0.0427562
v -0.007127 -0.00373 0.155418
vn 0.271906 0.961374 -0.0427562
v -0.011875 -0.002372 0.155758
vn 0.271906 0.961374 -0.0427562
v -0.016278 -0.002709 0.154399
vn -0.056106 0.996288 -0.0652793
v -0.017636 -0.00203 0.165929
vn -0.056106 0.996288 -0.0652793
v -0.011875 -0.002372 0.155758
vn -0.056106 0.996288 -0.0652793
v -0.017636 -0.00203 0.165929
vn -0.00192303 0.999396 -0.0346939
v -0.011538 -0.00203 0.165591
vn -0.00192303 0.999396 -0.0346939
v -0.011875 -0.002372 0.155758
vn -0.00192303 0.999396 -0.0346939
v -0.033239 -0.030176 0.167625
vn -0.930514 -0.214304 0.297015
v -0.035276 -0.02509 0.164913
vn -0.930514 -0.214304 0.297015
v -0.033918 -0.030518 0.165251
vn -0.930514 -0.214304 0.297015
v -0.030528 -0.035945 0.166607
vn -0.840114 -0.448595 0.304911
v -0.033239 -0.030176 0.167625
vn -0.840114 -0.448595 0.304911
v -0.033918 -0.030518 0.165251
vn -0.840114 -0.448595 0.304911
v -0.03256 -0.033233 0.160166
vn -0.852634 -0.52011 0.0499944
v -0.030528 -0.035945 0.166607
vn -0.852634 -0.52011 0.0499944
v -0.033918 -0.030518 0.165251
vn -0.852634 -0.52011 0.0499944
v -0.035276 -0.02509 0.164913
vn -0.969668 -0.243737 -0.0183254
v -0.034256 -0.028485 0.156096
vn -0.969668 -0.243737 -0.0183254
v -0.033918 -0.030518 0.165251
vn -0.969668 -0.243737 -0.0183254
f 1//1 2//2 3//3
f 4//4 5//5 6//6
f 6//6 5//5 7//7
f 7//7 5//5 8//8
f 4//4 6//6 9//9
f 5//5 4//4 10//10
f 11//11 12//12 13//13
f 12//12 11//11 14//14
f 6//6 7//7 15//15
f 16//16 17//17 18//18
f 19//19 20//20 21//21
f 22//22 23//23 24//24
f 25//25 26//26 27//27
f 28//28 29//29 30//30
f 31//31 32//32 33//33
f 34//34 35//35 36//36
f 37//37 38//38 39//39
f 40//40 41//41 42//42
f 43//43 44//44 45//45
f 4//4 9//9 46//46
f 47//47 48//48 49//49
f 10//10 4//4 50//50
f 51//51 52//52 53//53
f 54//54 55//55 56//56
f 57//57 58//58 59//59
f 60//60 61//61 62//62
f 63//63 64//64 65//65
f 66//66 67//67 68//68
f 69//69 70//70 71//71
f 72//72 73//73 74//74
f 75//75 76//76 77//77
f 78//78 79//79 80//80
f 81//81 82//82 83//83
f 84//84 85//85 86//86
f 87//87 88//88 89//89
f 90//90 91//91 92//92
f 93//93 94//94 95//95
f 96//96 97//97 98//98
f 99//99 100//100 101//101
f 102//102 103//103 104//104
f 105//105 106//106 107//107
f 14//14 11//11 108//108
f 109//109 110//110 111//111
f 112//112 113//113 114//114
f 115//115 116//116 117//117
f 118//118 119//119 120//120
f 121//121 122//122 123//123
f 124//124 125//125 126//126
f 127//127 128//128 129//129
f 130//130 131//131 132//132
f 133//133 134//134 135//135
f 136//136 137//137 138//138
f 139//139 140//140 141//141
f 142//142 143//143 144//144
f 145//145 146//146 147//147
f 148//148 149//149 150//150
f 151//151 152//152 153//153
f 154//154 155//155 156//156
f 157//157 158//158 159//159
f 160//160 161//161 162//162
f 13//13 12//12 163//163
f 164//164 165//165 166//166
f 167//167 168//168 169//169
f 170//170 171//171 172//172
f 173//173 174//174 175//175
f 176//176 177//177 178//178
f 179//179 180//180 181//181
f 182//182 183//183 184//184
f 185//185 186//186 187//187
f 188//188 189//189 190//190
f 191//191 192//192 193//193
f 194//194 195//195 196//196
f 197//197 198//198 199//199
f 200//200 201//201 202//202
f 203//203 204//204 205//205
f 206//206 207//207 208//208
f 209//209 210//210 211//211
f 212//212 213//213 214//214
f 215//215 216//216 217//217
f 218//218 219//219 220//220
f 221//221 222//222 223//223
f 224//224 225//225 226//226
f 227//227 228//228 229//229
f 230//230 231//231 232//232
f 233//233 234//234 235//235
f 236//236 237//237 238//238
f 239//239 240//240 241//241
f 242//242 243//243 244//244
f 245//245 246//246 247//247
f 248//248 249//249 250//250
f 251//251 252//252 253//253
f 254//254 255//255 256//256
f 257//257 258//258 259//259
f 260//260 261//261 262//262
f 263//263 264//264 265//265
f 266//266 267//267 268//268
f 269//269 270//270 271//271
f 272//272 273//273 274//274
f 275//275 276//276 277//277
f 278//278 279//279 280//280
f 281//281 282//282 283//283
f 284//284 285//285 286//286
f 287//287 288//288 289//289
f 290//290 291//291 292//292
f 293//293 294//294 295//295
f 296//296 297//297 298//298
f 299//299 300//300 301//301
f 302//302 303//303 304//304
f 305//305 306//306 307//307
f 308//308 309//309 310//310
f 311//311 312//312 313//313
f 314//314 315//315 316//316
f 317//317 318//318 319//319
f 320//320 321//321 322//322
f 323//323 324//324 325//325
f 326//326 327//327 328//328
f 329//329 330//330 331//331
f 332//332 333//333 334//334
f 335//335 336//336 337//337
f 338//338 339//339 340//340
f 341//341 342//342 343//343
f 344//344 345//345 346//346
f 347//347 348//348 349//349
f 350//350 351//351 352//352
