# Created by Open3D 
# object name: mesh_piece_006
# number of vertices: 270
# number of triangles: 106
v -0.061051 -0.023737 0.031276
vn -0.684997 -0.728433 -0.0128546
v -0.055282 -0.029162 0.031276
vn -0.684997 -0.728433 -0.0128546
v -0.057321 -0.027466 0.043823
vn -0.684997 -0.728433 -0.0128546
v -0.059012 -0.025426 0.043823
vn 0 0 1
v 0.029507 -0.024413 0.043823
vn 0 0 1
v -0.044091 0.008818 0.043823
vn 0 0 1
v 0.014238 -0.055617 0.043823
vn 0 0 1
v -0.063081 -0.020008 0.031276
vn 0 0 -1
v 0.03086 -0.024075 0.031276
vn 0 0 -1
v 0.021022 -0.054935 0.031276
vn 0 0 -1
v -0.053929 0.005427 0.031276
vn 0 0 -1
v -0.056983 -0.006787 0.043823
vn 0 0 1
v 0.024752 -0.017974 0.043823
vn 0 0 1
v 0.032213 -0.032215 0.031276
vn 0 0 -1
v -0.055282 -0.029162 0.031276
vn 0 0 -1
v -0.038661 -0.040012 0.043823
vn 0 0 1
v -0.032224 0.008143 0.043823
vn 0 0 1
v 0.020684 -0.051206 0.043823
vn 0 0 1
v -0.047822 0.009156 0.031276
vn 0 0 -1
v 0.009832 -0.055961 0.043823
vn 0 0 1
v -0.050537 0.004745 0.043823
vn 0 0 1
v -0.010182 0.002718 0.043823
vn 0 0 1
v 0.02713 -0.040356 0.041449
vn 0.855244 -0.45305 0.251603
v 0.020684 -0.051206 0.043823
vn 0.855244 -0.45305 0.251603
v 0.024076 -0.051206 0.032293
vn 0.855244 -0.45305 0.251603
v 0.010508 -0.055961 0.031276
vn 0 0 -1
v 0.009832 -0.055961 0.043823
vn -0.139834 -0.990146 -0.00753389
v -0.011196 -0.052901 0.031954
vn -0.139834 -0.990146 -0.00753389
v 0.010508 -0.055961 0.031276
vn -0.139834 -0.990146 -0.00753389
v -0.063081 -0.020008 0.031276
vn -0.94515 -0.263817 0.192592
v -0.059012 -0.025426 0.043823
vn -0.94515 -0.263817 0.192592
v -0.060713 -0.019332 0.043823
vn -0.94515 -0.263817 0.192592
v -0.060713 -0.019332 0.043823
vn 0 -0 1
v -0.062404 -0.015259 0.035346
vn -0.982266 -0.0197625 0.186448
v -0.063081 -0.020008 0.031276
vn -0.982266 -0.0197625 0.186448
v -0.060713 -0.019332 0.043823
vn -0.982266 -0.0197625 0.186448
v -0.056983 -0.006787 0.043823
vn -0.910748 0.270792 0.311786
v -0.062404 -0.015259 0.035346
vn -0.910748 0.270792 0.311786
v -0.060713 -0.019332 0.043823
vn -0.910748 0.270792 0.311786
v -0.055282 -0.029162 0.031276
vn -0.281473 -0.441498 -0.85197
v -0.029171 -0.046463 0.031615
vn -0.281473 -0.441498 -0.85197
v -0.041376 -0.039336 0.031954
vn -0.281473 -0.441498 -0.85197
v -0.029171 -0.046463 0.031615
vn -0.501813 -0.86248 0.0656659
v -0.038661 -0.040012 0.043823
vn -0.501813 -0.86248 0.0656659
v -0.041376 -0.039336 0.031954
vn -0.501813 -0.86248 0.0656659
v -0.041376 -0.039336 0.031954
vn -0.54367 -0.835781 0.0767611
v -0.038661 -0.040012 0.043823
vn -0.54367 -0.835781 0.0767611
v -0.053253 -0.03052 0.043823
vn -0.54367 -0.835781 0.0767611
v -0.053253 -0.03052 0.043823
vn 0 0 1
v -0.055282 -0.029162 0.031276
vn -0.590708 -0.806844 0.00819754
v -0.041376 -0.039336 0.031954
vn -0.590708 -0.806844 0.00819754
v -0.053253 -0.03052 0.043823
vn -0.590708 -0.806844 0.00819754
v 0.029507 -0.030858 0.043823
vn 0 0 1
v 0.020684 -0.051206 0.043823
vn 0.761151 -0.330039 0.558321
v 0.02713 -0.040356 0.041449
vn 0.761151 -0.330039 0.558321
v 0.029507 -0.030858 0.043823
vn 0.761151 -0.330039 0.558321
v 0.005077 -0.003395 0.031615
vn 0.0217904 0.0435407 -0.998814
v 0.03086 -0.024075 0.031276
vn 0.0217904 0.0435407 -0.998814
v -0.005775 0.002036 0.031615
vn 0.0217904 0.0435407 -0.998814
v -0.001359 -0.001018 0.043483
vn 0.446641 0.89246 0.0634652
v 0.005077 -0.003395 0.031615
vn 0.446641 0.89246 0.0634652
v -0.005775 0.002036 0.031615
vn 0.446641 0.89246 0.0634652
v 0.03086 -0.024075 0.031276
vn 0.0134504 0.0318469 -0.999402
v -0.047822 0.009156 0.031276
vn 0.0134504 0.0318469 -0.999402
v -0.005775 0.002036 0.031615
vn 0.0134504 0.0318469 -0.999402
v -0.047822 0.009156 0.031276
vn 0.015864 0.0461285 -0.99881
v -0.016618 0.005765 0.031615
vn 0.015864 0.0461285 -0.99881
v -0.005775 0.002036 0.031615
vn 0.015864 0.0461285 -0.99881
v -0.010182 0.002718 0.043823
vn 0.391279 0.915852 0.0900848
v -0.001359 -0.001018 0.043483
vn 0.391279 0.915852 0.0900848
v -0.005775 0.002036 0.031615
vn 0.391279 0.915852 0.0900848
v -0.016618 0.005765 0.031615
vn 0.324538 0.943675 0.0644374
v -0.010182 0.002718 0.043823
vn 0.324538 0.943675 0.0644374
v -0.005775 0.002036 0.031615
vn 0.324538 0.943675 0.0644374
v -0.060375 -0.0078 0.031276
vn 0 0 -1
v -0.063081 -0.020008 0.031276
vn -0.972364 0.215532 -0.0897476
v -0.062404 -0.015259 0.035346
vn -0.972364 0.215532 -0.0897476
v -0.060375 -0.0078 0.031276
vn -0.972364 0.215532 -0.0897476
v -0.062404 -0.015259 0.035346
vn -0.906076 0.364089 0.215557
v -0.056983 -0.006787 0.043823
vn -0.906076 0.364089 0.215557
v -0.060375 -0.0078 0.031276
vn -0.906076 0.364089 0.215557
v 0.005077 -0.003395 0.031615
vn 0.509838 0.853778 0.105484
v -0.001359 -0.001018 0.043483
vn 0.509838 0.853778 0.105484
v 0.0139 -0.010172 0.043823
vn 0.509838 0.853778 0.105484
v -0.001359 -0.001018 0.043483
vn 0.171808 0.320983 0.931371
v -0.010182 0.002718 0.043823
vn 0.171808 0.320983 0.931371
v 0.0139 -0.010172 0.043823
vn 0.171808 0.320983 0.931371
v 0.0139 -0.010172 0.043823
vn 0 0 1
v -0.038661 -0.040012 0.043823
vn -0.0819607 -0.200517 0.976256
v -0.018647 -0.049848 0.043483
vn -0.0819607 -0.200517 0.976256
v -0.007128 -0.052901 0.043823
vn -0.0819607 -0.200517 0.976256
v -0.018647 -0.049848 0.043483
vn -0.257628 -0.962201 0.0882999
v -0.011196 -0.052901 0.031954
vn -0.257628 -0.962201 0.0882999
v -0.007128 -0.052901 0.043823
vn -0.257628 -0.962201 0.0882999
v -0.007128 -0.052901 0.043823
vn 0 0 1
v -0.011196 -0.052901 0.031954
vn -0.17723 -0.982293 0.0607441
v 0.009832 -0.055961 0.043823
vn -0.17723 -0.982293 0.0607441
v -0.007128 -0.052901 0.043823
vn -0.17723 -0.982293 0.0607441
v -0.044091 0.008818 0.043823
vn -0.331505 0.935299 0.123773
v -0.047822 0.009156 0.031276
vn -0.331505 0.935299 0.123773
v -0.050199 0.007461 0.037718
vn -0.331505 0.935299 0.123773
v -0.047822 0.009156 0.031276
vn -0.520868 0.853028 0.0322539
v -0.053929 0.005427 0.031276
vn -0.520868 0.853028 0.0322539
v -0.050199 0.007461 0.037718
vn -0.520868 0.853028 0.0322539
v -0.050537 0.004745 0.043823
vn -0.504722 0.798782 0.327419
v -0.044091 0.008818 0.043823
vn -0.504722 0.798782 0.327419
v -0.050199 0.007461 0.037718
vn -0.504722 0.798782 0.327419
v -0.053929 0.005427 0.031276
vn -0.746341 0.622468 0.235603
v -0.050537 0.004745 0.043823
vn -0.746341 0.622468 0.235603
v -0.050199 0.007461 0.037718
vn -0.746341 0.622468 0.235603
v -0.050537 0.004745 0.043823
vn -0.795019 0.554866 0.245088
v -0.053929 0.005427 0.031276
vn -0.795019 0.554866 0.245088
v -0.054944 0.000678 0.038735
vn -0.795019 0.554866 0.245088
v -0.056983 -0.006787 0.043823
vn -0.819699 0.458184 0.343746
v -0.050537 0.004745 0.043823
vn -0.819699 0.458184 0.343746
v -0.054944 0.000678 0.038735
vn -0.819699 0.458184 0.343746
v -0.053929 0.005427 0.031276
vn -0.888111 0.432809 0.154709
v -0.060375 -0.0078 0.031276
vn -0.888111 0.432809 0.154709
v -0.054944 0.000678 0.038735
vn -0.888111 0.432809 0.154709
v -0.060375 -0.0078 0.031276
vn -0.896817 0.388811 0.211057
v -0.056983 -0.006787 0.043823
vn -0.896817 0.388811 0.211057
v -0.054944 0.000678 0.038735
vn -0.896817 0.388811 0.211057
v -0.010182 0.002718 0.043823
vn 0.311614 0.947462 0.0721959
v -0.016618 0.005765 0.031615
vn 0.311614 0.947462 0.0721959
v -0.017294 0.005083 0.043483
vn 0.311614 0.947462 0.0721959
v -0.032224 0.008143 0.043823
vn 0.118305 0.480679 0.86888
v -0.010182 0.002718 0.043823
vn 0.118305 0.480679 0.86888
v -0.017294 0.005083 0.043483
vn 0.118305 0.480679 0.86888
v 0.03086 -0.024075 0.031276
vn 0.926475 0.360042 0.109605
v 0.029507 -0.024413 0.043823
vn 0.926475 0.360042 0.109605
v 0.032213 -0.028486 0.034329
vn 0.926475 0.360042 0.109605
v 0.032213 -0.032215 0.031276
vn 0.967259 0.160774 -0.196373
v 0.03086 -0.024075 0.031276
vn 0.967259 0.160774 -0.196373
v 0.032213 -0.028486 0.034329
vn 0.967259 0.160774 -0.196373
v 0.029507 -0.024413 0.043823
vn 0.9617 0 0.274106
v 0.029507 -0.030858 0.043823
vn 0.9617 0 0.274106
v 0.032213 -0.028486 0.034329
vn 0.9617 0 0.274106
v -0.018647 -0.049848 0.043483
vn -0.387985 -0.917991 0.0822167
v -0.029171 -0.046463 0.031615
vn -0.387985 -0.917991 0.0822167
v -0.020348 -0.050192 0.031615
vn -0.387985 -0.917991 0.0822167
v -0.029171 -0.046463 0.031615
vn -0.022829 -0.0540145 -0.998279
v -0.055282 -0.029162 0.031276
vn -0.022829 -0.0540145 -0.998279
v -0.020348 -0.050192 0.031615
vn -0.022829 -0.0540145 -0.998279
v -0.011196 -0.052901 0.031954
vn -0.285495 -0.95592 0.0686266
v -0.018647 -0.049848 0.043483
vn -0.285495 -0.95592 0.0686266
v -0.020348 -0.050192 0.031615
vn -0.285495 -0.95592 0.0686266
v -0.055282 -0.029162 0.031276
vn -0.0202781 -0.0497816 -0.998554
v 0.010508 -0.055961 0.031276
vn -0.0202781 -0.0497816 -0.998554
v -0.020348 -0.050192 0.031615
vn -0.0202781 -0.0497816 -0.998554
v 0.010508 -0.055961 0.031276
vn -0.0851111 -0.401642 -0.911833
v -0.011196 -0.052901 0.031954
vn -0.0851111 -0.401642 -0.911833
v -0.020348 -0.050192 0.031615
vn -0.0851111 -0.401642 -0.911833
v -0.059012 -0.025426 0.043823
vn -0.875607 -0.476664 0.0781285
v -0.063081 -0.020008 0.031276
vn -0.875607 -0.476664 0.0781285
v -0.061051 -0.023737 0.031276
vn -0.875607 -0.476664 0.0781285
v -0.061051 -0.023737 0.031276
vn 0 0 -1
v -0.029171 -0.046463 0.031615
vn -0.394295 -0.914688 0.0887543
v -0.018647 -0.049848 0.043483
vn -0.394295 -0.914688 0.0887543
v -0.029171 -0.045443 0.042127
vn -0.394295 -0.914688 0.0887543
v -0.018647 -0.049848 0.043483
vn -0.396586 -0.821149 0.410408
v -0.038661 -0.040012 0.043823
vn -0.396586 -0.821149 0.410408
v -0.029171 -0.045443 0.042127
vn -0.396586 -0.821149 0.410408
v -0.038661 -0.040012 0.043823
vn -0.483498 -0.871253 0.0845397
v -0.029171 -0.046463 0.031615
vn -0.483498 -0.871253 0.0845397
v -0.029171 -0.045443 0.042127
vn -0.483498 -0.871253 0.0845397
v 0.03086 -0.024075 0.031276
vn 0.0638363 0.0958722 -0.993345
v 0.005077 -0.003395 0.031615
vn 0.0638363 0.0958722 -0.993345
v 0.011185 -0.007462 0.031615
vn 0.0638363 0.0958722 -0.993345
v 0.022723 -0.016279 0.031615
vn 0.158481 0.20739 -0.965336
v 0.03086 -0.024075 0.031276
vn 0.158481 0.20739 -0.965336
v 0.011185 -0.007462 0.031615
vn 0.158481 0.20739 -0.965336
v 0.024752 -0.017974 0.043823
vn 0.607155 0.794528 0.00940428
v 0.022723 -0.016279 0.031615
vn 0.607155 0.794528 0.00940428
v 0.011185 -0.007462 0.031615
vn 0.607155 0.794528 0.00940428
v 0.005077 -0.003395 0.031615
vn 0.553183 0.830794 0.0613992
v 0.0139 -0.010172 0.043823
vn 0.553183 0.830794 0.0613992
v 0.011185 -0.007462 0.031615
vn 0.553183 0.830794 0.0613992
v 0.0139 -0.010172 0.043823
vn 0.583 0.81091 0.0503539
v 0.024752 -0.017974 0.043823
vn 0.583 0.81091 0.0503539
v 0.011185 -0.007462 0.031615
vn 0.583 0.81091 0.0503539
v -0.032224 0.008143 0.043823
vn 0.111193 0.993093 0.0374602
v -0.034254 0.008818 0.031954
vn 0.111193 0.993093 0.0374602
v -0.0407 0.009156 0.042127
vn 0.111193 0.993093 0.0374602
v -0.044091 0.008818 0.043823
vn 0.0542033 0.952936 0.298287
v -0.032224 0.008143 0.043823
vn 0.0542033 0.952936 0.298287
v -0.0407 0.009156 0.042127
vn 0.0542033 0.952936 0.298287
v -0.034254 0.008818 0.031954
vn 0.0257441 0.999526 -0.016897
v -0.047822 0.009156 0.031276
vn 0.0257441 0.999526 -0.016897
v -0.0407 0.009156 0.042127
vn 0.0257441 0.999526 -0.016897
v -0.047822 0.009156 0.031276
vn -0.0747412 0.995996 0.049056
v -0.044091 0.008818 0.043823
vn -0.0747412 0.995996 0.049056
v -0.0407 0.009156 0.042127
vn -0.0747412 0.995996 0.049056
v 0.021022 -0.054935 0.031276
vn 0.286435 -0.952537 0.103096
v 0.014238 -0.055617 0.043823
vn 0.286435 -0.952537 0.103096
v 0.01763 -0.055955 0.031276
vn 0.286435 -0.952537 0.103096
v 0.014238 -0.055617 0.043823
vn 0.0777495 -0.995824 0.0478452
v 0.009832 -0.055961 0.043823
vn 0.0777495 -0.995824 0.0478452
v 0.01763 -0.055955 0.031276
vn 0.0777495 -0.995824 0.0478452
v 0.01763 -0.055955 0.031276
vn 0 0 -1
v 0.009832 -0.055961 0.043823
vn 0.000842662 -1 4.54004e-05
v 0.010508 -0.055961 0.031276
vn 0.000842662 -1 4.54004e-05
v 0.01763 -0.055955 0.031276
vn 0.000842662 -1 4.54004e-05
v 0.028821 -0.041369 0.031276
vn 0 0 -1
v 0.024076 -0.051206 0.032293
vn 0.684941 -0.393768 -0.613028
v 0.021022 -0.054935 0.031276
vn 0.684941 -0.393768 -0.613028
v 0.028821 -0.041369 0.031276
vn 0.684941 -0.393768 -0.613028
v 0.02713 -0.040356 0.041449
vn 0.891941 -0.410683 0.189157
v 0.024076 -0.051206 0.032293
vn 0.891941 -0.410683 0.189157
v 0.028821 -0.041369 0.031276
vn 0.891941 -0.410683 0.189157
v -0.034254 0.008818 0.031954
vn 0.137675 0.989936 0.0327514
v -0.032224 0.008143 0.043823
vn 0.137675 0.989936 0.0327514
v -0.024416 0.007461 0.031615
vn 0.137675 0.989936 0.0327514
v -0.047822 0.009156 0.031276
vn 0.05486 0.597564 -0.799942
v -0.034254 0.008818 0.031954
vn 0.05486 0.597564 -0.799942
v -0.024416 0.007461 0.031615
vn 0.05486 0.597564 -0.799942
v -0.016618 0.005765 0.031615
vn 0.0216009 0.0993182 -0.994821
v -0.047822 0.009156 0.031276
vn 0.0216009 0.0993182 -0.994821
v -0.024416 0.007461 0.031615
vn 0.0216009 0.0993182 -0.994821
v -0.017294 0.005083 0.043483
vn 0.21203 0.974888 0.0680996
v -0.016618 0.005765 0.031615
vn 0.21203 0.974888 0.0680996
v -0.024416 0.007461 0.031615
vn 0.21203 0.974888 0.0680996
v -0.032224 0.008143 0.043823
vn 0.201853 0.976575 0.0745449
v -0.017294 0.005083 0.043483
vn 0.201853 0.976575 0.0745449
v -0.024416 0.007461 0.031615
vn 0.201853 0.976575 0.0745449
v 0.014238 -0.055617 0.043823
vn 0.422492 -0.888282 0.180153
v 0.021022 -0.054935 0.031276
vn 0.422492 -0.888282 0.180153
v 0.020684 -0.053583 0.038735
vn 0.422492 -0.888282 0.180153
v 0.020684 -0.051206 0.043823
vn 0.526927 -0.770024 0.359738
v 0.014238 -0.055617 0.043823
vn 0.526927 -0.770024 0.359738
v 0.020684 -0.053583 0.038735
vn 0.526927 -0.770024 0.359738
v 0.021022 -0.054935 0.031276
vn 0.744027 -0.65071 0.151661
v 0.024076 -0.051206 0.032293
vn 0.744027 -0.65071 0.151661
v 0.020684 -0.053583 0.038735
vn 0.744027 -0.65071 0.151661
v 0.024076 -0.051206 0.032293
vn 0.821138 -0.517084 0.24157
v 0.020684 -0.051206 0.043823
vn 0.821138 -0.517084 0.24157
v 0.020684 -0.053583 0.038735
vn 0.821138 -0.517084 0.24157
v 0.029507 -0.024413 0.043823
vn 0.869971 0.481402 0.106781
v 0.03086 -0.024075 0.031276
vn 0.869971 0.481402 0.106781
v 0.027468 -0.020352 0.042127
vn 0.869971 0.481402 0.106781
v 0.024752 -0.017974 0.043823
vn 0.732118 0.540646 0.414372
v 0.029507 -0.024413 0.043823
vn 0.732118 0.540646 0.414372
v 0.027468 -0.020352 0.042127
vn 0.732118 0.540646 0.414372
v 0.03086 -0.024075 0.031276
vn 0.690769 0.722371 -0.031914
v 0.022723 -0.016279 0.031615
vn 0.690769 0.722371 -0.031914
v 0.027468 -0.020352 0.042127
vn 0.690769 0.722371 -0.031914
v 0.022723 -0.016279 0.031615
vn 0.65712 0.753772 -0.00455878
v 0.024752 -0.017974 0.043823
vn 0.65712 0.753772 -0.00455878
v 0.027468 -0.020352 0.042127
vn 0.65712 0.753772 -0.00455878
v 0.029507 -0.030858 0.043823
vn 0.904554 -0.301681 0.301281
v 0.02713 -0.040356 0.041449
vn 0.904554 -0.301681 0.301281
v 0.030522 -0.033573 0.038057
vn 0.904554 -0.301681 0.301281
v 0.032213 -0.032215 0.031276
vn 0.963738 -0.169046 0.206476
v 0.032213 -0.028486 0.034329
vn 0.963738 -0.169046 0.206476
v 0.030522 -0.033573 0.038057
vn 0.963738 -0.169046 0.206476
v 0.032213 -0.028486 0.034329
vn 0.960475 -0.14525 0.237467
v 0.029507 -0.030858 0.043823
vn 0.960475 -0.14525 0.237467
v 0.030522 -0.033573 0.038057
vn 0.960475 -0.14525 0.237467
v 0.028821 -0.041369 0.031276
vn 0.925296 -0.342867 0.162079
v 0.032213 -0.032215 0.031276
vn 0.925296 -0.342867 0.162079
v 0.030522 -0.033573 0.038057
vn 0.925296 -0.342867 0.162079
v 0.02713 -0.040356 0.041449
vn 0.912837 -0.362553 0.187838
v 0.028821 -0.041369 0.031276
vn 0.912837 -0.362553 0.187838
v 0.030522 -0.033573 0.038057
vn 0.912837 -0.362553 0.187838
v -0.057321 -0.027466 0.043823
vn 0 0 1
v -0.055282 -0.029162 0.031276
vn -0.600344 -0.799673 0.010532
v -0.053253 -0.03052 0.043823
vn -0.600344 -0.799673 0.010532
v -0.057321 -0.027466 0.043823
vn -0.600344 -0.799673 0.010532
v -0.059012 -0.025426 0.043823
vn -0.769298 -0.637688 0.0391763
v -0.061051 -0.023737 0.031276
vn -0.769298 -0.637688 0.0391763
v -0.057321 -0.027466 0.043823
vn -0.769298 -0.637688 0.0391763
f 1//1 2//2 3//3
f 4//4 5//5 6//6
f 5//5 4//4 7//7
f 8//8 9//9 10//10
f 9//9 8//8 11//11
f 4//4 6//6 12//12
f 6//6 5//5 13//13
f 10//10 9//9 14//14
f 8//8 10//10 15//15
f 7//7 4//4 16//16
f 6//6 13//13 17//17
f 5//5 7//7 18//18
f 9//9 11//11 19//19
f 7//7 16//16 20//20
f 12//12 6//6 21//21
f 17//17 13//13 22//22
f 23//23 24//24 25//25
f 15//15 10//10 26//26
f 27//27 28//28 29//29
f 30//30 31//31 32//32
f 4//4 12//12 33//33
f 34//34 35//35 36//36
f 37//37 38//38 39//39
f 40//40 41//41 42//42
f 43//43 44//44 45//45
f 46//46 47//47 48//48
f 16//16 4//4 49//49
f 50//50 51//51 52//52
f 5//5 18//18 53//53
f 54//54 55//55 56//56
f 57//57 58//58 59//59
f 60//60 61//61 62//62
f 63//63 64//64 65//65
f 66//66 67//67 68//68
f 69//69 70//70 71//71
f 72//72 73//73 74//74
f 11//11 8//8 75//75
f 76//76 77//77 78//78
f 79//79 80//80 81//81
f 82//82 83//83 84//84
f 85//85 86//86 87//87
f 22//22 13//13 88//88
f 89//89 90//90 91//91
f 92//92 93//93 94//94
f 20//20 16//16 95//95
f 96//96 97//97 98//98
f 99//99 100//100 101//101
f 102//102 103//103 104//104
f 105//105 106//106 107//107
f 108//108 109//109 110//110
f 111//111 112//112 113//113
f 114//114 115//115 116//116
f 117//117 118//118 119//119
f 120//120 121//121 122//122
f 123//123 124//124 125//125
f 126//126 127//127 128//128
f 129//129 130//130 131//131
f 132//132 133//133 134//134
f 135//135 136//136 137//137
f 138//138 139//139 140//140
f 141//141 142//142 143//143
f 144//144 145//145 146//146
f 147//147 148//148 149//149
f 150//150 151//151 152//152
f 153//153 154//154 155//155
f 8//8 15//15 156//156
f 157//157 158//158 159//159
f 160//160 161//161 162//162
f 163//163 164//164 165//165
f 166//166 167//167 168//168
f 169//169 170//170 171//171
f 172//172 173//173 174//174
f 175//175 176//176 177//177
f 178//178 179//179 180//180
f 181//181 182//182 183//183
f 184//184 185//185 186//186
f 187//187 188//188 189//189
f 190//190 191//191 192//192
f 193//193 194//194 195//195
f 196//196 197//197 198//198
f 26//26 10//10 199//199
f 200//200 201//201 202//202
f 10//10 14//14 203//203
f 204//204 205//205 206//206
f 207//207 208//208 209//209
f 210//210 211//211 212//212
f 213//213 214//214 215//215
f 216//216 217//217 218//218
f 219//219 220//220 221//221
f 222//222 223//223 224//224
f 225//225 226//226 227//227
f 228//228 229//229 230//230
f 231//231 232//232 233//233
f 234//234 235//235 236//236
f 237//237 238//238 239//239
f 240//240 241//241 242//242
f 243//243 244//244 245//245
f 246//246 247//247 248//248
f 249//249 250//250 251//251
f 252//252 253//253 254//254
f 255//255 256//256 257//257
f 258//258 259//259 260//260
f 261//261 262//262 263//263
f 49//49 4//4 264//264
f 265//265 266//266 267//267
f 268//268 269//269 270//270
