# Created by Open3D 
# object name: mesh_piece_007
# number of vertices: 338
# number of triangles: 124
v -0.063419 -0.020007 0.010588
vn -0.84802 -0.529891 -0.00878401
v -0.061392 -0.023397 0.019399
vn -0.84802 -0.529891 -0.00878401
v -0.063763 -0.01967 0.023469
vn -0.84802 -0.529891 -0.00878401
v 0.014243 -0.009832 0.031268
vn 0 1 0
v 0.014578 -0.009832 -0.001284
vn 0 1 0
v -0.060369 -0.009832 0.002444
vn 0 1 0
v 0.02611 -0.036288 -0.000945
vn 0 -1 0
v -0.045787 -0.036288 0.031268
vn 0 -1 0
v -0.047824 -0.036288 0.000412
vn 0 -1 0
v -0.063419 -0.018313 0.031271
vn -0.00131894 0.0124313 0.999922
v 0.014243 -0.009832 0.031268
vn -0.00131894 0.0124313 0.999922
v -0.06078 -0.009909 0.03117
vn -0.00131894 0.0124313 0.999922
v -0.045452 -0.029501 -0.003316
vn 0 0 -1
v -0.045452 -0.027465 -0.003316
vn 0 0 -1
v 0.001354 -0.010171 -0.003316
vn 0 0 -1
v 0.014243 -0.009832 0.031268
vn 1.10559e-05 0.000252357 1
v -0.063419 -0.018313 0.031271
vn 1.10559e-05 0.000252357 1
v 0.029504 -0.022384 0.031271
vn 1.10559e-05 0.000252357 1
v -0.054268 -0.009832 -0.000945
vn 0 1 0
v -0.035613 -0.035607 -0.003316
vn 0 0 -1
v 0.017294 -0.009832 0.00109
vn 0 1 -0
v 0.031197 -0.036288 0.006179
vn 0 -1 0
v -0.045452 -0.027465 -0.003316
vn -0.068708 -0 -0.997637
v -0.045452 -0.029501 -0.003316
vn -0.068708 -0 -0.997637
v -0.055282 -0.020688 -0.002639
vn -0.068708 -0 -0.997637
v 0.001354 -0.010171 -0.003316
vn -0.0239735 0.064884 -0.997605
v -0.045452 -0.027465 -0.003316
vn -0.0239735 0.064884 -0.997605
v -0.055282 -0.020688 -0.002639
vn -0.0239735 0.064884 -0.997605
v 0.029504 -0.022384 0.031271
vn 0 0 1
v -0.063419 -0.018313 0.031271
vn 0 0 1
v -0.062071 -0.022381 0.031271
vn 0 0 1
v 0.031541 -0.036288 0.024146
vn 0 -1 0
v 0.017294 -0.009832 0.00109
vn 0.67146 0.741027 -0.00452633
v 0.023394 -0.015262 0.017025
vn 0.67146 0.741027 -0.00452633
v 0.024417 -0.016278 0.002448
vn 0.67146 0.741027 -0.00452633
v -0.047824 -0.036288 0.000412
vn -0.213855 -0.976763 0.0141179
v -0.045787 -0.036288 0.031268
vn -0.213855 -0.976763 0.0141179
v -0.04986 -0.035607 0.016687
vn -0.213855 -0.976763 0.0141179
v -0.054947 -0.03086 0.004144
vn -0.620253 -0.78312 -0.0448252
v -0.047824 -0.036288 0.000412
vn -0.620253 -0.78312 -0.0448252
v -0.04986 -0.035607 0.016687
vn -0.620253 -0.78312 -0.0448252
v -0.055961 -0.02984 0.017706
vn -0.686636 -0.726994 0.00333893
v -0.054947 -0.03086 0.004144
vn -0.686636 -0.726994 0.00333893
v -0.04986 -0.035607 0.016687
vn -0.686636 -0.726994 0.00333893
v -0.061727 -0.009832 0.026862
vn 0 1 0
v -0.063419 -0.018313 0.031271
vn -0.932035 0.295201 0.210159
v -0.06078 -0.009909 0.03117
vn -0.932035 0.295201 0.210159
v -0.061727 -0.009832 0.026862
vn -0.932035 0.295201 0.210159
v -0.06078 -0.009909 0.03117
vn -0.00104983 0.999836 0.0181015
v 0.014243 -0.009832 0.031268
vn -0.00104983 0.999836 0.0181015
v -0.061727 -0.009832 0.026862
vn -0.00104983 0.999836 0.0181015
v -0.062071 -0.020688 0.002109
vn -0.808595 -0.582658 -0.0817544
v -0.054947 -0.03086 0.004144
vn -0.808595 -0.582658 -0.0817544
v -0.063419 -0.020007 0.010588
vn -0.808595 -0.582658 -0.0817544
v -0.043071 -0.036288 -0.002639
vn -0 -1 0
v -0.045452 -0.029501 -0.003316
vn -0.0782556 -0.126098 -0.988926
v -0.035613 -0.035607 -0.003316
vn -0.0782556 -0.126098 -0.988926
v -0.043071 -0.036288 -0.002639
vn -0.0782556 -0.126098 -0.988926
v 0.017294 -0.009832 0.017025
vn 0 1 -0
v 0.023394 -0.015262 0.017025
vn 0.664896 0.746936 0
v 0.017294 -0.009832 0.00109
vn 0.664896 0.746936 0
v 0.017294 -0.009832 0.017025
vn 0.664896 0.746936 0
v 0.020344 -0.036288 -0.001623
vn 0 -1 0
v -0.043071 -0.036288 -0.002639
vn 0.010411 -0.760017 -0.649819
v -0.035613 -0.035607 -0.003316
vn 0.010411 -0.760017 -0.649819
v 0.020344 -0.036288 -0.001623
vn 0.010411 -0.760017 -0.649819
v -0.045787 -0.036288 0.031268
vn 0.00577392 -0.166192 0.986077
v 0.031197 -0.035607 0.030932
vn 0.00577392 -0.166192 0.986077
v 0.031876 -0.033572 0.031271
vn 0.00577392 -0.166192 0.986077
v 0.031876 -0.033572 0.031271
vn 0 0 1
v 0.031197 -0.035607 0.030932
vn 0.941396 -0.327533 0.0805912
v 0.031541 -0.036288 0.024146
vn 0.941396 -0.327533 0.0805912
v 0.031876 -0.033572 0.031271
vn 0.941396 -0.327533 0.0805912
v 0.02916 -0.026789 -0.001284
vn 0.877427 0.11707 -0.465206
v 0.031541 -0.025771 0.003463
vn 0.877427 0.11707 -0.465206
v 0.03222 -0.03086 0.003463
vn 0.877427 0.11707 -0.465206
v 0.015257 -0.018992 -0.003316
vn 0 0 -1
v 0.023059 -0.025095 -0.002981
vn 0.012637 -0.0386906 -0.999171
v -0.035613 -0.035607 -0.003316
vn 0.012637 -0.0386906 -0.999171
v 0.015257 -0.018992 -0.003316
vn 0.012637 -0.0386906 -0.999171
v -0.062071 -0.022381 0.031271
vn -0.72998 -0.681908 0.046161
v -0.055961 -0.02984 0.017706
vn -0.72998 -0.681908 0.046161
v -0.057319 -0.027468 0.031271
vn -0.72998 -0.681908 0.046161
v -0.04986 -0.035607 0.016687
vn -0.602219 -0.787436 0.131445
v -0.045787 -0.036288 0.031268
vn -0.602219 -0.787436 0.131445
v -0.057319 -0.027468 0.031271
vn -0.602219 -0.787436 0.131445
v -0.055961 -0.02984 0.017706
vn -0.680439 -0.730378 0.0595961
v -0.04986 -0.035607 0.016687
vn -0.680439 -0.730378 0.0595961
v -0.057319 -0.027468 0.031271
vn -0.680439 -0.730378 0.0595961
v -0.045787 -0.036288 0.031268
vn -2.55547e-05 -0.000373419 1
v 0.031876 -0.033572 0.031271
vn -2.55547e-05 -0.000373419 1
v -0.057319 -0.027468 0.031271
vn -2.55547e-05 -0.000373419 1
v -0.057319 -0.027468 0.031271
vn 0 0 1
v 0.010849 -0.009832 -0.002639
vn 0 1 0
v 0.015257 -0.018992 -0.003316
vn 0.0669727 0.105557 -0.992155
v 0.001354 -0.010171 -0.003316
vn 0.0669727 0.105557 -0.992155
v 0.010849 -0.009832 -0.002639
vn 0.0669727 0.105557 -0.992155
v 0.023059 -0.025095 -0.002981
vn 0.157745 0.148068 -0.976316
v 0.015257 -0.018992 -0.003316
vn 0.157745 0.148068 -0.976316
v 0.010849 -0.009832 -0.002639
vn 0.157745 0.148068 -0.976316
v 0.014578 -0.009832 -0.001284
vn 0.318644 0.359836 -0.876918
v 0.023059 -0.018992 -0.001961
vn 0.318644 0.359836 -0.876918
v 0.010849 -0.009832 -0.002639
vn 0.318644 0.359836 -0.876918
v 0.023059 -0.018992 -0.001961
vn 0.175661 0.162281 -0.970983
v 0.023059 -0.025095 -0.002981
vn 0.175661 0.162281 -0.970983
v 0.010849 -0.009832 -0.002639
vn 0.175661 0.162281 -0.970983
v -0.063419 -0.018313 0.031271
vn -0.938898 0.286491 0.190772
v -0.061727 -0.009832 0.026862
vn -0.938898 0.286491 0.190772
v -0.064108 -0.016278 0.024824
vn -0.938898 0.286491 0.190772
v -0.061727 -0.009832 0.026862
vn -0.939074 0.343555 0.0104893
v -0.063763 -0.014921 0.011265
vn -0.939074 0.343555 0.0104893
v -0.064108 -0.016278 0.024824
vn -0.939074 0.343555 0.0104893
v -0.063763 -0.014921 0.011265
vn -0.997494 -0.0632463 -0.0317103
v -0.063419 -0.020007 0.010588
vn -0.997494 -0.0632463 -0.0317103
v -0.064108 -0.016278 0.024824
vn -0.997494 -0.0632463 -0.0317103
v 0.031197 -0.035607 0.030932
vn 0.00964798 -0.969156 0.24626
v -0.045787 -0.036288 0.031268
vn 0.00964798 -0.969156 0.24626
v 0.030761 -0.036164 0.028757
vn 0.00964798 -0.969156 0.24626
v 0.031541 -0.036288 0.024146
vn 0.523724 -0.844585 0.111306
v 0.031197 -0.035607 0.030932
vn 0.523724 -0.844585 0.111306
v 0.030761 -0.036164 0.028757
vn 0.523724 -0.844585 0.111306
v -0.045787 -0.036288 0.031268
vn 0.00251506 -0.999624 0.0273076
v 0.031541 -0.036288 0.024146
vn 0.00251506 -0.999624 0.0273076
v 0.030761 -0.036164 0.028757
vn 0.00251506 -0.999624 0.0273076
v -0.060369 -0.009832 0.002444
vn -0.457932 0.332696 -0.824386
v -0.054268 -0.009832 -0.000945
vn -0.457932 0.332696 -0.824386
v -0.05969 -0.017295 -0.000945
vn -0.457932 0.332696 -0.824386
v -0.054268 -0.009832 -0.000945
vn -0.235771 0.171292 -0.956594
v -0.055282 -0.020688 -0.002639
vn -0.235771 0.171292 -0.956594
v -0.05969 -0.017295 -0.000945
vn -0.235771 0.171292 -0.956594
v -0.055282 -0.020688 -0.002639
vn -0.377754 -0.0287086 -0.925461
v -0.059355 -0.021703 -0.000945
vn -0.377754 -0.0287086 -0.925461
v -0.05969 -0.017295 -0.000945
vn -0.377754 -0.0287086 -0.925461
v -0.059355 -0.021703 -0.000945
vn -0.755414 -0.0574101 -0.652728
v -0.062071 -0.020688 0.002109
vn -0.755414 -0.0574101 -0.652728
v -0.05969 -0.017295 -0.000945
vn -0.755414 -0.0574101 -0.652728
v -0.063419 -0.020007 0.010588
vn -0.995535 -0.057356 -0.0749665
v -0.063763 -0.014921 0.011265
vn -0.995535 -0.057356 -0.0749665
v -0.063084 -0.016956 0.003805
vn -0.995535 -0.057356 -0.0749665
v -0.062071 -0.020688 0.002109
vn -0.96991 -0.200513 -0.138093
v -0.063419 -0.020007 0.010588
vn -0.96991 -0.200513 -0.138093
v -0.063084 -0.016956 0.003805
vn -0.96991 -0.200513 -0.138093
v -0.060369 -0.009832 0.002444
vn -0.792134 0.19115 -0.579643
v -0.05969 -0.017295 -0.000945
vn -0.792134 0.19115 -0.579643
v -0.063084 -0.016956 0.003805
vn -0.792134 0.19115 -0.579643
v -0.05969 -0.017295 -0.000945
vn -0.811318 0.0446752 -0.582896
v -0.062071 -0.020688 0.002109
vn -0.811318 0.0446752 -0.582896
v -0.063084 -0.016956 0.003805
vn -0.811318 0.0446752 -0.582896
v -0.061727 -0.009832 0.006856
vn 0 1 0
v -0.063763 -0.014921 0.011265
vn -0.928451 0.371454 0
v -0.061727 -0.009832 0.026862
vn -0.928451 0.371454 0
v -0.061727 -0.009832 0.006856
vn -0.928451 0.371454 0
v -0.060369 -0.009832 0.002444
vn -0.913397 0.294391 -0.281141
v -0.063084 -0.016956 0.003805
vn -0.913397 0.294391 -0.281141
v -0.061727 -0.009832 0.006856
vn -0.913397 0.294391 -0.281141
v -0.063084 -0.016956 0.003805
vn -0.956198 0.248437 -0.154803
v -0.063763 -0.014921 0.011265
vn -0.956198 0.248437 -0.154803
v -0.061727 -0.009832 0.006856
vn -0.956198 0.248437 -0.154803
v -0.035613 -0.035607 -0.003316
vn 0.0221456 -0.0918786 -0.995524
v 0.023059 -0.025095 -0.002981
vn 0.0221456 -0.0918786 -0.995524
v 0.025775 -0.028146 -0.002639
vn 0.0221456 -0.0918786 -0.995524
v 0.02916 -0.026789 -0.001284
vn 0.423595 -0.167779 -0.890178
v 0.02611 -0.036288 -0.000945
vn 0.423595 -0.167779 -0.890178
v 0.025775 -0.028146 -0.002639
vn 0.423595 -0.167779 -0.890178
v 0.02611 -0.036288 -0.000945
vn 0.114473 -0.197839 -0.973527
v 0.020344 -0.036288 -0.001623
vn 0.114473 -0.197839 -0.973527
v 0.025775 -0.028146 -0.002639
vn 0.114473 -0.197839 -0.973527
v 0.020344 -0.036288 -0.001623
vn 0.0282039 -0.142278 -0.989425
v -0.035613 -0.035607 -0.003316
vn 0.0282039 -0.142278 -0.989425
v 0.025775 -0.028146 -0.002639
vn 0.0282039 -0.142278 -0.989425
v 0.023059 -0.025095 -0.002981
vn 0.295554 0.15748 -0.942257
v 0.023059 -0.018992 -0.001961
vn 0.295554 0.15748 -0.942257
v 0.025775 -0.028146 -0.002639
vn 0.295554 0.15748 -0.942257
v 0.023059 -0.018992 -0.001961
vn 0.310287 0.16145 -0.936833
v 0.02916 -0.026789 -0.001284
vn 0.310287 0.16145 -0.936833
v 0.025775 -0.028146 -0.002639
vn 0.310287 0.16145 -0.936833
v -0.047824 -0.036288 0.000412
vn -0.673704 -0.670624 -0.310461
v -0.054947 -0.03086 0.004144
vn -0.673704 -0.670624 -0.310461
v -0.054268 -0.029501 -0.000265
vn -0.673704 -0.670624 -0.310461
v -0.054947 -0.03086 0.004144
vn -0.753232 -0.586929 -0.296911
v -0.062071 -0.020688 0.002109
vn -0.753232 -0.586929 -0.296911
v -0.054268 -0.029501 -0.000265
vn -0.753232 -0.586929 -0.296911
v -0.043071 -0.036288 -0.002639
vn -0.463859 -0.512497 -0.722622
v -0.047824 -0.036288 0.000412
vn -0.463859 -0.512497 -0.722622
v -0.054268 -0.029501 -0.000265
vn -0.463859 -0.512497 -0.722622
v -0.062071 -0.020688 0.002109
vn -0.719755 -0.510551 -0.470415
v -0.059355 -0.021703 -0.000945
vn -0.719755 -0.510551 -0.470415
v -0.054268 -0.029501 -0.000265
vn -0.719755 -0.510551 -0.470415
v 0.014243 -0.009832 0.031268
vn 0.38125 0.463724 0.799755
v 0.029504 -0.022384 0.031271
vn 0.38125 0.463724 0.799755
v 0.022381 -0.015938 0.030929
vn 0.38125 0.463724 0.799755
v 0.029504 -0.022384 0.031271
vn 0.666353 0.740825 0.0845666
v 0.023394 -0.015262 0.017025
vn 0.666353 0.740825 0.0845666
v 0.022381 -0.015938 0.030929
vn 0.666353 0.740825 0.0845666
v 0.017294 -0.009832 0.017025
vn 0.598615 0.790707 0.12823
v 0.014243 -0.009832 0.031268
vn 0.598615 0.790707 0.12823
v 0.022381 -0.015938 0.030929
vn 0.598615 0.790707 0.12823
v 0.023394 -0.015262 0.017025
vn 0.66252 0.744268 0.0844547
v 0.017294 -0.009832 0.017025
vn 0.66252 0.744268 0.0844547
v 0.022381 -0.015938 0.030929
vn 0.66252 0.744268 0.0844547
v 0.001354 -0.010171 -0.003316
vn -0.0378287 0.140023 -0.989425
v -0.055282 -0.020688 -0.002639
vn -0.0378287 0.140023 -0.989425
v -0.050539 -0.009832 -0.001284
vn -0.0378287 0.140023 -0.989425
v -0.055282 -0.020688 -0.002639
vn -0.0893443 0.161702 -0.982787
v -0.054268 -0.009832 -0.000945
vn -0.0893443 0.161702 -0.982787
v -0.050539 -0.009832 -0.001284
vn -0.0893443 0.161702 -0.982787
v -0.050539 -0.009832 -0.001284
vn 0 1 0
v 0.010849 -0.009832 -0.002639
vn -0.00788301 0.934018 -0.357138
v 0.001354 -0.010171 -0.003316
vn -0.00788301 0.934018 -0.357138
v -0.050539 -0.009832 -0.001284
vn -0.00788301 0.934018 -0.357138
v 0.029504 -0.036288 0.001428
vn 0 -1 0
v 0.02611 -0.036288 -0.000945
vn 0.56041 -0.208545 -0.80153
v 0.02916 -0.026789 -0.001284
vn 0.56041 -0.208545 -0.80153
v 0.029504 -0.036288 0.001428
vn 0.56041 -0.208545 -0.80153
v 0.03222 -0.03086 0.003463
vn 0.89034 -0.326551 -0.317269
v 0.031197 -0.036288 0.006179
vn 0.89034 -0.326551 -0.317269
v 0.029504 -0.036288 0.001428
vn 0.89034 -0.326551 -0.317269
v 0.02916 -0.026789 -0.001284
vn 0.76731 -0.150206 -0.623437
v 0.03222 -0.03086 0.003463
vn 0.76731 -0.150206 -0.623437
v 0.029504 -0.036288 0.001428
vn 0.76731 -0.150206 -0.623437
v -0.055961 -0.02984 0.017706
vn -0.763036 -0.646251 0.0116655
v -0.062071 -0.022381 0.031271
vn -0.763036 -0.646251 0.0116655
v -0.061392 -0.023397 0.019399
vn -0.763036 -0.646251 0.0116655
v -0.054947 -0.03086 0.004144
vn -0.765719 -0.643114 -0.00888252
v -0.055961 -0.02984 0.017706
vn -0.765719 -0.643114 -0.00888252
v -0.061392 -0.023397 0.019399
vn -0.765719 -0.643114 -0.00888252
v -0.063419 -0.020007 0.010588
vn -0.800449 -0.597649 -0.0457976
v -0.054947 -0.03086 0.004144
vn -0.800449 -0.597649 -0.0457976
v -0.061392 -0.023397 0.019399
vn -0.800449 -0.597649 -0.0457976
v 0.031197 -0.036288 0.006179
vn 0.961704 -0.24386 -0.125129
v 0.03222 -0.03086 0.003463
vn 0.961704 -0.24386 -0.125129
v 0.033233 -0.030521 0.010588
vn 0.961704 -0.24386 -0.125129
v 0.03222 -0.03086 0.003463
vn 0.980646 0.130842 -0.14565
v 0.031541 -0.025771 0.003463
vn 0.980646 0.130842 -0.14565
v 0.033233 -0.030521 0.010588
vn 0.980646 0.130842 -0.14565
v -0.055282 -0.020688 -0.002639
vn -0.162481 -0.105871 -0.981015
v -0.045452 -0.029501 -0.003316
vn -0.162481 -0.105871 -0.981015
v -0.052911 -0.027468 -0.0023
vn -0.162481 -0.105871 -0.981015
v -0.045452 -0.029501 -0.003316
vn -0.175548 -0.158505 -0.971627
v -0.043071 -0.036288 -0.002639
vn -0.175548 -0.158505 -0.971627
v -0.052911 -0.027468 -0.0023
vn -0.175548 -0.158505 -0.971627
v -0.059355 -0.021703 -0.000945
vn -0.343084 -0.166202 -0.924484
v -0.055282 -0.020688 -0.002639
vn -0.343084 -0.166202 -0.924484
v -0.052911 -0.027468 -0.0023
vn -0.343084 -0.166202 -0.924484
v -0.043071 -0.036288 -0.002639
vn -0.445221 -0.467352 -0.76378
v -0.054268 -0.029501 -0.000265
vn -0.445221 -0.467352 -0.76378
v -0.052911 -0.027468 -0.0023
vn -0.445221 -0.467352 -0.76378
v -0.054268 -0.029501 -0.000265
vn -0.520443 -0.405059 -0.751709
v -0.059355 -0.021703 -0.000945
vn -0.520443 -0.405059 -0.751709
v -0.052911 -0.027468 -0.0023
vn -0.520443 -0.405059 -0.751709
v 0.031541 -0.025771 0.003463
vn 0.801432 0.59373 -0.0720485
v 0.024417 -0.016278 0.002448
vn 0.801432 0.59373 -0.0720485
v 0.03222 -0.026111 0.008214
vn 0.801432 0.59373 -0.0720485
v 0.03222 -0.025771 0.025843
vn 0.92372 0.382997 -0.00738663
v 0.033578 -0.029164 0.019738
vn 0.92372 0.382997 -0.00738663
v 0.03222 -0.026111 0.008214
vn 0.92372 0.382997 -0.00738663
v 0.033233 -0.030521 0.010588
vn 0.97938 0.155616 -0.128833
v 0.031541 -0.025771 0.003463
vn 0.97938 0.155616 -0.128833
v 0.03222 -0.026111 0.008214
vn 0.97938 0.155616 -0.128833
v 0.033578 -0.029164 0.019738
vn 0.979627 0.189975 -0.0651112
v 0.033233 -0.030521 0.010588
vn 0.979627 0.189975 -0.0651112
v 0.03222 -0.026111 0.008214
vn 0.979627 0.189975 -0.0651112
v 0.014578 -0.009832 -0.001284
vn 0.545807 0.558726 -0.624436
v 0.017294 -0.009832 0.00109
vn 0.545807 0.558726 -0.624436
v 0.025775 -0.020009 -0.000603
vn 0.545807 0.558726 -0.624436
v 0.031541 -0.025771 0.003463
vn 0.766403 0.430521 -0.476738
v 0.02916 -0.026789 -0.001284
vn 0.766403 0.430521 -0.476738
v 0.025775 -0.020009 -0.000603
vn 0.766403 0.430521 -0.476738
v 0.024417 -0.016278 0.002448
vn 0.773179 0.545678 -0.323156
v 0.031541 -0.025771 0.003463
vn 0.773179 0.545678 -0.323156
v 0.025775 -0.020009 -0.000603
vn 0.773179 0.545678 -0.323156
v 0.017294 -0.009832 0.00109
vn 0.641784 0.611762 -0.462451
v 0.024417 -0.016278 0.002448
vn 0.641784 0.611762 -0.462451
v 0.025775 -0.020009 -0.000603
vn 0.641784 0.611762 -0.462451
v 0.023059 -0.018992 -0.001961
vn 0.52941 0.53861 -0.655457
v 0.014578 -0.009832 -0.001284
vn 0.52941 0.53861 -0.655457
v 0.025775 -0.020009 -0.000603
vn 0.52941 0.53861 -0.655457
v 0.02916 -0.026789 -0.001284
vn 0.51909 0.338014 -0.785043
v 0.023059 -0.018992 -0.001961
vn 0.51909 0.338014 -0.785043
v 0.025775 -0.020009 -0.000603
vn 0.51909 0.338014 -0.785043
v 0.023394 -0.015262 0.017025
vn 0.74204 0.670146 0.0167703
v 0.029504 -0.022384 0.031271
vn 0.74204 0.670146 0.0167703
v 0.02916 -0.021706 0.019399
vn 0.74204 0.670146 0.0167703
v 0.024417 -0.016278 0.002448
vn 0.744172 0.667964 0.00566902
v 0.023394 -0.015262 0.017025
vn 0.744172 0.667964 0.00566902
v 0.02916 -0.021706 0.019399
vn 0.744172 0.667964 0.00566902
v 0.029504 -0.022384 0.031271
vn 0.789517 0.613608 0.0121658
v 0.03222 -0.025771 0.025843
vn 0.789517 0.613608 0.0121658
v 0.02916 -0.021706 0.019399
vn 0.789517 0.613608 0.0121658
v 0.03222 -0.026111 0.008214
vn 0.790168 0.61238 -0.0249996
v 0.024417 -0.016278 0.002448
vn 0.790168 0.61238 -0.0249996
v 0.02916 -0.021706 0.019399
vn 0.790168 0.61238 -0.0249996
v 0.03222 -0.025771 0.025843
vn 0.807467 0.589803 -0.0113752
v 0.03222 -0.026111 0.008214
vn 0.807467 0.589803 -0.0113752
v 0.02916 -0.021706 0.019399
vn 0.807467 0.589803 -0.0113752
v 0.032899 -0.030521 0.029913
vn 0.993134 0.087261 0.0779118
v 0.033578 -0.029164 0.019738
vn 0.993134 0.087261 0.0779118
v 0.032554 -0.027807 0.031271
vn 0.993134 0.087261 0.0779118
v 0.031876 -0.033572 0.031271
vn 0.893342 -0.105062 0.436924
v 0.032899 -0.030521 0.029913
vn 0.893342 -0.105062 0.436924
v 0.032554 -0.027807 0.031271
vn 0.893342 -0.105062 0.436924
v 0.032554 -0.027807 0.031271
vn 0 0 1
v 0.03222 -0.025771 0.025843
vn 0.864306 0.486103 0.12915
v 0.029504 -0.022384 0.031271
vn 0.864306 0.486103 0.12915
v 0.032554 -0.027807 0.031271
vn 0.864306 0.486103 0.12915
v 0.033578 -0.029164 0.019738
vn 0.955261 0.291416 0.0505277
v 0.03222 -0.025771 0.025843
vn 0.955261 0.291416 0.0505277
v 0.032554 -0.027807 0.031271
vn 0.955261 0.291416 0.0505277
v 0.031541 -0.036288 0.024146
vn 0.922635 -0.385269 -0.017665
v 0.031197 -0.036288 0.006179
vn 0.922635 -0.385269 -0.017665
v 0.032899 -0.032896 0.021095
vn 0.922635 -0.385269 -0.017665
v 0.033578 -0.029164 0.019738
vn 0.985591 -0.163324 0.0439889
v 0.032899 -0.030521 0.029913
vn 0.985591 -0.163324 0.0439889
v 0.032899 -0.032896 0.021095
vn 0.985591 -0.163324 0.0439889
v 0.032899 -0.030521 0.029913
vn 0.955137 -0.285974 0.0770229
v 0.031876 -0.033572 0.031271
vn 0.955137 -0.285974 0.0770229
v 0.032899 -0.032896 0.021095
vn 0.955137 -0.285974 0.0770229
v 0.031876 -0.033572 0.031271
vn 0.947097 -0.312187 0.0744733
v 0.031541 -0.036288 0.024146
vn 0.947097 -0.312187 0.0744733
v 0.032899 -0.032896 0.021095
vn 0.947097 -0.312187 0.0744733
v 0.031197 -0.036288 0.006179
vn 0.951219 -0.30605 -0.0389416
v 0.033233 -0.030521 0.010588
vn 0.951219 -0.30605 -0.0389416
v 0.032899 -0.032896 0.021095
vn 0.951219 -0.30605 -0.0389416
v 0.033233 -0.030521 0.010588
vn 0.983153 -0.182512 -0.010002
v 0.033578 -0.029164 0.019738
vn 0.983153 -0.182512 -0.010002
v 0.032899 -0.032896 0.021095
vn 0.983153 -0.182512 -0.010002
v -0.062071 -0.022381 0.031271
vn -0.944847 -0.313091 0.0961154
v -0.063419 -0.018313 0.031271
vn -0.944847 -0.313091 0.0961154
v -0.063763 -0.01967 0.023469
vn -0.944847 -0.313091 0.0961154
v -0.063419 -0.018313 0.031271
vn -0.989734 -0.126916 0.0657132
v -0.064108 -0.016278 0.024824
vn -0.989734 -0.126916 0.0657132
v -0.063763 -0.01967 0.023469
vn -0.989734 -0.126916 0.0657132
v -0.064108 -0.016278 0.024824
vn -0.995503 -0.0915892 -0.0241898
v -0.063419 -0.020007 0.010588
vn -0.995503 -0.0915892 -0.0241898
v -0.063763 -0.01967 0.023469
vn -0.995503 -0.0915892 -0.0241898
v -0.061392 -0.023397 0.019399
vn -0.844999 -0.534762 -0.00256351
v -0.062071 -0.022381 0.031271
vn -0.844999 -0.534762 -0.00256351
v -0.063763 -0.01967 0.023469
vn -0.844999 -0.534762 -0.00256351
f 1//1 2//2 3//3
f 4//4 5//5 6//6
f 7//7 8//8 9//9
f 10//10 11//11 12//12
f 13//13 14//14 15//15
f 16//16 17//17 18//18
f 6//6 5//5 19//19
f 13//13 15//15 20//20
f 5//5 4//4 21//21
f 8//8 7//7 22//22
f 23//23 24//24 25//25
f 26//26 27//27 28//28
f 29//29 30//30 31//31
f 8//8 22//22 32//32
f 33//33 34//34 35//35
f 36//36 37//37 38//38
f 39//39 40//40 41//41
f 42//42 43//43 44//44
f 4//4 6//6 45//45
f 46//46 47//47 48//48
f 49//49 50//50 51//51
f 52//52 53//53 54//54
f 7//7 9//9 55//55
f 56//56 57//57 58//58
f 21//21 4//4 59//59
f 60//60 61//61 62//62
f 7//7 55//55 63//63
f 64//64 65//65 66//66
f 67//67 68//68 69//69
f 29//29 31//31 70//70
f 71//71 72//72 73//73
f 74//74 75//75 76//76
f 20//20 15//15 77//77
f 78//78 79//79 80//80
f 81//81 82//82 83//83
f 84//84 85//85 86//86
f 87//87 88//88 89//89
f 90//90 91//91 92//92
f 70//70 31//31 93//93
f 19//19 5//5 94//94
f 95//95 96//96 97//97
f 98//98 99//99 100//100
f 101//101 102//102 103//103
f 104//104 105//105 106//106
f 107//107 108//108 109//109
f 110//110 111//111 112//112
f 113//113 114//114 115//115
f 116//116 117//117 118//118
f 119//119 120//120 121//121
f 122//122 123//123 124//124
f 125//125 126//126 127//127
f 128//128 129//129 130//130
f 131//131 132//132 133//133
f 134//134 135//135 136//136
f 137//137 138//138 139//139
f 140//140 141//141 142//142
f 143//143 144//144 145//145
f 146//146 147//147 148//148
f 45//45 6//6 149//149
f 150//150 151//151 152//152
f 153//153 154//154 155//155
f 156//156 157//157 158//158
f 159//159 160//160 161//161
f 162//162 163//163 164//164
f 165//165 166//166 167//167
f 168//168 169//169 170//170
f 171//171 172//172 173//173
f 174//174 175//175 176//176
f 177//177 178//178 179//179
f 180//180 181//181 182//182
f 183//183 184//184 185//185
f 186//186 187//187 188//188
f 189//189 190//190 191//191
f 192//192 193//193 194//194
f 195//195 196//196 197//197
f 198//198 199//199 200//200
f 201//201 202//202 203//203
f 204//204 205//205 206//206
f 19//19 94//94 207//207
f 208//208 209//209 210//210
f 22//22 7//7 211//211
f 212//212 213//213 214//214
f 215//215 216//216 217//217
f 218//218 219//219 220//220
f 221//221 222//222 223//223
f 224//224 225//225 226//226
f 227//227 228//228 229//229
f 230//230 231//231 232//232
f 233//233 234//234 235//235
f 236//236 237//237 238//238
f 239//239 240//240 241//241
f 242//242 243//243 244//244
f 245//245 246//246 247//247
f 248//248 249//249 250//250
f 251//251 252//252 253//253
f 254//254 255//255 256//256
f 257//257 258//258 259//259
f 260//260 261//261 262//262
f 263//263 264//264 265//265
f 266//266 267//267 268//268
f 269//269 270//270 271//271
f 272//272 273//273 274//274
f 275//275 276//276 277//277
f 278//278 279//279 280//280
f 281//281 282//282 283//283
f 284//284 285//285 286//286
f 287//287 288//288 289//289
f 290//290 291//291 292//292
f 293//293 294//294 295//295
f 296//296 297//297 298//298
f 299//299 300//300 301//301
f 29//29 70//70 302//302
f 303//303 304//304 305//305
f 306//306 307//307 308//308
f 309//309 310//310 311//311
f 312//312 313//313 314//314
f 315//315 316//316 317//317
f 318//318 319//319 320//320
f 321//321 322//322 323//323
f 324//324 325//325 326//326
f 327//327 328//328 329//329
f 330//330 331//331 332//332
f 333//333 334//334 335//335
f 336//336 337//337 338//338
