<?xml version="1.0" encoding="utf-8" standalone="no"?>
<!DOCTYPE svg PUBLIC "-//W3C//DTD SVG 1.1//EN"
  "http://www.w3.org/Graphics/SVG/1.1/DTD/svg11.dtd">
<svg xmlns:xlink="http://www.w3.org/1999/xlink" width="460.8pt" height="345.6pt" viewBox="0 0 460.8 345.6" xmlns="http://www.w3.org/2000/svg" version="1.1">
 <metadata>
  <rdf:RDF xmlns:dc="http://purl.org/dc/elements/1.1/" xmlns:cc="http://creativecommons.org/ns#" xmlns:rdf="http://www.w3.org/1999/02/22-rdf-syntax-ns#">
   <cc:Work>
    <dc:type rdf:resource="http://purl.org/dc/dcmitype/StillImage"/>
    <dc:date>2023-10-26T07:49:10.769211</dc:date>
    <dc:format>image/svg+xml</dc:format>
    <dc:creator>
     <cc:Agent>
      <dc:title>Matplotlib v3.7.0, https://matplotlib.org/</dc:title>
     </cc:Agent>
    </dc:creator>
   </cc:Work>
  </rdf:RDF>
 </metadata>
 <defs>
  <style type="text/css">*{stroke-linejoin: round; stroke-linecap: butt}</style>
 </defs>
 <g id="figure_1">
  <g id="patch_1">
   <path d="M 0 345.6 
L 460.8 345.6 
L 460.8 0 
L 0 0 
L 0 345.6 
z
" style="fill: none"/>
  </g>
  <g id="axes_1">
   <g id="patch_2">
    <path d="M 57.6 307.584 
L 414.72 307.584 
L 414.72 41.472 
L 57.6 41.472 
L 57.6 307.584 
z
" style="fill: none"/>
   </g>
   <g id="matplotlib.axis_1">
    <g id="xtick_1">
     <g id="line2d_1">
      <defs>
       <path id="m48738b27d7" d="M 0 0 
L 0 3.5 
" style="stroke: #000000; stroke-width: 0.8"/>
      </defs>
      <g>
       <use xlink:href="#m48738b27d7" x="73.832727" y="307.584" style="stroke: #000000; stroke-width: 0.8"/>
      </g>
     </g>
     <g id="text_1">
      <!-- 0 -->
      <g transform="translate(70.651477 322.182437) scale(0.1 -0.1)">
       <defs>
        <path id="DejaVuSans-30" d="M 2034 4250 
Q 1547 4250 1301 3770 
Q 1056 3291 1056 2328 
Q 1056 1369 1301 889 
Q 1547 409 2034 409 
Q 2525 409 2770 889 
Q 3016 1369 3016 2328 
Q 3016 3291 2770 3770 
Q 2525 4250 2034 4250 
z
M 2034 4750 
Q 2819 4750 3233 4129 
Q 3647 3509 3647 2328 
Q 3647 1150 3233 529 
Q 2819 -91 2034 -91 
Q 1250 -91 836 529 
Q 422 1150 422 2328 
Q 422 3509 836 4129 
Q 1250 4750 2034 4750 
z
" transform="scale(0.015625)"/>
       </defs>
       <use xlink:href="#DejaVuSans-30"/>
      </g>
     </g>
    </g>
    <g id="xtick_2">
     <g id="line2d_2">
      <g>
       <use xlink:href="#m48738b27d7" x="138.763636" y="307.584" style="stroke: #000000; stroke-width: 0.8"/>
      </g>
     </g>
     <g id="text_2">
      <!-- 2 -->
      <g transform="translate(135.582386 322.182437) scale(0.1 -0.1)">
       <defs>
        <path id="DejaVuSans-32" d="M 1228 531 
L 3431 531 
L 3431 0 
L 469 0 
L 469 531 
Q 828 903 1448 1529 
Q 2069 2156 2228 2338 
Q 2531 2678 2651 2914 
Q 2772 3150 2772 3378 
Q 2772 3750 2511 3984 
Q 2250 4219 1831 4219 
Q 1534 4219 1204 4116 
Q 875 4013 500 3803 
L 500 4441 
Q 881 4594 1212 4672 
Q 1544 4750 1819 4750 
Q 2544 4750 2975 4387 
Q 3406 4025 3406 3419 
Q 3406 3131 3298 2873 
Q 3191 2616 2906 2266 
Q 2828 2175 2409 1742 
Q 1991 1309 1228 531 
z
" transform="scale(0.015625)"/>
       </defs>
       <use xlink:href="#DejaVuSans-32"/>
      </g>
     </g>
    </g>
    <g id="xtick_3">
     <g id="line2d_3">
      <g>
       <use xlink:href="#m48738b27d7" x="203.694545" y="307.584" style="stroke: #000000; stroke-width: 0.8"/>
      </g>
     </g>
     <g id="text_3">
      <!-- 4 -->
      <g transform="translate(200.513295 322.182437) scale(0.1 -0.1)">
       <defs>
        <path id="DejaVuSans-34" d="M 2419 4116 
L 825 1625 
L 2419 1625 
L 2419 4116 
z
M 2253 4666 
L 3047 4666 
L 3047 1625 
L 3713 1625 
L 3713 1100 
L 3047 1100 
L 3047 0 
L 2419 0 
L 2419 1100 
L 313 1100 
L 313 1709 
L 2253 4666 
z
" transform="scale(0.015625)"/>
       </defs>
       <use xlink:href="#DejaVuSans-34"/>
      </g>
     </g>
    </g>
    <g id="xtick_4">
     <g id="line2d_4">
      <g>
       <use xlink:href="#m48738b27d7" x="268.625455" y="307.584" style="stroke: #000000; stroke-width: 0.8"/>
      </g>
     </g>
     <g id="text_4">
      <!-- 6 -->
      <g transform="translate(265.444205 322.182437) scale(0.1 -0.1)">
       <defs>
        <path id="DejaVuSans-36" d="M 2113 2584 
Q 1688 2584 1439 2293 
Q 1191 2003 1191 1497 
Q 1191 994 1439 701 
Q 1688 409 2113 409 
Q 2538 409 2786 701 
Q 3034 994 3034 1497 
Q 3034 2003 2786 2293 
Q 2538 2584 2113 2584 
z
M 3366 4563 
L 3366 3988 
Q 3128 4100 2886 4159 
Q 2644 4219 2406 4219 
Q 1781 4219 1451 3797 
Q 1122 3375 1075 2522 
Q 1259 2794 1537 2939 
Q 1816 3084 2150 3084 
Q 2853 3084 3261 2657 
Q 3669 2231 3669 1497 
Q 3669 778 3244 343 
Q 2819 -91 2113 -91 
Q 1303 -91 875 529 
Q 447 1150 447 2328 
Q 447 3434 972 4092 
Q 1497 4750 2381 4750 
Q 2619 4750 2861 4703 
Q 3103 4656 3366 4563 
z
" transform="scale(0.015625)"/>
       </defs>
       <use xlink:href="#DejaVuSans-36"/>
      </g>
     </g>
    </g>
    <g id="xtick_5">
     <g id="line2d_5">
      <g>
       <use xlink:href="#m48738b27d7" x="333.556364" y="307.584" style="stroke: #000000; stroke-width: 0.8"/>
      </g>
     </g>
     <g id="text_5">
      <!-- 8 -->
      <g transform="translate(330.375114 322.182437) scale(0.1 -0.1)">
       <defs>
        <path id="DejaVuSans-38" d="M 2034 2216 
Q 1584 2216 1326 1975 
Q 1069 1734 1069 1313 
Q 1069 891 1326 650 
Q 1584 409 2034 409 
Q 2484 409 2743 651 
Q 3003 894 3003 1313 
Q 3003 1734 2745 1975 
Q 2488 2216 2034 2216 
z
M 1403 2484 
Q 997 2584 770 2862 
Q 544 3141 544 3541 
Q 544 4100 942 4425 
Q 1341 4750 2034 4750 
Q 2731 4750 3128 4425 
Q 3525 4100 3525 3541 
Q 3525 3141 3298 2862 
Q 3072 2584 2669 2484 
Q 3125 2378 3379 2068 
Q 3634 1759 3634 1313 
Q 3634 634 3220 271 
Q 2806 -91 2034 -91 
Q 1263 -91 848 271 
Q 434 634 434 1313 
Q 434 1759 690 2068 
Q 947 2378 1403 2484 
z
M 1172 3481 
Q 1172 3119 1398 2916 
Q 1625 2713 2034 2713 
Q 2441 2713 2670 2916 
Q 2900 3119 2900 3481 
Q 2900 3844 2670 4047 
Q 2441 4250 2034 4250 
Q 1625 4250 1398 4047 
Q 1172 3844 1172 3481 
z
" transform="scale(0.015625)"/>
       </defs>
       <use xlink:href="#DejaVuSans-38"/>
      </g>
     </g>
    </g>
    <g id="xtick_6">
     <g id="line2d_6">
      <g>
       <use xlink:href="#m48738b27d7" x="398.487273" y="307.584" style="stroke: #000000; stroke-width: 0.8"/>
      </g>
     </g>
     <g id="text_6">
      <!-- 10 -->
      <g transform="translate(392.124773 322.182437) scale(0.1 -0.1)">
       <defs>
        <path id="DejaVuSans-31" d="M 794 531 
L 1825 531 
L 1825 4091 
L 703 3866 
L 703 4441 
L 1819 4666 
L 2450 4666 
L 2450 531 
L 3481 531 
L 3481 0 
L 794 0 
L 794 531 
z
" transform="scale(0.015625)"/>
       </defs>
       <use xlink:href="#DejaVuSans-31"/>
       <use xlink:href="#DejaVuSans-30" x="63.623047"/>
      </g>
     </g>
    </g>
    <g id="text_7">
     <!-- t (seconds) -->
     <g transform="translate(208.271719 335.860562) scale(0.1 -0.1)">
      <defs>
       <path id="DejaVuSans-74" d="M 1172 4494 
L 1172 3500 
L 2356 3500 
L 2356 3053 
L 1172 3053 
L 1172 1153 
Q 1172 725 1289 603 
Q 1406 481 1766 481 
L 2356 481 
L 2356 0 
L 1766 0 
Q 1100 0 847 248 
Q 594 497 594 1153 
L 594 3053 
L 172 3053 
L 172 3500 
L 594 3500 
L 594 4494 
L 1172 4494 
z
" transform="scale(0.015625)"/>
       <path id="DejaVuSans-20" transform="scale(0.015625)"/>
       <path id="DejaVuSans-28" d="M 1984 4856 
Q 1566 4138 1362 3434 
Q 1159 2731 1159 2009 
Q 1159 1288 1364 580 
Q 1569 -128 1984 -844 
L 1484 -844 
Q 1016 -109 783 600 
Q 550 1309 550 2009 
Q 550 2706 781 3412 
Q 1013 4119 1484 4856 
L 1984 4856 
z
" transform="scale(0.015625)"/>
       <path id="DejaVuSans-73" d="M 2834 3397 
L 2834 2853 
Q 2591 2978 2328 3040 
Q 2066 3103 1784 3103 
Q 1356 3103 1142 2972 
Q 928 2841 928 2578 
Q 928 2378 1081 2264 
Q 1234 2150 1697 2047 
L 1894 2003 
Q 2506 1872 2764 1633 
Q 3022 1394 3022 966 
Q 3022 478 2636 193 
Q 2250 -91 1575 -91 
Q 1294 -91 989 -36 
Q 684 19 347 128 
L 347 722 
Q 666 556 975 473 
Q 1284 391 1588 391 
Q 1994 391 2212 530 
Q 2431 669 2431 922 
Q 2431 1156 2273 1281 
Q 2116 1406 1581 1522 
L 1381 1569 
Q 847 1681 609 1914 
Q 372 2147 372 2553 
Q 372 3047 722 3315 
Q 1072 3584 1716 3584 
Q 2034 3584 2315 3537 
Q 2597 3491 2834 3397 
z
" transform="scale(0.015625)"/>
       <path id="DejaVuSans-65" d="M 3597 1894 
L 3597 1613 
L 953 1613 
Q 991 1019 1311 708 
Q 1631 397 2203 397 
Q 2534 397 2845 478 
Q 3156 559 3463 722 
L 3463 178 
Q 3153 47 2828 -22 
Q 2503 -91 2169 -91 
Q 1331 -91 842 396 
Q 353 884 353 1716 
Q 353 2575 817 3079 
Q 1281 3584 2069 3584 
Q 2775 3584 3186 3129 
Q 3597 2675 3597 1894 
z
M 3022 2063 
Q 3016 2534 2758 2815 
Q 2500 3097 2075 3097 
Q 1594 3097 1305 2825 
Q 1016 2553 972 2059 
L 3022 2063 
z
" transform="scale(0.015625)"/>
       <path id="DejaVuSans-63" d="M 3122 3366 
L 3122 2828 
Q 2878 2963 2633 3030 
Q 2388 3097 2138 3097 
Q 1578 3097 1268 2742 
Q 959 2388 959 1747 
Q 959 1106 1268 751 
Q 1578 397 2138 397 
Q 2388 397 2633 464 
Q 2878 531 3122 666 
L 3122 134 
Q 2881 22 2623 -34 
Q 2366 -91 2075 -91 
Q 1284 -91 818 406 
Q 353 903 353 1747 
Q 353 2603 823 3093 
Q 1294 3584 2113 3584 
Q 2378 3584 2631 3529 
Q 2884 3475 3122 3366 
z
" transform="scale(0.015625)"/>
       <path id="DejaVuSans-6f" d="M 1959 3097 
Q 1497 3097 1228 2736 
Q 959 2375 959 1747 
Q 959 1119 1226 758 
Q 1494 397 1959 397 
Q 2419 397 2687 759 
Q 2956 1122 2956 1747 
Q 2956 2369 2687 2733 
Q 2419 3097 1959 3097 
z
M 1959 3584 
Q 2709 3584 3137 3096 
Q 3566 2609 3566 1747 
Q 3566 888 3137 398 
Q 2709 -91 1959 -91 
Q 1206 -91 779 398 
Q 353 888 353 1747 
Q 353 2609 779 3096 
Q 1206 3584 1959 3584 
z
" transform="scale(0.015625)"/>
       <path id="DejaVuSans-6e" d="M 3513 2113 
L 3513 0 
L 2938 0 
L 2938 2094 
Q 2938 2591 2744 2837 
Q 2550 3084 2163 3084 
Q 1697 3084 1428 2787 
Q 1159 2491 1159 1978 
L 1159 0 
L 581 0 
L 581 3500 
L 1159 3500 
L 1159 2956 
Q 1366 3272 1645 3428 
Q 1925 3584 2291 3584 
Q 2894 3584 3203 3211 
Q 3513 2838 3513 2113 
z
" transform="scale(0.015625)"/>
       <path id="DejaVuSans-64" d="M 2906 2969 
L 2906 4863 
L 3481 4863 
L 3481 0 
L 2906 0 
L 2906 525 
Q 2725 213 2448 61 
Q 2172 -91 1784 -91 
Q 1150 -91 751 415 
Q 353 922 353 1747 
Q 353 2572 751 3078 
Q 1150 3584 1784 3584 
Q 2172 3584 2448 3432 
Q 2725 3281 2906 2969 
z
M 947 1747 
Q 947 1113 1208 752 
Q 1469 391 1925 391 
Q 2381 391 2643 752 
Q 2906 1113 2906 1747 
Q 2906 2381 2643 2742 
Q 2381 3103 1925 3103 
Q 1469 3103 1208 2742 
Q 947 2381 947 1747 
z
" transform="scale(0.015625)"/>
       <path id="DejaVuSans-29" d="M 513 4856 
L 1013 4856 
Q 1481 4119 1714 3412 
Q 1947 2706 1947 2009 
Q 1947 1309 1714 600 
Q 1481 -109 1013 -844 
L 513 -844 
Q 928 -128 1133 580 
Q 1338 1288 1338 2009 
Q 1338 2731 1133 3434 
Q 928 4138 513 4856 
z
" transform="scale(0.015625)"/>
      </defs>
      <use xlink:href="#DejaVuSans-74"/>
      <use xlink:href="#DejaVuSans-20" x="39.208984"/>
      <use xlink:href="#DejaVuSans-28" x="70.996094"/>
      <use xlink:href="#DejaVuSans-73" x="110.009766"/>
      <use xlink:href="#DejaVuSans-65" x="162.109375"/>
      <use xlink:href="#DejaVuSans-63" x="223.632812"/>
      <use xlink:href="#DejaVuSans-6f" x="278.613281"/>
      <use xlink:href="#DejaVuSans-6e" x="339.794922"/>
      <use xlink:href="#DejaVuSans-64" x="403.173828"/>
      <use xlink:href="#DejaVuSans-73" x="466.650391"/>
      <use xlink:href="#DejaVuSans-29" x="518.75"/>
     </g>
    </g>
   </g>
   <g id="matplotlib.axis_2">
    <g id="ytick_1">
     <g id="line2d_7">
      <defs>
       <path id="mdeef4eff92" d="M 0 0 
L -3.5 0 
" style="stroke: #000000; stroke-width: 0.8"/>
      </defs>
      <g>
       <use xlink:href="#mdeef4eff92" x="57.6" y="271.84828" style="stroke: #000000; stroke-width: 0.8"/>
      </g>
     </g>
     <g id="text_8">
      <!-- −10 -->
      <g transform="translate(29.495313 275.647499) scale(0.1 -0.1)">
       <defs>
        <path id="DejaVuSans-2212" d="M 678 2272 
L 4684 2272 
L 4684 1741 
L 678 1741 
L 678 2272 
z
" transform="scale(0.015625)"/>
       </defs>
       <use xlink:href="#DejaVuSans-2212"/>
       <use xlink:href="#DejaVuSans-31" x="83.789062"/>
       <use xlink:href="#DejaVuSans-30" x="147.412109"/>
      </g>
     </g>
    </g>
    <g id="ytick_2">
     <g id="line2d_8">
      <g>
       <use xlink:href="#mdeef4eff92" x="57.6" y="223.777885" style="stroke: #000000; stroke-width: 0.8"/>
      </g>
     </g>
     <g id="text_9">
      <!-- −5 -->
      <g transform="translate(35.857813 227.577104) scale(0.1 -0.1)">
       <defs>
        <path id="DejaVuSans-35" d="M 691 4666 
L 3169 4666 
L 3169 4134 
L 1269 4134 
L 1269 2991 
Q 1406 3038 1543 3061 
Q 1681 3084 1819 3084 
Q 2600 3084 3056 2656 
Q 3513 2228 3513 1497 
Q 3513 744 3044 326 
Q 2575 -91 1722 -91 
Q 1428 -91 1123 -41 
Q 819 9 494 109 
L 494 744 
Q 775 591 1075 516 
Q 1375 441 1709 441 
Q 2250 441 2565 725 
Q 2881 1009 2881 1497 
Q 2881 1984 2565 2268 
Q 2250 2553 1709 2553 
Q 1456 2553 1204 2497 
Q 953 2441 691 2322 
L 691 4666 
z
" transform="scale(0.015625)"/>
       </defs>
       <use xlink:href="#DejaVuSans-2212"/>
       <use xlink:href="#DejaVuSans-35" x="83.789062"/>
      </g>
     </g>
    </g>
    <g id="ytick_3">
     <g id="line2d_9">
      <g>
       <use xlink:href="#mdeef4eff92" x="57.6" y="175.707489" style="stroke: #000000; stroke-width: 0.8"/>
      </g>
     </g>
     <g id="text_10">
      <!-- 0 -->
      <g transform="translate(44.2375 179.506708) scale(0.1 -0.1)">
       <use xlink:href="#DejaVuSans-30"/>
      </g>
     </g>
    </g>
    <g id="ytick_4">
     <g id="line2d_10">
      <g>
       <use xlink:href="#mdeef4eff92" x="57.6" y="127.637094" style="stroke: #000000; stroke-width: 0.8"/>
      </g>
     </g>
     <g id="text_11">
      <!-- 5 -->
      <g transform="translate(44.2375 131.436313) scale(0.1 -0.1)">
       <use xlink:href="#DejaVuSans-35"/>
      </g>
     </g>
    </g>
    <g id="ytick_5">
     <g id="line2d_11">
      <g>
       <use xlink:href="#mdeef4eff92" x="57.6" y="79.566699" style="stroke: #000000; stroke-width: 0.8"/>
      </g>
     </g>
     <g id="text_12">
      <!-- 10 -->
      <g transform="translate(37.875 83.365917) scale(0.1 -0.1)">
       <use xlink:href="#DejaVuSans-31"/>
       <use xlink:href="#DejaVuSans-30" x="63.623047"/>
      </g>
     </g>
    </g>
    <g id="text_13">
     <!-- z (meters) -->
     <g transform="translate(23.415625 200.286594) rotate(-90) scale(0.1 -0.1)">
      <defs>
       <path id="DejaVuSans-7a" d="M 353 3500 
L 3084 3500 
L 3084 2975 
L 922 459 
L 3084 459 
L 3084 0 
L 275 0 
L 275 525 
L 2438 3041 
L 353 3041 
L 353 3500 
z
" transform="scale(0.015625)"/>
       <path id="DejaVuSans-6d" d="M 3328 2828 
Q 3544 3216 3844 3400 
Q 4144 3584 4550 3584 
Q 5097 3584 5394 3201 
Q 5691 2819 5691 2113 
L 5691 0 
L 5113 0 
L 5113 2094 
Q 5113 2597 4934 2840 
Q 4756 3084 4391 3084 
Q 3944 3084 3684 2787 
Q 3425 2491 3425 1978 
L 3425 0 
L 2847 0 
L 2847 2094 
Q 2847 2600 2669 2842 
Q 2491 3084 2119 3084 
Q 1678 3084 1418 2786 
Q 1159 2488 1159 1978 
L 1159 0 
L 581 0 
L 581 3500 
L 1159 3500 
L 1159 2956 
Q 1356 3278 1631 3431 
Q 1906 3584 2284 3584 
Q 2666 3584 2933 3390 
Q 3200 3197 3328 2828 
z
" transform="scale(0.015625)"/>
       <path id="DejaVuSans-72" d="M 2631 2963 
Q 2534 3019 2420 3045 
Q 2306 3072 2169 3072 
Q 1681 3072 1420 2755 
Q 1159 2438 1159 1844 
L 1159 0 
L 581 0 
L 581 3500 
L 1159 3500 
L 1159 2956 
Q 1341 3275 1631 3429 
Q 1922 3584 2338 3584 
Q 2397 3584 2469 3576 
Q 2541 3569 2628 3553 
L 2631 2963 
z
" transform="scale(0.015625)"/>
      </defs>
      <use xlink:href="#DejaVuSans-7a"/>
      <use xlink:href="#DejaVuSans-20" x="52.490234"/>
      <use xlink:href="#DejaVuSans-28" x="84.277344"/>
      <use xlink:href="#DejaVuSans-6d" x="123.291016"/>
      <use xlink:href="#DejaVuSans-65" x="220.703125"/>
      <use xlink:href="#DejaVuSans-74" x="282.226562"/>
      <use xlink:href="#DejaVuSans-65" x="321.435547"/>
      <use xlink:href="#DejaVuSans-72" x="382.958984"/>
      <use xlink:href="#DejaVuSans-73" x="424.072266"/>
      <use xlink:href="#DejaVuSans-29" x="476.171875"/>
     </g>
    </g>
   </g>
   <g id="line2d_12">
    <path d="M 73.832727 175.707489 
L 77.112066 166.012804 
L 80.391405 156.41695 
L 83.670744 147.01775 
L 86.950083 137.911025 
L 90.229421 129.18961 
L 93.50876 120.942416 
L 96.788099 113.253517 
L 100.067438 106.201297 
L 103.346777 99.857649 
L 106.626116 94.287242 
L 109.905455 89.546863 
L 113.184793 85.684837 
L 116.464132 82.740535 
L 119.743471 80.743972 
L 123.02281 79.715503 
L 126.302149 79.665611 
L 129.581488 80.594806 
L 132.860826 82.493614 
L 136.140165 85.342679 
L 139.419504 89.112956 
L 142.698843 93.766009 
L 145.978182 99.254404 
L 149.257521 105.52219 
L 152.53686 112.505471 
L 155.816198 120.133057 
L 159.095537 128.327189 
L 162.374876 137.004333 
L 165.654215 146.076031 
L 168.933554 155.449803 
L 172.212893 165.03009 
L 175.492231 174.719225 
L 178.77157 184.418436 
L 182.050909 194.028844 
L 185.330248 203.452477 
L 188.609587 212.593268 
L 191.888926 221.358032 
L 195.168264 229.657417 
L 198.447603 237.406817 
L 201.726942 244.527231 
L 205.006281 250.946071 
L 208.28562 256.597901 
L 211.564959 261.425105 
L 214.844298 265.378472 
L 218.123636 268.4177 
L 221.402975 270.511805 
L 224.682314 271.639441 
L 227.961653 271.789111 
L 231.240992 270.95929 
L 234.520331 269.158436 
L 237.799669 266.40491 
L 241.079008 262.72678 
L 244.358347 258.161544 
L 247.637686 252.75574 
L 250.917025 246.564479 
L 254.196364 239.650875 
L 257.475702 232.085409 
L 260.755041 223.945205 
L 264.03438 215.313249 
L 267.313719 206.277537 
L 270.593058 196.930182 
L 273.872397 187.366475 
L 277.151736 177.683913 
L 280.431074 167.981202 
L 283.710413 158.357256 
L 286.989752 148.910184 
L 290.269091 139.736294 
L 293.54843 130.929108 
L 296.827769 122.578409 
L 300.107107 114.769327 
L 303.386446 107.581472 
L 306.665785 101.088118 
L 309.945124 95.355461 
L 313.224463 90.441943 
L 316.503802 86.397653 
L 319.78314 83.26382 
L 323.062479 81.072393 
L 326.341818 79.84571 
L 329.621157 79.596277 
L 332.900496 80.326638 
L 336.179835 82.029346 
L 339.459174 84.687044 
L 342.738512 88.272637 
L 346.017851 92.749574 
L 349.29719 98.072214 
L 352.576529 104.186297 
L 355.855868 111.029493 
L 359.135207 118.532041 
L 362.414545 126.617456 
L 365.693884 135.203313 
L 368.973223 144.202084 
L 372.252562 153.522033 
L 375.531901 163.068149 
L 378.81124 172.743115 
L 382.090579 182.448301 
L 385.369917 192.084769 
L 388.649256 201.55428 
L 391.928595 210.7603 
L 395.207934 219.608979 
L 398.487273 228.010109 
" clip-path="url(#p28671c524b)" style="fill: none; stroke: #1f77b4; stroke-width: 1.5; stroke-linecap: square"/>
   </g>
   <g id="line2d_13">
    <path d="M 73.832727 167.054818 
L 75.37141 167.133481 
L 79.837475 167.462498 
L 81.206877 167.324004 
L 82.478138 166.998833 
L 83.700328 166.468208 
L 84.922517 165.691853 
L 86.144707 164.643554 
L 87.366897 163.302655 
L 88.589087 161.654207 
L 89.811276 159.689022 
L 91.440863 156.570934 
L 93.070449 152.891622 
L 94.700035 148.675403 
L 96.737018 142.712574 
L 98.948257 135.489947 
L 101.633387 125.923932 
L 111.893123 88.262623 
L 114.018071 81.649713 
L 116.096048 75.974585 
L 117.75843 72.085176 
L 119.420812 68.831322 
L 120.667598 66.832335 
L 121.914385 65.225422 
L 123.161171 64.018538 
L 124.407958 63.215619 
L 125.239149 62.904924 
L 126.07034 62.772909 
L 126.901531 62.817908 
L 127.732722 63.037557 
L 128.563913 63.428828 
L 129.810699 64.329357 
L 131.057485 65.592847 
L 132.304272 67.201791 
L 133.551058 69.136319 
L 135.21344 72.184098 
L 137.05038 76.111817 
L 139.061877 80.994032 
L 141.394124 87.274318 
L 144.44308 96.216029 
L 148.965162 110.298 
L 155.741421 131.417036 
L 159.71877 143.148257 
L 163.696118 154.227356 
L 168.073978 165.775903 
L 184.286603 207.691028 
L 189.546237 222.396514 
L 202.796755 259.994498 
L 205.894282 267.926217 
L 208.791981 274.695977 
L 211.048571 279.435787 
L 213.120453 283.319108 
L 215.192335 286.711647 
L 216.746246 288.913398 
L 218.300157 290.808568 
L 219.854068 292.388321 
L 221.40798 293.646401 
L 222.961891 294.579117 
L 224.515802 295.185287 
L 226.069714 295.466136 
L 227.623625 295.425156 
L 229.177536 295.067937 
L 230.731447 294.401965 
L 232.285359 293.436404 
L 233.83927 292.181856 
L 235.393181 290.650118 
L 236.947093 288.853929 
L 239.018974 286.070921 
L 241.090856 282.874676 
L 243.381466 278.900298 
L 245.890805 274.066286 
L 248.400143 268.784619 
L 251.536816 261.631739 
L 255.324407 252.29772 
L 259.111997 242.325629 
L 263.657106 229.665095 
L 268.831013 214.505466 
L 275.234037 194.914005 
L 294.256226 135.807059 
L 298.58346 123.506588 
L 301.901456 114.734719 
L 305.078246 106.999644 
L 307.619679 101.349082 
L 309.9698 96.594416 
L 312.256151 92.435902 
L 314.542502 88.765697 
L 316.828853 85.606917 
L 318.543616 83.584862 
L 320.258379 81.867291 
L 321.973142 80.458971 
L 323.687905 79.363246 
L 325.402669 78.582072 
L 327.117432 78.116069 
L 328.832195 77.964584 
L 330.546958 78.125768 
L 332.261721 78.596658 
L 333.976484 79.373263 
L 335.691247 80.450662 
L 337.406011 81.823093 
L 339.120774 83.484042 
L 340.835537 85.426334 
L 342.5503 87.642214 
L 344.836651 91.007956 
L 347.123002 94.824561 
L 349.409353 99.070093 
L 351.695703 103.721635 
L 354.553642 110.070721 
L 357.411581 116.968849 
L 360.740677 125.629872 
L 364.187564 135.222955 
L 368.323827 147.441005 
L 373.359167 163.113195 
L 380.463358 186.089128 
L 390.076509 217.098234 
L 394.762776 231.45087 
L 398.487273 242.212351 
L 398.487273 242.212351 
" clip-path="url(#p28671c524b)" style="fill: none; stroke: #ff7f0e; stroke-width: 1.5; stroke-linecap: square"/>
   </g>
   <g id="line2d_14">
    <path d="M 73.832727 167.054818 
L 76.313242 166.957808 
L 77.666343 166.737548 
L 79.019443 166.323868 
L 80.275978 165.721347 
L 81.484231 164.909234 
L 82.692484 163.841514 
L 83.900736 162.496228 
L 85.108989 160.85665 
L 86.317242 158.911389 
L 87.928245 155.832524 
L 89.539249 152.200378 
L 91.150252 148.031389 
L 93.164007 142.114785 
L 95.25853 135.223777 
L 97.67613 126.514121 
L 101.300647 112.487135 
L 107.353753 88.944944 
L 110.105541 79.256711 
L 112.199664 72.661893 
L 113.874963 67.979208 
L 115.550261 63.890466 
L 117.22556 60.444553 
L 118.482034 58.304307 
L 119.738508 56.556941 
L 120.994981 55.208997 
L 122.251455 54.263024 
L 123.089105 53.855195 
L 123.926754 53.624194 
L 124.764403 53.568 
L 125.602052 53.683916 
L 126.439702 53.968606 
L 127.696176 54.703309 
L 128.95265 55.793109 
L 130.209124 57.219831 
L 131.465597 58.963118 
L 133.140896 61.74138 
L 135.079671 65.53537 
L 137.106271 70.069184 
L 139.552848 76.164526 
L 142.611068 84.472479 
L 147.506814 98.591174 
L 154.463226 118.620945 
L 159.060762 131.157978 
L 164.1351 144.289047 
L 177.351251 177.912433 
L 181.940909 190.4823 
L 186.530568 203.737511 
L 193.438215 224.514792 
L 199.127484 241.419033 
L 202.981189 252.14059 
L 205.902751 259.606117 
L 208.181259 264.921159 
L 210.283547 269.36888 
L 212.385834 273.333085 
L 214.488122 276.77685 
L 216.064837 279.000396 
L 217.641553 280.905565 
L 219.218268 282.485849 
L 220.794984 283.737366 
L 222.371699 284.658788 
L 223.948415 285.251217 
L 225.52513 285.518031 
L 227.101846 285.464698 
L 228.678561 285.098557 
L 230.255277 284.428581 
L 231.831992 283.465133 
L 233.408708 282.219701 
L 234.985423 280.704641 
L 236.562139 278.932925 
L 238.664426 276.19447 
L 240.766713 273.055363 
L 243.19757 268.967375 
L 245.737949 264.218204 
L 248.278329 259.030136 
L 251.453803 251.995142 
L 254.886117 243.784266 
L 258.703688 234.003801 
L 262.52126 223.62547 
L 267.102345 210.487174 
L 271.683431 196.720732 
L 277.255958 179.339371 
L 292.499655 131.259196 
L 296.922875 118.269379 
L 300.308847 108.972356 
L 303.482855 100.899439 
L 306.022061 94.960203 
L 308.496197 89.667259 
L 310.775119 85.258215 
L 313.054042 81.324369 
L 315.332965 77.888804 
L 317.042158 75.650596 
L 318.75135 73.709656 
L 320.460542 72.070936 
L 322.169734 70.738049 
L 323.878926 69.713304 
L 325.588118 68.99776 
L 327.297311 68.591298 
L 329.006503 68.492684 
L 330.715695 68.699659 
L 332.424887 69.209016 
L 334.134079 70.01669 
L 335.843272 71.117835 
L 337.552464 72.506914 
L 339.261656 74.177765 
L 340.970848 76.123683 
L 343.249771 79.13362 
L 345.528694 82.601494 
L 347.807617 86.50789 
L 350.08654 90.832345 
L 352.935194 96.793068 
L 355.783847 103.329549 
L 358.747371 110.690951 
L 362.170374 119.835123 
L 365.593377 129.581133 
L 369.989701 142.827202 
L 375.30281 159.637733 
L 392.946939 216.413673 
L 397.306401 229.318745 
L 398.487273 232.659895 
L 398.487273 232.659895 
" clip-path="url(#p28671c524b)" style="fill: none; stroke: #2ca02c; stroke-width: 1.5; stroke-linecap: square"/>
   </g>
   <g id="patch_3">
    <path d="M 57.6 307.584 
L 57.6 41.472 
" style="fill: none; stroke: #000000; stroke-width: 0.8; stroke-linejoin: miter; stroke-linecap: square"/>
   </g>
   <g id="patch_4">
    <path d="M 414.72 307.584 
L 414.72 41.472 
" style="fill: none; stroke: #000000; stroke-width: 0.8; stroke-linejoin: miter; stroke-linecap: square"/>
   </g>
   <g id="patch_5">
    <path d="M 57.6 307.584 
L 414.72 307.584 
" style="fill: none; stroke: #000000; stroke-width: 0.8; stroke-linejoin: miter; stroke-linecap: square"/>
   </g>
   <g id="patch_6">
    <path d="M 57.6 41.472 
L 414.72 41.472 
" style="fill: none; stroke: #000000; stroke-width: 0.8; stroke-linejoin: miter; stroke-linecap: square"/>
   </g>
   <g id="legend_1">
    <g id="patch_7">
     <path d="M 64.6 302.584 
L 138.457812 302.584 
Q 140.457812 302.584 140.457812 300.584 
L 140.457812 257.549625 
Q 140.457812 255.549625 138.457812 255.549625 
L 64.6 255.549625 
Q 62.6 255.549625 62.6 257.549625 
L 62.6 300.584 
Q 62.6 302.584 64.6 302.584 
z
" style="fill: #ffffff; opacity: 0.8; stroke: #cccccc; stroke-linejoin: miter"/>
    </g>
    <g id="line2d_15">
     <path d="M 66.6 263.648062 
L 76.6 263.648062 
L 86.6 263.648062 
" style="fill: none; stroke: #1f77b4; stroke-width: 1.5; stroke-linecap: square"/>
    </g>
    <g id="text_14">
     <!-- desired -->
     <g transform="translate(94.6 267.148062) scale(0.1 -0.1)">
      <defs>
       <path id="DejaVuSans-69" d="M 603 3500 
L 1178 3500 
L 1178 0 
L 603 0 
L 603 3500 
z
M 603 4863 
L 1178 4863 
L 1178 4134 
L 603 4134 
L 603 4863 
z
" transform="scale(0.015625)"/>
      </defs>
      <use xlink:href="#DejaVuSans-64"/>
      <use xlink:href="#DejaVuSans-65" x="63.476562"/>
      <use xlink:href="#DejaVuSans-73" x="125"/>
      <use xlink:href="#DejaVuSans-69" x="177.099609"/>
      <use xlink:href="#DejaVuSans-72" x="204.882812"/>
      <use xlink:href="#DejaVuSans-65" x="243.746094"/>
      <use xlink:href="#DejaVuSans-64" x="305.269531"/>
     </g>
    </g>
    <g id="line2d_16">
     <path d="M 66.6 278.326188 
L 76.6 278.326188 
L 86.6 278.326188 
" style="fill: none; stroke: #ff7f0e; stroke-width: 1.5; stroke-linecap: square"/>
    </g>
    <g id="text_15">
     <!-- pd -->
     <g transform="translate(94.6 281.826188) scale(0.1 -0.1)">
      <defs>
       <path id="DejaVuSans-70" d="M 1159 525 
L 1159 -1331 
L 581 -1331 
L 581 3500 
L 1159 3500 
L 1159 2969 
Q 1341 3281 1617 3432 
Q 1894 3584 2278 3584 
Q 2916 3584 3314 3078 
Q 3713 2572 3713 1747 
Q 3713 922 3314 415 
Q 2916 -91 2278 -91 
Q 1894 -91 1617 61 
Q 1341 213 1159 525 
z
M 3116 1747 
Q 3116 2381 2855 2742 
Q 2594 3103 2138 3103 
Q 1681 3103 1420 2742 
Q 1159 2381 1159 1747 
Q 1159 1113 1420 752 
Q 1681 391 2138 391 
Q 2594 391 2855 752 
Q 3116 1113 3116 1747 
z
" transform="scale(0.015625)"/>
      </defs>
      <use xlink:href="#DejaVuSans-70"/>
      <use xlink:href="#DejaVuSans-64" x="63.476562"/>
     </g>
    </g>
    <g id="line2d_17">
     <path d="M 66.6 293.004312 
L 76.6 293.004312 
L 86.6 293.004312 
" style="fill: none; stroke: #2ca02c; stroke-width: 1.5; stroke-linecap: square"/>
    </g>
    <g id="text_16">
     <!-- stiffness -->
     <g transform="translate(94.6 296.504312) scale(0.1 -0.1)">
      <defs>
       <path id="DejaVuSans-66" d="M 2375 4863 
L 2375 4384 
L 1825 4384 
Q 1516 4384 1395 4259 
Q 1275 4134 1275 3809 
L 1275 3500 
L 2222 3500 
L 2222 3053 
L 1275 3053 
L 1275 0 
L 697 0 
L 697 3053 
L 147 3053 
L 147 3500 
L 697 3500 
L 697 3744 
Q 697 4328 969 4595 
Q 1241 4863 1831 4863 
L 2375 4863 
z
" transform="scale(0.015625)"/>
      </defs>
      <use xlink:href="#DejaVuSans-73"/>
      <use xlink:href="#DejaVuSans-74" x="52.099609"/>
      <use xlink:href="#DejaVuSans-69" x="91.308594"/>
      <use xlink:href="#DejaVuSans-66" x="119.091797"/>
      <use xlink:href="#DejaVuSans-66" x="154.296875"/>
      <use xlink:href="#DejaVuSans-6e" x="189.501953"/>
      <use xlink:href="#DejaVuSans-65" x="252.880859"/>
      <use xlink:href="#DejaVuSans-73" x="314.404297"/>
      <use xlink:href="#DejaVuSans-73" x="366.503906"/>
     </g>
    </g>
   </g>
  </g>
 </g>
 <defs>
  <clipPath id="p28671c524b">
   <rect x="57.6" y="41.472" width="357.12" height="266.112"/>
  </clipPath>
 </defs>
</svg>
