# https://github.com/mikedh/trimesh
v 7.41300000 37.27000000 25.00000000
v 7.41300000 37.27000000 0.00000000
v 33.51300000 17.91300000 25.00000000
v 35.10700000 14.54200000 25.00000000
v 35.10700000 14.54200000 0.00000000
v 33.51300000 17.91300000 0.00000000
v -31.59600000 21.11200000 25.00000000
v -31.59600000 21.11200000 0.00000000
v -33.51300000 17.91300000 0.00000000
v -33.51300000 17.91300000 25.00000000
v 3.72500000 37.81700000 0.00000000
v 3.72500000 37.81700000 25.00000000
v -29.37400000 24.10700000 25.00000000
v -29.37400000 24.10700000 0.00000000
v 0.00000000 38.00000000 0.00000000
v 11.03100000 36.36400000 25.00000000
v 11.03100000 36.36400000 0.00000000
v 14.54200000 35.10700000 25.00000000
v 14.54200000 35.10700000 0.00000000
v -37.27000000 -7.41300000 25.00000000
v 17.91300000 33.51300000 25.00000000
v -37.27000000 -7.41300000 0.00000000
v -11.03100000 -36.36400000 25.00000000
v 17.91300000 33.51300000 0.00000000
v -36.36400000 -11.03100000 0.00000000
v -14.54200000 -35.10700000 25.00000000
v -26.87000000 26.87000000 25.00000000
v -36.36400000 -11.03100000 25.00000000
v -14.54200000 -35.10700000 0.00000000
v -26.87000000 26.87000000 0.00000000
v -3.72500000 37.81700000 0.00000000
v -11.03100000 -36.36400000 0.00000000
v 24.10700000 -29.37400000 25.00000000
v -17.91300000 -33.51300000 25.00000000
v -17.91300000 -33.51300000 0.00000000
v 21.11200000 -31.59600000 25.00000000
v 21.11200000 -31.59600000 0.00000000
v 24.10700000 -29.37400000 0.00000000
v -3.72500000 37.81700000 25.00000000
v 0.00000000 38.00000000 25.00000000
v 17.91300000 -33.51300000 25.00000000
v 17.91300000 -33.51300000 0.00000000
v 37.81700000 -3.72500000 25.00000000
v -37.81700000 -3.72500000 25.00000000
v -37.81700000 -3.72500000 0.00000000
v 37.81700000 -3.72500000 0.00000000
v 38.00000000 0.00000000 0.00000000
v -21.11200000 -31.59600000 25.00000000
v 38.00000000 0.00000000 25.00000000
v 14.54200000 -35.10700000 25.00000000
v -21.11200000 -31.59600000 0.00000000
v 36.36400000 11.03100000 25.00000000
v 14.54200000 -35.10700000 0.00000000
v 36.36400000 11.03100000 0.00000000
v 37.27000000 -7.41300000 25.00000000
v 37.27000000 -7.41300000 0.00000000
v -24.10700000 29.37400000 25.00000000
v 21.11200000 31.59600000 25.00000000
v -24.10700000 29.37400000 0.00000000
v 36.36400000 -11.03100000 25.00000000
v 21.11200000 31.59600000 0.00000000
v 36.36400000 -11.03100000 0.00000000
v -38.00000000 0.00000000 25.00000000
v 11.03100000 -36.36400000 25.00000000
v 11.03100000 -36.36400000 0.00000000
v -21.11200000 31.59600000 25.00000000
v -21.11200000 31.59600000 0.00000000
v 7.41300000 -37.27000000 25.00000000
v 7.41300000 -37.27000000 0.00000000
v -17.91300000 33.51300000 25.00000000
v -17.91300000 33.51300000 0.00000000
v 24.10700000 29.37400000 0.00000000
v -38.00000000 0.00000000 0.00000000
v 26.87000000 26.87000000 0.00000000
v 35.10700000 -14.54200000 25.00000000
v 29.37400000 24.10700000 0.00000000
v 35.10700000 -14.54200000 0.00000000
v 31.59600000 21.11200000 0.00000000
v 3.72500000 -37.81700000 25.00000000
v 37.27000000 7.41300000 25.00000000
v 3.72500000 -37.81700000 0.00000000
v 24.10700000 29.37400000 25.00000000
v -24.10700000 -29.37400000 25.00000000
v -14.54200000 35.10700000 25.00000000
v -24.10700000 -29.37400000 0.00000000
v -14.54200000 35.10700000 0.00000000
v 37.27000000 7.41300000 0.00000000
v 33.51300000 -17.91300000 25.00000000
v 37.81700000 3.72500000 0.00000000
v 33.51300000 -17.91300000 0.00000000
v -11.03100000 36.36400000 25.00000000
v -11.03100000 36.36400000 0.00000000
v -7.41300000 37.27000000 25.00000000
v 26.87000000 26.87000000 25.00000000
v -7.41300000 37.27000000 0.00000000
v -26.87000000 -26.87000000 25.00000000
v -26.87000000 -26.87000000 0.00000000
v 37.81700000 3.72500000 25.00000000
v 0.00000000 -38.00000000 25.00000000
v 31.59600000 -21.11200000 25.00000000
v 0.00000000 -38.00000000 0.00000000
v 31.59600000 -21.11200000 0.00000000
v 29.37400000 24.10700000 25.00000000
v -29.37400000 -24.10700000 25.00000000
v -29.37400000 -24.10700000 0.00000000
v 29.37400000 -24.10700000 25.00000000
v 31.59600000 21.11200000 25.00000000
v 29.37400000 -24.10700000 0.00000000
v -3.72500000 -37.81700000 25.00000000
v -31.59600000 -21.11200000 25.00000000
v -3.72500000 -37.81700000 0.00000000
v -31.59600000 -21.11200000 0.00000000
v -37.81700000 3.72500000 25.00000000
v -37.81700000 3.72500000 0.00000000
v 26.87000000 -26.87000000 25.00000000
v 26.87000000 -26.87000000 0.00000000
v -37.27000000 7.41300000 0.00000000
v -37.27000000 7.41300000 25.00000000
v -7.41300000 -37.27000000 25.00000000
v -33.51300000 -17.91300000 25.00000000
v -33.51300000 -17.91300000 0.00000000
v -7.41300000 -37.27000000 0.00000000
v -36.36400000 11.03100000 25.00000000
v -36.36400000 11.03100000 0.00000000
v -35.10700000 -14.54200000 25.00000000
v -35.10700000 -14.54200000 0.00000000
v -35.10700000 14.54200000 25.00000000
v -35.10700000 14.54200000 0.00000000
vn 0.14000900 0.70402887 0.69623332
vn 0.14000900 0.70402887 -0.69623332
vn 0.63309187 0.33832064 0.69622829
vn 0.66313945 0.27472003 0.69625784
vn 0.66313945 0.27472003 -0.69625784
vn 0.63309187 0.33832064 -0.69622829
vn -0.59685506 0.39883576 0.69619974
vn -0.59685506 0.39883576 -0.69619974
vn -0.63309187 0.33832064 -0.69622829
vn -0.63309187 0.33832064 0.69622829
vn 0.07035284 0.71436321 -0.69622962
vn 0.07035284 0.71436321 0.69622962
vn -0.55483957 0.45539884 0.69625063
vn -0.55483957 0.45539884 -0.69625063
vn -0.00000000 0.71782113 -0.69622757
vn 0.20842143 0.68692528 0.69619980
vn 0.20842143 0.68692528 -0.69619980
vn 0.27472003 0.66313945 0.69625784
vn 0.27472003 0.66313945 -0.69625784
vn -0.70402887 -0.14000900 0.69623332
vn 0.33832064 0.63309187 0.69622829
vn -0.70402887 -0.14000900 -0.69623332
vn -0.20842143 -0.68692528 0.69619980
vn 0.33832064 0.63309187 -0.69622829
vn -0.68692528 -0.20842143 -0.69619980
vn -0.27472003 -0.66313945 0.69625784
vn -0.50758314 0.50758314 0.69621743
vn -0.68692528 -0.20842143 0.69619980
vn -0.27472003 -0.66313945 -0.69625784
vn -0.50758314 0.50758314 -0.69621743
vn -0.07035284 0.71436321 -0.69622962
vn -0.20842143 -0.68692528 -0.69619980
vn 0.45539884 -0.55483957 0.69625063
vn -0.33832064 -0.63309187 0.69622829
vn -0.33832064 -0.63309187 -0.69622829
vn 0.39883576 -0.59685506 0.69619974
vn 0.39883576 -0.59685506 -0.69619974
vn 0.45539884 -0.55483957 -0.69625063
vn -0.07035284 0.71436321 0.69622962
vn 0.00000000 0.71782113 0.69622757
vn 0.33832064 -0.63309187 0.69622829
vn 0.33832064 -0.63309187 -0.69622829
vn 0.71436321 -0.07035284 0.69622962
vn -0.71436321 -0.07035284 0.69622962
vn -0.71436321 -0.07035284 -0.69622962
vn 0.71436321 -0.07035284 -0.69622962
vn 0.71782113 0.00000000 -0.69622757
vn -0.39883576 -0.59685506 0.69619974
vn 0.71782113 0.00000000 0.69622757
vn 0.27472003 -0.66313945 0.69625784
vn -0.39883576 -0.59685506 -0.69619974
vn 0.68692528 0.20842143 0.69619980
vn 0.27472003 -0.66313945 -0.69625784
vn 0.68692528 0.20842143 -0.69619980
vn 0.70402887 -0.14000900 0.69623332
vn 0.70402887 -0.14000900 -0.69623332
vn -0.45539884 0.55483957 0.69625063
vn 0.39883576 0.59685506 0.69619974
vn -0.45539884 0.55483957 -0.69625063
vn 0.68692528 -0.20842143 0.69619980
vn 0.39883576 0.59685506 -0.69619974
vn 0.68692528 -0.20842143 -0.69619980
vn -0.71782113 0.00000000 0.69622757
vn 0.20842143 -0.68692528 0.69619980
vn 0.20842143 -0.68692528 -0.69619980
vn -0.39883576 0.59685506 0.69619974
vn -0.39883576 0.59685506 -0.69619974
vn 0.14000900 -0.70402887 0.69623332
vn 0.14000900 -0.70402887 -0.69623332
vn -0.33832064 0.63309187 0.69622829
vn -0.33832064 0.63309187 -0.69622829
vn 0.45539884 0.55483957 -0.69625063
vn -0.71782113 -0.00000000 -0.69622757
vn 0.50758314 0.50758314 -0.69621743
vn 0.66313945 -0.27472003 0.69625784
vn 0.55483957 0.45539884 -0.69625063
vn 0.66313945 -0.27472003 -0.69625784
vn 0.59685506 0.39883576 -0.69619974
vn 0.07035284 -0.71436321 0.69622962
vn 0.70402887 0.14000900 0.69623332
vn 0.07035284 -0.71436321 -0.69622962
vn 0.45539884 0.55483957 0.69625063
vn -0.45539884 -0.55483957 0.69625063
vn -0.27472003 0.66313945 0.69625784
vn -0.45539884 -0.55483957 -0.69625063
vn -0.27472003 0.66313945 -0.69625784
vn 0.70402887 0.14000900 -0.69623332
vn 0.63309187 -0.33832064 0.69622829
vn 0.71436321 0.07035284 -0.69622962
vn 0.63309187 -0.33832064 -0.69622829
vn -0.20842143 0.68692528 0.69619980
vn -0.20842143 0.68692528 -0.69619980
vn -0.14000900 0.70402887 0.69623332
vn 0.50758314 0.50758314 0.69621743
vn -0.14000900 0.70402887 -0.69623332
vn -0.50758314 -0.50758314 0.69621743
vn -0.50758314 -0.50758314 -0.69621743
vn 0.71436321 0.07035284 0.69622962
vn 0.00000000 -0.71782113 0.69622757
vn 0.59685506 -0.39883576 0.69619974
vn 0.00000000 -0.71782113 -0.69622757
vn 0.59685506 -0.39883576 -0.69619974
vn 0.55483957 0.45539884 0.69625063
vn -0.55483957 -0.45539884 0.69625063
vn -0.55483957 -0.45539884 -0.69625063
vn 0.55483957 -0.45539884 0.69625063
vn 0.59685506 0.39883576 0.69619974
vn 0.55483957 -0.45539884 -0.69625063
vn -0.07035284 -0.71436321 0.69622962
vn -0.59685506 -0.39883576 0.69619974
vn -0.07035284 -0.71436321 -0.69622962
vn -0.59685506 -0.39883576 -0.69619974
vn -0.71436321 0.07035284 0.69622962
vn -0.71436321 0.07035284 -0.69622962
vn 0.50758314 -0.50758314 0.69621743
vn 0.50758314 -0.50758314 -0.69621743
vn -0.70402887 0.14000900 -0.69623332
vn -0.70402887 0.14000900 0.69623332
vn -0.14000900 -0.70402887 0.69623332
vn -0.63309187 -0.33832064 0.69622829
vn -0.63309187 -0.33832064 -0.69622829
vn -0.14000900 -0.70402887 -0.69623332
vn -0.68692528 0.20842143 0.69619980
vn -0.68692528 0.20842143 -0.69619980
vn -0.66313945 -0.27472003 0.69625784
vn -0.66313945 -0.27472003 -0.69625784
vn -0.66313945 0.27472003 0.69625784
vn -0.66313945 0.27472003 -0.69625784
f 3//3 4//4 5//5
f 3//3 5//5 6//6
f 7//7 8//8 9//9
f 7//7 9//9 10//10
f 1//1 2//2 11//11
f 1//1 11//11 12//12
f 16//16 17//17 2//2
f 16//16 2//2 1//1
f 13//13 14//14 8//8
f 13//13 8//8 7//7
f 18//18 19//19 17//17
f 18//18 17//17 16//16
f 23//23 26//26 29//29
f 23//23 29//29 32//32
f 26//26 34//34 35//35
f 26//26 35//35 29//29
f 33//33 36//36 37//37
f 33//33 37//37 38//38
f 15//15 31//31 39//39
f 15//15 39//39 40//40
f 20//20 22//22 25//25
f 20//20 25//25 28//28
f 36//36 41//41 42//42
f 36//36 42//42 37//37
f 44//44 45//45 22//22
f 44//44 22//22 20//20
f 21//21 24//24 19//19
f 21//21 19//19 18//18
f 43//43 46//46 47//47
f 43//43 47//47 49//49
f 27//27 30//30 14//14
f 27//27 14//14 13//13
f 41//41 50//50 53//53
f 41//41 53//53 42//42
f 43//43 55//55 56//56
f 43//43 56//56 46//46
f 34//34 48//48 51//51
f 34//34 51//51 35//35
f 4//4 52//52 54//54
f 4//4 54//54 5//5
f 50//50 64//64 65//65
f 50//50 65//65 53//53
f 57//57 59//59 30//30
f 57//57 30//30 27//27
f 55//55 60//60 62//62
f 55//55 62//62 56//56
f 66//66 67//67 59//59
f 66//66 59//59 57//57
f 64//64 68//68 69//69
f 64//64 69//69 65//65
f 58//58 61//61 24//24
f 58//58 24//24 21//21
f 63//63 73//73 45//45
f 63//63 45//45 44//44
f 70//70 71//71 67//67
f 70//70 67//67 66//66
f 60//60 75//75 77//77
f 60//60 77//77 62//62
f 82//82 72//72 61//61
f 82//82 61//61 58//58
f 68//68 79//79 81//81
f 68//68 81//81 69//69
f 48//48 83//83 85//85
f 48//48 85//85 51//51
f 84//84 86//86 71//71
f 84//84 71//71 70//70
f 75//75 88//88 90//90
f 75//75 90//90 77//77
f 91//91 92//92 86//86
f 91//91 86//86 84//84
f 15//15 11//11 2//2
f 15//15 2//2 17//17
f 15//15 17//17 19//19
f 15//15 19//19 24//24
f 15//15 24//24 61//61
f 15//15 61//61 72//72
f 15//15 72//72 74//74
f 15//15 74//74 76//76
f 15//15 76//76 78//78
f 15//15 78//78 6//6
f 15//15 6//6 5//5
f 15//15 5//5 54//54
f 15//15 54//54 87//87
f 15//15 87//87 89//89
f 15//15 89//89 47//47
f 52//52 80//80 87//87
f 52//52 87//87 54//54
f 94//94 74//74 72//72
f 94//94 72//72 82//82
f 93//93 95//95 92//92
f 93//93 92//92 91//91
f 83//83 96//96 97//97
f 83//83 97//97 85//85
f 80//80 98//98 89//89
f 80//80 89//89 87//87
f 79//79 99//99 101//101
f 79//79 101//101 81//81
f 88//88 100//100 102//102
f 88//88 102//102 90//90
f 94//94 103//103 76//76
f 94//94 76//76 74//74
f 39//39 31//31 95//95
f 39//39 95//95 93//93
f 104//104 105//105 97//97
f 104//104 97//97 96//96
f 98//98 49//49 47//47
f 98//98 47//47 89//89
f 100//100 106//106 108//108
f 100//100 108//108 102//102
f 103//103 107//107 78//78
f 103//103 78//78 76//76
f 101//101 99//99 109//109
f 101//101 109//109 111//111
f 110//110 112//112 105//105
f 110//110 105//105 104//104
f 113//113 114//114 73//73
f 113//113 73//73 63//63
f 106//106 115//115 116//116
f 106//106 116//116 108//108
f 107//107 3//3 6//6
f 107//107 6//6 78//78
f 118//118 117//117 114//114
f 118//118 114//114 113//113
f 120//120 121//121 112//112
f 120//120 112//112 110//110
f 109//109 119//119 122//122
f 109//109 122//122 111//111
f 123//123 124//124 117//117
f 123//123 117//117 118//118
f 125//125 126//126 121//121
f 125//125 121//121 120//120
f 127//127 128//128 124//124
f 127//127 124//124 123//123
f 115//115 33//33 38//38
f 115//115 38//38 116//116
f 10//10 9//9 128//128
f 10//10 128//128 127//127
f 28//28 25//25 126//126
f 28//28 126//126 125//125
f 119//119 23//23 32//32
f 119//119 32//32 122//122
f 73//73 114//114 117//117
f 73//73 117//117 124//124
f 73//73 124//124 128//128
f 73//73 128//128 9//9
f 73//73 9//9 8//8
f 73//73 8//8 14//14
f 73//73 14//14 30//30
f 73//73 30//30 59//59
f 73//73 59//59 67//67
f 73//73 67//67 71//71
f 73//73 71//71 86//86
f 73//73 86//86 92//92
f 73//73 92//92 95//95
f 73//73 95//95 31//31
f 73//73 31//31 15//15
f 81//81 101//101 15//15
f 47//47 46//46 15//15
f 46//46 56//56 15//15
f 56//56 62//62 15//15
f 62//62 77//77 15//15
f 77//77 90//90 15//15
f 90//90 102//102 15//15
f 102//102 108//108 15//15
f 108//108 116//116 15//15
f 116//116 38//38 15//15
f 38//38 37//37 15//15
f 37//37 42//42 15//15
f 42//42 53//53 15//15
f 53//53 65//65 15//15
f 69//69 15//15 65//65
f 81//81 15//15 69//69
f 45//45 73//73 15//15
f 101//101 111//111 15//15
f 111//111 122//122 15//15
f 122//122 32//32 15//15
f 32//32 29//29 15//15
f 29//29 35//35 15//15
f 35//35 51//51 15//15
f 51//51 85//85 15//15
f 85//85 97//97 15//15
f 97//97 105//105 15//15
f 105//105 112//112 15//15
f 112//112 121//121 15//15
f 121//121 126//126 15//15
f 126//126 25//25 15//15
f 22//22 15//15 25//25
f 45//45 15//15 22//22
f 49//49 98//98 80//80
f 49//49 80//80 52//52
f 49//49 52//52 4//4
f 49//49 4//4 3//3
f 49//49 3//3 107//107
f 49//49 107//107 103//103
f 49//49 103//103 94//94
f 49//49 94//94 82//82
f 49//49 82//82 58//58
f 49//49 58//58 21//21
f 49//49 21//21 18//18
f 49//49 18//18 16//16
f 49//49 16//16 1//1
f 49//49 1//1 12//12
f 49//49 12//12 40//40
f 40//40 39//39 93//93
f 40//40 93//93 91//91
f 40//40 91//91 84//84
f 40//40 84//84 70//70
f 40//40 70//70 66//66
f 40//40 66//66 57//57
f 40//40 57//57 27//27
f 40//40 27//27 13//13
f 40//40 13//13 7//7
f 40//40 7//7 10//10
f 40//40 10//10 127//127
f 40//40 127//127 123//123
f 40//40 123//123 118//118
f 40//40 118//118 113//113
f 63//63 40//40 113//113
f 68//68 40//40 79//79
f 64//64 40//40 68//68
f 50//50 40//40 64//64
f 41//41 40//40 50//50
f 36//36 40//40 41//41
f 33//33 40//40 36//36
f 115//115 40//40 33//33
f 106//106 40//40 115//115
f 100//100 40//40 106//106
f 88//88 40//40 100//100
f 75//75 40//40 88//88
f 60//60 40//40 75//75
f 55//55 40//40 60//60
f 43//43 40//40 55//55
f 49//49 40//40 43//43
f 99//99 79//79 40//40
f 20//20 40//40 44//44
f 28//28 40//40 20//20
f 125//125 40//40 28//28
f 120//120 40//40 125//125
f 110//110 40//40 120//120
f 104//104 40//40 110//110
f 96//96 40//40 104//104
f 83//83 40//40 96//96
f 48//48 40//40 83//83
f 34//34 40//40 48//48
f 26//26 40//40 34//34
f 23//23 40//40 26//26
f 119//119 40//40 23//23
f 109//109 40//40 119//119
f 99//99 40//40 109//109
f 63//63 44//44 40//40
f 12//12 11//11 15//15
f 12//12 15//15 40//40

