<?xml version="1.0" encoding="UTF-8" standalone="no"?>
<svg
   width="381.48282pt"
   height="250.57718pt"
   viewBox="0 0 381.48282 250.57718"
   version="1.1"
   id="svg82"
   sodipodi:docname="gcs_simple_2d_fifth_order_min_time_velocities.svg"
   inkscape:version="1.3.2 (091e20e, 2023-11-25)"
   xmlns:inkscape="http://www.inkscape.org/namespaces/inkscape"
   xmlns:sodipodi="http://sodipodi.sourceforge.net/DTD/sodipodi-0.dtd"
   xmlns:xlink="http://www.w3.org/1999/xlink"
   xmlns="http://www.w3.org/2000/svg"
   xmlns:svg="http://www.w3.org/2000/svg"
   xmlns:rdf="http://www.w3.org/1999/02/22-rdf-syntax-ns#"
   xmlns:cc="http://creativecommons.org/ns#"
   xmlns:dc="http://purl.org/dc/elements/1.1/">
  <sodipodi:namedview
     id="namedview82"
     pagecolor="#ffffff"
     bordercolor="#000000"
     borderopacity="0.25"
     inkscape:showpageshadow="2"
     inkscape:pageopacity="0.0"
     inkscape:pagecheckerboard="0"
     inkscape:deskcolor="#d1d1d1"
     inkscape:document-units="pt"
     inkscape:zoom="0.61458333"
     inkscape:cx="277.42373"
     inkscape:cy="146.44068"
     inkscape:window-width="1312"
     inkscape:window-height="449"
     inkscape:window-x="0"
     inkscape:window-y="38"
     inkscape:window-maximized="0"
     inkscape:current-layer="svg82" />
  <metadata
     id="metadata1">
    <rdf:RDF>
      <cc:Work>
        <dc:type
           rdf:resource="http://purl.org/dc/dcmitype/StillImage" />
        <dc:date>2024-08-21T05:01:57.014179</dc:date>
        <dc:format>image/svg+xml</dc:format>
        <dc:creator>
          <cc:Agent>
            <dc:title>Matplotlib v3.9.2, https://matplotlib.org/</dc:title>
          </cc:Agent>
        </dc:creator>
      </cc:Work>
    </rdf:RDF>
  </metadata>
  <defs
     id="defs1">
    <style
       type="text/css"
       id="style1">*{stroke-linejoin: round; stroke-linecap: butt}</style>
  </defs>
  <g
     id="axes_1"
     transform="translate(-7.717187,-34.16)">
    <g
       id="patch_2">
      <path
         d="M 54,256.32 H 388.8 V 34.56 H 54 Z"
         style="fill:#ffffff"
         id="path2" />
    </g>
    <g
       id="matplotlib.axis_1">
      <g
         id="xtick_1">
        <g
           id="line2d_1">
          <path
             d="M 54,256.32 V 34.56"
             clip-path="url(#p87fbb28242)"
             style="fill:none;stroke:#b0b0b0;stroke-width:0.8;stroke-linecap:square"
             id="path3" />
        </g>
        <g
           id="line2d_2">
          <defs
             id="defs3">
            <path
               id="m62fa678d9d"
               d="M 0,0 V 3.5"
               style="stroke:#000000;stroke-width:0.8" />
          </defs>
          <g
             id="g3">
            <use
               xlink:href="#m62fa678d9d"
               x="54"
               y="256.32001"
               style="stroke:#000000;stroke-width:0.8"
               id="use3" />
          </g>
        </g>
        <g
           id="text_1">
          <!-- 0 -->
          <g
             transform="matrix(0.1,0,0,-0.1,50.81875,270.91844)"
             id="g4">
            <defs
               id="defs4">
              <path
                 id="DejaVuSans-30"
                 d="m 2034,4250 q -487,0 -733,-480 -245,-479 -245,-1442 0,-959 245,-1439 246,-480 733,-480 491,0 736,480 246,480 246,1439 0,963 -246,1442 -245,480 -736,480 z m 0,500 q 785,0 1199,-621 414,-620 414,-1801 0,-1178 -414,-1799 -414,-620 -1199,-620 -784,0 -1198,620 -414,621 -414,1799 0,1181 414,1801 414,621 1198,621 z"
                 transform="scale(0.015625)" />
            </defs>
            <use
               xlink:href="#DejaVuSans-30"
               id="use4" />
          </g>
        </g>
      </g>
      <g
         id="xtick_2">
        <g
           id="line2d_3">
          <path
             d="M 102.11311,256.32 V 34.56"
             clip-path="url(#p87fbb28242)"
             style="fill:none;stroke:#b0b0b0;stroke-width:0.8;stroke-linecap:square"
             id="path4" />
        </g>
        <g
           id="line2d_4">
          <g
             id="g5">
            <use
               xlink:href="#m62fa678d9d"
               x="102.11311"
               y="256.32001"
               style="stroke:#000000;stroke-width:0.8"
               id="use5" />
          </g>
        </g>
        <g
           id="text_2">
          <!-- 2 -->
          <g
             transform="matrix(0.1,0,0,-0.1,98.931857,270.91844)"
             id="g6">
            <defs
               id="defs5">
              <path
                 id="DejaVuSans-32"
                 d="M 1228,531 H 3431 V 0 H 469 v 531 q 359,372 979,998 621,627 780,809 303,340 423,576 121,236 121,464 0,372 -261,606 -261,235 -680,235 -297,0 -627,-103 -329,-103 -704,-313 v 638 q 381,153 712,231 332,78 607,78 725,0 1156,-363 431,-362 431,-968 0,-288 -108,-546 -107,-257 -392,-607 -78,-91 -497,-524 Q 1991,1309 1228,531 Z"
                 transform="scale(0.015625)" />
            </defs>
            <use
               xlink:href="#DejaVuSans-32"
               id="use6" />
          </g>
        </g>
      </g>
      <g
         id="xtick_3">
        <g
           id="line2d_5">
          <path
             d="M 150.22621,256.32 V 34.56"
             clip-path="url(#p87fbb28242)"
             style="fill:none;stroke:#b0b0b0;stroke-width:0.8;stroke-linecap:square"
             id="path6" />
        </g>
        <g
           id="line2d_6">
          <g
             id="g7">
            <use
               xlink:href="#m62fa678d9d"
               x="150.22621"
               y="256.32001"
               style="stroke:#000000;stroke-width:0.8"
               id="use7" />
          </g>
        </g>
        <g
           id="text_3">
          <!-- 4 -->
          <g
             transform="matrix(0.1,0,0,-0.1,147.04496,270.91844)"
             id="g8">
            <defs
               id="defs7">
              <path
                 id="DejaVuSans-34"
                 d="M 2419,4116 825,1625 h 1594 z m -166,550 h 794 V 1625 h 666 V 1100 H 3047 V 0 H 2419 V 1100 H 313 v 609 z"
                 transform="scale(0.015625)" />
            </defs>
            <use
               xlink:href="#DejaVuSans-34"
               id="use8" />
          </g>
        </g>
      </g>
      <g
         id="xtick_4">
        <g
           id="line2d_7">
          <path
             d="M 198.33932,256.32 V 34.56"
             clip-path="url(#p87fbb28242)"
             style="fill:none;stroke:#b0b0b0;stroke-width:0.8;stroke-linecap:square"
             id="path8" />
        </g>
        <g
           id="line2d_8">
          <g
             id="g9">
            <use
               xlink:href="#m62fa678d9d"
               x="198.33932"
               y="256.32001"
               style="stroke:#000000;stroke-width:0.8"
               id="use9" />
          </g>
        </g>
        <g
           id="text_4">
          <!-- 6 -->
          <g
             transform="matrix(0.1,0,0,-0.1,195.15807,270.91844)"
             id="g10">
            <defs
               id="defs9">
              <path
                 id="DejaVuSans-36"
                 d="m 2113,2584 q -425,0 -674,-291 -248,-290 -248,-796 0,-503 248,-796 249,-292 674,-292 425,0 673,292 248,293 248,796 0,506 -248,796 -248,291 -673,291 z m 1253,1979 v -575 q -238,112 -480,171 -242,60 -480,60 -625,0 -955,-422 -329,-422 -376,-1275 184,272 462,417 279,145 613,145 703,0 1111,-427 408,-426 408,-1160 0,-719 -425,-1154 -425,-434 -1131,-434 -810,0 -1238,620 -428,621 -428,1799 0,1106 525,1764 525,658 1409,658 238,0 480,-47 242,-47 505,-140 z"
                 transform="scale(0.015625)" />
            </defs>
            <use
               xlink:href="#DejaVuSans-36"
               id="use10" />
          </g>
        </g>
      </g>
      <g
         id="xtick_5">
        <g
           id="line2d_9">
          <path
             d="M 246.45243,256.32 V 34.56"
             clip-path="url(#p87fbb28242)"
             style="fill:none;stroke:#b0b0b0;stroke-width:0.8;stroke-linecap:square"
             id="path10" />
        </g>
        <g
           id="line2d_10">
          <g
             id="g11">
            <use
               xlink:href="#m62fa678d9d"
               x="246.45242"
               y="256.32001"
               style="stroke:#000000;stroke-width:0.8"
               id="use11" />
          </g>
        </g>
        <g
           id="text_5">
          <!-- 8 -->
          <g
             transform="matrix(0.1,0,0,-0.1,243.27118,270.91844)"
             id="g12">
            <defs
               id="defs11">
              <path
                 id="DejaVuSans-38"
                 d="m 2034,2216 q -450,0 -708,-241 -257,-241 -257,-662 0,-422 257,-663 258,-241 708,-241 450,0 709,242 260,243 260,662 0,421 -258,662 -257,241 -711,241 z m -631,268 q -406,100 -633,378 -226,279 -226,679 0,559 398,884 399,325 1092,325 697,0 1094,-325 397,-325 397,-884 0,-400 -227,-679 -226,-278 -629,-378 456,-106 710,-416 255,-309 255,-755 Q 3634,634 3220,271 2806,-91 2034,-91 1263,-91 848,271 434,634 434,1313 q 0,446 256,755 257,310 713,416 z m -231,997 q 0,-362 226,-565 227,-203 636,-203 407,0 636,203 230,203 230,565 0,363 -230,566 -229,203 -636,203 -409,0 -636,-203 -226,-203 -226,-566 z"
                 transform="scale(0.015625)" />
            </defs>
            <use
               xlink:href="#DejaVuSans-38"
               id="use12" />
          </g>
        </g>
      </g>
      <g
         id="xtick_6">
        <g
           id="line2d_11">
          <path
             d="M 294.56554,256.32 V 34.56"
             clip-path="url(#p87fbb28242)"
             style="fill:none;stroke:#b0b0b0;stroke-width:0.8;stroke-linecap:square"
             id="path12" />
        </g>
        <g
           id="line2d_12">
          <g
             id="g13">
            <use
               xlink:href="#m62fa678d9d"
               x="294.56555"
               y="256.32001"
               style="stroke:#000000;stroke-width:0.8"
               id="use13" />
          </g>
        </g>
        <g
           id="text_6">
          <!-- 10 -->
          <g
             transform="matrix(0.1,0,0,-0.1,288.20304,270.91844)"
             id="g15">
            <defs
               id="defs13">
              <path
                 id="DejaVuSans-31"
                 d="M 794,531 H 1825 V 4091 L 703,3866 v 575 l 1116,225 h 631 V 531 H 3481 V 0 H 794 Z"
                 transform="scale(0.015625)" />
            </defs>
            <use
               xlink:href="#DejaVuSans-31"
               id="use14" />
            <use
               xlink:href="#DejaVuSans-30"
               x="63.623047"
               id="use15" />
          </g>
        </g>
      </g>
      <g
         id="xtick_7">
        <g
           id="line2d_13">
          <path
             d="M 342.67865,256.32 V 34.56"
             clip-path="url(#p87fbb28242)"
             style="fill:none;stroke:#b0b0b0;stroke-width:0.8;stroke-linecap:square"
             id="path15" />
        </g>
        <g
           id="line2d_14">
          <g
             id="g16">
            <use
               xlink:href="#m62fa678d9d"
               x="342.67865"
               y="256.32001"
               style="stroke:#000000;stroke-width:0.8"
               id="use16" />
          </g>
        </g>
        <g
           id="text_7">
          <!-- 12 -->
          <g
             transform="matrix(0.1,0,0,-0.1,336.31614,270.91844)"
             id="g18">
            <use
               xlink:href="#DejaVuSans-31"
               id="use17" />
            <use
               xlink:href="#DejaVuSans-32"
               x="63.623047"
               id="use18" />
          </g>
        </g>
      </g>
      <g
         id="text_8">
        <!-- Time $t$ -->
        <g
           transform="matrix(0.1,0,0,-0.1,205.45,284.59656)"
           id="g24">
          <defs
             id="defs18">
            <path
               id="DejaVuSans-54"
               d="M -19,4666 H 3928 V 4134 H 2272 V 0 H 1638 V 4134 H -19 Z"
               transform="scale(0.015625)" />
            <path
               id="DejaVuSans-69"
               d="m 603,3500 h 575 V 0 H 603 Z m 0,1363 h 575 V 4134 H 603 Z"
               transform="scale(0.015625)" />
            <path
               id="DejaVuSans-6d"
               d="m 3328,2828 q 216,388 516,572 300,184 706,184 547,0 844,-383 297,-382 297,-1088 V 0 h -578 v 2094 q 0,503 -179,746 -178,244 -543,244 -447,0 -707,-297 -259,-296 -259,-809 V 0 h -578 v 2094 q 0,506 -178,748 -178,242 -550,242 -441,0 -701,-298 -259,-298 -259,-808 V 0 H 581 v 3500 h 578 v -544 q 197,322 472,475 275,153 653,153 382,0 649,-194 267,-193 395,-562 z"
               transform="scale(0.015625)" />
            <path
               id="DejaVuSans-65"
               d="M 3597,1894 V 1613 H 953 q 38,-594 358,-905 320,-311 892,-311 331,0 642,81 311,81 618,244 V 178 Q 3153,47 2828,-22 2503,-91 2169,-91 1331,-91 842,396 353,884 353,1716 q 0,859 464,1363 464,505 1252,505 706,0 1117,-455 411,-454 411,-1235 z m -575,169 q -6,471 -264,752 -258,282 -683,282 -481,0 -770,-272 -289,-272 -333,-766 z"
               transform="scale(0.015625)" />
            <path
               id="DejaVuSans-20"
               transform="scale(0.015625)"
               d="" />
            <path
               id="DejaVuSans-Oblique-74"
               d="m 2706,3500 -87,-447 H 1472 L 1100,1153 q -19,-106 -28,-178 -9,-72 -9,-112 0,-200 120,-291 120,-91 386,-91 h 581 L 2053,0 H 1503 Q 991,0 739,200 488,400 488,806 q 0,72 9,158 9,86 28,189 L 897,3053 H 409 l 91,447 h 478 l 194,994 h 575 l -191,-994 z"
               transform="scale(0.015625)" />
          </defs>
          <use
             xlink:href="#DejaVuSans-54"
             transform="translate(0,0.015625)"
             id="use19" />
          <use
             xlink:href="#DejaVuSans-69"
             transform="translate(61.083984,0.015625)"
             id="use20" />
          <use
             xlink:href="#DejaVuSans-6d"
             transform="translate(88.867188,0.015625)"
             id="use21" />
          <use
             xlink:href="#DejaVuSans-65"
             transform="translate(186.2793,0.015625)"
             id="use22" />
          <use
             xlink:href="#DejaVuSans-20"
             transform="translate(247.80273,0.015625)"
             id="use23" />
          <use
             xlink:href="#DejaVuSans-Oblique-74"
             transform="translate(279.58984,0.015625)"
             id="use24" />
        </g>
      </g>
    </g>
    <g
       id="matplotlib.axis_2">
      <g
         id="ytick_1">
        <g
           id="line2d_15">
          <path
             d="M 54,256.32 H 388.8"
             clip-path="url(#p87fbb28242)"
             style="fill:none;stroke:#b0b0b0;stroke-width:0.8;stroke-linecap:square"
             id="path24" />
        </g>
        <g
           id="line2d_16">
          <defs
             id="defs24">
            <path
               id="m7402610404"
               d="M 0,0 H -3.5"
               style="stroke:#000000;stroke-width:0.8" />
          </defs>
          <g
             id="g25">
            <use
               xlink:href="#m7402610404"
               x="54"
               y="256.32001"
               style="stroke:#000000;stroke-width:0.8"
               id="use25" />
          </g>
        </g>
        <g
           id="text_9">
          <!-- −1.0 -->
          <g
             transform="matrix(0.1,0,0,-0.1,22.717187,260.11922)"
             id="g29">
            <defs
               id="defs25">
              <path
                 id="DejaVuSans-2212"
                 d="M 678,2272 H 4684 V 1741 H 678 Z"
                 transform="scale(0.015625)" />
              <path
                 id="DejaVuSans-2e"
                 d="m 684,794 h 660 V 0 H 684 Z"
                 transform="scale(0.015625)" />
            </defs>
            <use
               xlink:href="#DejaVuSans-2212"
               id="use26" />
            <use
               xlink:href="#DejaVuSans-31"
               x="83.789062"
               id="use27" />
            <use
               xlink:href="#DejaVuSans-2e"
               x="147.41211"
               id="use28" />
            <use
               xlink:href="#DejaVuSans-30"
               x="179.19922"
               id="use29" />
          </g>
        </g>
      </g>
      <g
         id="ytick_2">
        <g
           id="line2d_17">
          <path
             d="M 54,203.28863 H 388.8"
             clip-path="url(#p87fbb28242)"
             style="fill:none;stroke:#b0b0b0;stroke-width:0.8;stroke-linecap:square"
             id="path29" />
        </g>
        <g
           id="line2d_18">
          <g
             id="g30">
            <use
               xlink:href="#m7402610404"
               x="54"
               y="203.28864"
               style="stroke:#000000;stroke-width:0.8"
               id="use30" />
          </g>
        </g>
        <g
           id="text_10">
          <!-- −0.5 -->
          <g
             transform="matrix(0.1,0,0,-0.1,22.717187,207.08785)"
             id="g34">
            <defs
               id="defs30">
              <path
                 id="DejaVuSans-35"
                 d="M 691,4666 H 3169 V 4134 H 1269 V 2991 q 137,47 274,70 138,23 276,23 781,0 1237,-428 457,-428 457,-1159 Q 3513,744 3044,326 2575,-91 1722,-91 1428,-91 1123,-41 819,9 494,109 v 635 q 281,-153 581,-228 300,-75 634,-75 541,0 856,284 316,284 316,772 0,487 -316,771 -315,285 -856,285 -253,0 -505,-56 -251,-56 -513,-175 z"
                 transform="scale(0.015625)" />
            </defs>
            <use
               xlink:href="#DejaVuSans-2212"
               id="use31" />
            <use
               xlink:href="#DejaVuSans-30"
               x="83.789062"
               id="use32" />
            <use
               xlink:href="#DejaVuSans-2e"
               x="147.41211"
               id="use33" />
            <use
               xlink:href="#DejaVuSans-35"
               x="179.19922"
               id="use34" />
          </g>
        </g>
      </g>
      <g
         id="ytick_3">
        <g
           id="line2d_19">
          <path
             d="M 54,150.25727 H 388.8"
             clip-path="url(#p87fbb28242)"
             style="fill:none;stroke:#b0b0b0;stroke-width:0.8;stroke-linecap:square"
             id="path34" />
        </g>
        <g
           id="line2d_20">
          <g
             id="g35">
            <use
               xlink:href="#m7402610404"
               x="54"
               y="150.25726"
               style="stroke:#000000;stroke-width:0.8"
               id="use35" />
          </g>
        </g>
        <g
           id="text_11">
          <!-- 0.0 -->
          <g
             transform="matrix(0.1,0,0,-0.1,31.096875,154.05648)"
             id="g38">
            <use
               xlink:href="#DejaVuSans-30"
               id="use36" />
            <use
               xlink:href="#DejaVuSans-2e"
               x="63.623047"
               id="use37" />
            <use
               xlink:href="#DejaVuSans-30"
               x="95.410156"
               id="use38" />
          </g>
        </g>
      </g>
      <g
         id="ytick_4">
        <g
           id="line2d_21">
          <path
             d="M 54,97.225899 H 388.8"
             clip-path="url(#p87fbb28242)"
             style="fill:none;stroke:#b0b0b0;stroke-width:0.8;stroke-linecap:square"
             id="path38" />
        </g>
        <g
           id="line2d_22">
          <g
             id="g39">
            <use
               xlink:href="#m7402610404"
               x="54"
               y="97.225899"
               style="stroke:#000000;stroke-width:0.8"
               id="use39" />
          </g>
        </g>
        <g
           id="text_12">
          <!-- 0.5 -->
          <g
             transform="matrix(0.1,0,0,-0.1,31.096875,101.02512)"
             id="g42">
            <use
               xlink:href="#DejaVuSans-30"
               id="use40" />
            <use
               xlink:href="#DejaVuSans-2e"
               x="63.623047"
               id="use41" />
            <use
               xlink:href="#DejaVuSans-35"
               x="95.410156"
               id="use42" />
          </g>
        </g>
      </g>
      <g
         id="ytick_5">
        <g
           id="line2d_23">
          <path
             d="M 54,44.194532 H 388.8"
             clip-path="url(#p87fbb28242)"
             style="fill:none;stroke:#b0b0b0;stroke-width:0.8;stroke-linecap:square"
             id="path42" />
        </g>
        <g
           id="line2d_24">
          <g
             id="g43">
            <use
               xlink:href="#m7402610404"
               x="54"
               y="44.19453"
               style="stroke:#000000;stroke-width:0.8"
               id="use43" />
          </g>
        </g>
        <g
           id="text_13">
          <!-- 1.0 -->
          <g
             transform="matrix(0.1,0,0,-0.1,31.096875,47.993751)"
             id="g46">
            <use
               xlink:href="#DejaVuSans-31"
               id="use44" />
            <use
               xlink:href="#DejaVuSans-2e"
               x="63.623047"
               id="use45" />
            <use
               xlink:href="#DejaVuSans-30"
               x="95.410156"
               id="use46" />
          </g>
        </g>
      </g>
      <g
         id="text_14">
        <!-- Velocity $\dot{q}$ -->
        <g
           transform="matrix(0,-0.1,-0.1,0,16.617187,170.24)"
           id="g57">
          <defs
             id="defs46">
            <path
               id="DejaVuSans-56"
               d="M 1831,0 50,4666 H 709 L 2188,738 3669,4666 h 656 L 2547,0 Z"
               transform="scale(0.015625)" />
            <path
               id="DejaVuSans-6c"
               d="m 603,4863 h 575 V 0 H 603 Z"
               transform="scale(0.015625)" />
            <path
               id="DejaVuSans-6f"
               d="m 1959,3097 q -462,0 -731,-361 -269,-361 -269,-989 0,-628 267,-989 268,-361 733,-361 460,0 728,362 269,363 269,988 0,622 -269,986 -268,364 -728,364 z m 0,487 q 750,0 1178,-488 429,-487 429,-1349 Q 3566,888 3137,398 2709,-91 1959,-91 1206,-91 779,398 353,888 353,1747 q 0,862 426,1349 427,488 1180,488 z"
               transform="scale(0.015625)" />
            <path
               id="DejaVuSans-63"
               d="m 3122,3366 v -538 q -244,135 -489,202 -245,67 -495,67 -560,0 -870,-355 -309,-354 -309,-995 0,-641 309,-996 310,-354 870,-354 250,0 495,67 245,67 489,202 V 134 Q 2881,22 2623,-34 2366,-91 2075,-91 1284,-91 818,406 353,903 353,1747 q 0,856 470,1346 471,491 1290,491 265,0 518,-55 253,-54 491,-163 z"
               transform="scale(0.015625)" />
            <path
               id="DejaVuSans-74"
               d="M 1172,4494 V 3500 H 2356 V 3053 H 1172 V 1153 q 0,-428 117,-550 117,-122 477,-122 h 590 V 0 H 1766 Q 1100,0 847,248 594,497 594,1153 V 3053 H 172 v 447 h 422 v 994 z"
               transform="scale(0.015625)" />
            <path
               id="DejaVuSans-79"
               d="m 2059,-325 q -243,-625 -475,-815 -231,-191 -618,-191 H 506 v 481 h 338 q 237,0 368,113 132,112 291,531 L 1606,56 191,3500 H 800 L 1894,763 2988,3500 h 609 z"
               transform="scale(0.015625)" />
            <path
               id="DejaVuSans-307"
               d="m -1894,4863 h 575 v -729 h -575 z m 294,-1279 z"
               transform="scale(0.015625)" />
            <path
               id="DejaVuSans-Oblique-71"
               d="M 2669,525 Q 2438,222 2123,65 1809,-91 1428,-91 897,-91 595,267 294,625 294,1253 q 0,506 186,978 186,472 533,847 225,244 517,375 292,131 614,131 387,0 637,-153 250,-153 363,-462 l 100,525 h 578 L 2888,-1319 H 2309 Z M 891,1338 q 0,-463 193,-705 194,-242 560,-242 544,0 928,520 384,520 384,1264 0,450 -199,689 -198,239 -569,239 -272,0 -504,-127 Q 1453,2850 1281,2606 1100,2350 995,2006 891,1663 891,1338 Z"
               transform="scale(0.015625)" />
          </defs>
          <use
             xlink:href="#DejaVuSans-56"
             transform="translate(0,0.515625)"
             id="use47" />
          <use
             xlink:href="#DejaVuSans-65"
             transform="translate(68.408203,0.515625)"
             id="use48" />
          <use
             xlink:href="#DejaVuSans-6c"
             transform="translate(129.93164,0.515625)"
             id="use49" />
          <use
             xlink:href="#DejaVuSans-6f"
             transform="translate(157.71484,0.515625)"
             id="use50" />
          <use
             xlink:href="#DejaVuSans-63"
             transform="translate(218.89648,0.515625)"
             id="use51" />
          <use
             xlink:href="#DejaVuSans-69"
             transform="translate(273.87695,0.515625)"
             id="use52" />
          <use
             xlink:href="#DejaVuSans-74"
             transform="translate(301.66016,0.515625)"
             id="use53" />
          <use
             xlink:href="#DejaVuSans-79"
             transform="translate(340.86914,0.515625)"
             id="use54" />
          <use
             xlink:href="#DejaVuSans-20"
             transform="translate(400.04883,0.515625)"
             id="use55" />
          <use
             xlink:href="#DejaVuSans-307"
             transform="translate(496.29883,13.015625)"
             id="use56" />
          <use
             xlink:href="#DejaVuSans-Oblique-71"
             transform="translate(431.83594,0.515625)"
             id="use57" />
        </g>
      </g>
    </g>
    <g
       id="line2d_25">
      <path
         d="m 54,150.25727 h 2.4e-5 v 0"
         clip-path="url(#p87fbb28242)"
         style="fill:none;stroke:#1f77b4;stroke-width:1.5;stroke-linecap:square"
         id="path57" />
    </g>
    <g
       id="line2d_26">
      <path
         d="m 54,150.25727 h 2.4e-5 v 0"
         clip-path="url(#p87fbb28242)"
         style="fill:none;stroke:#ff7f0e;stroke-width:1.5;stroke-linecap:square"
         id="path58" />
    </g>
    <g
       id="line2d_27">
      <path
         d="m 54.000024,106.25542 2.3241,7.41918 3.602354,12.37474 4.88061,16.66007 2.556509,7.94955 2.09169,5.83591 1.85928,4.56551 1.62687,3.4479 1.510664,2.7016 1.39446,2.03801 1.278255,1.46516 1.16205,0.98568 1.045845,0.59807 0.92964,0.29773 0.929639,0.075 0.92964,-0.14953 0.92964,-0.37506 0.92964,-0.60084 1.045845,-0.94519 1.16205,-1.38236 1.16205,-1.72784 1.278255,-2.29236 1.394459,-2.95658 1.510665,-3.71987 1.743075,-4.92516 1.85928,-5.94633 2.091689,-7.45509 2.440305,-9.56377 3.021327,-12.80529 9.2964,-40.459578 v 0"
         clip-path="url(#p87fbb28242)"
         style="fill:none;stroke:#1f77b4;stroke-width:1.5;stroke-linecap:square"
         id="path59" />
    </g>
    <g
       id="line2d_28">
      <path
         d="m 54.000024,44.194532 12.782548,0.109317 4.6482,0.268674 3.602354,0.423375 3.02133,0.569509 2.672715,0.718554 2.440304,0.874114 2.3241,1.063567 2.207895,1.253794 2.091689,1.43832 2.09169,1.713865 1.975485,1.901489 1.975485,2.206252 1.975484,2.541959 1.975485,2.91011 1.975482,3.3122 1.97549,3.749724 1.97548,4.224181 1.97549,4.737068 2.09169,5.619142 2.09169,6.288143 0.1162,0.369975 v 0"
         clip-path="url(#p87fbb28242)"
         style="fill:none;stroke:#ff7f0e;stroke-width:1.5;stroke-linecap:square"
         id="path60" />
    </g>
    <g
       id="line2d_29">
      <path
         d="m 111.98631,77.364662 2.22962,-8.434746 1.87417,-6.267025 1.68029,-4.874264 1.51873,-3.751639 1.38947,-2.869889 1.29254,-2.185298 1.2279,-1.651849 1.16328,-1.198372 1.09865,-0.822952 1.09866,-0.54589 1.09865,-0.296619 0.45238,-0.05721 v 0"
         clip-path="url(#p87fbb28242)"
         style="fill:none;stroke:#1f77b4;stroke-width:1.5;stroke-linecap:square"
         id="path61" />
    </g>
    <g
       id="line2d_30">
      <path
         d="m 111.98631,90.487864 2.10037,7.076764 2.26193,8.434552 2.61738,10.66558 8.56303,35.68696 0.58163,2.00688 v 0"
         clip-path="url(#p87fbb28242)"
         style="fill:none;stroke:#ff7f0e;stroke-width:1.5;stroke-linecap:square"
         id="path62" />
    </g>
    <g
       id="line2d_31">
      <path
         d="m 128.11065,44.408904 1.19475,0.0066 1.33185,0.235002 1.5277,0.503567 1.76274,0.824176 1.9586,1.16605 1.99777,1.449115 v 0"
         clip-path="url(#p87fbb28242)"
         style="fill:none;stroke:#1f77b4;stroke-width:1.5;stroke-linecap:square"
         id="path63" />
    </g>
    <g
       id="line2d_32">
      <path
         d="m 128.11065,154.3586 1.42978,4.4088 1.21433,3.05784 1.03806,2.04816 0.92054,1.34945 0.80303,0.80601 0.72468,0.42617 0.66592,0.13958 0.64634,-0.093 0.66592,-0.32641 0.72468,-0.61278 0.82261,-1.00532 0.11752,-0.16927 v 0"
         clip-path="url(#p87fbb28242)"
         style="fill:none;stroke:#ff7f0e;stroke-width:1.5;stroke-linecap:square"
         id="path64" />
    </g>
    <g
       id="line2d_33">
      <path
         d="m 137.88406,48.593448 1.84927,1.613249 1.79791,1.87209 1.74654,2.145691 1.74654,2.497812 1.79791,2.960531 1.90064,3.572324 2.00339,4.25989 2.10612,5.011465 2.31159,6.089642 2.61981,7.558744 3.1335,9.756901 2.6198,8.527193 v 0"
         clip-path="url(#p87fbb28242)"
         style="fill:none;stroke:#1f77b4;stroke-width:1.5;stroke-linecap:square"
         id="path65" />
    </g>
    <g
       id="line2d_34">
      <path
         d="m 137.88406,164.38786 0.97601,-1.6378 1.13011,-2.37232 1.28422,-3.23665 1.54106,-4.5208 1.84928,-6.14719 2.41433,-8.84902 4.41772,-17.23772 4.05813,-15.46198 2.77392,-9.712386 2.41433,-7.663442 2.20886,-6.292379 0.56505,-1.496601 v 0"
         clip-path="url(#p87fbb28242)"
         style="fill:none;stroke:#ff7f0e;stroke-width:1.5;stroke-linecap:square"
         id="path66" />
    </g>
    <g
       id="line2d_35">
      <path
         d="m 163.51708,104.45898 6.3403,20.48011 2.95151,8.74905 2.40494,6.48267 2.18631,5.27527 1.96768,4.17541 1.74904,3.21445 1.63973,2.56155 1.53042,1.97826 1.4211,1.4688 1.31179,1.03415 1.20246,0.67277 1.20247,0.40732 1.09316,0.13912 1.09315,-0.0809 1.09316,-0.3 1.09315,-0.51731 1.20247,-0.81694 1.31178,-1.18213 1.4211,-1.6146 1.53042,-2.11391 1.63973,-2.67674 1.74905,-3.29612 1.96767,-4.20735 2.18631,-5.22378 2.51426,-6.60165 3.17014,-8.98084 5.57509,-16.43224 v 0"
         clip-path="url(#p87fbb28242)"
         style="fill:none;stroke:#1f77b4;stroke-width:1.5;stroke-linecap:square"
         id="path67" />
    </g>
    <g
       id="line2d_36">
      <path
         d="m 163.51708,79.759572 2.077,-5.110594 1.96767,-4.288434 1.96768,-3.766792 1.85836,-3.093033 1.85837,-2.655438 1.74904,-2.111311 1.63973,-1.647582 1.63973,-1.335555 1.53042,-0.972709 1.53041,-0.715536 1.53042,-0.465307 1.53042,-0.221948 1.53041,0.01462 1.53042,0.244483 1.53041,0.46771 1.63973,0.741386 1.63973,0.982155 1.74905,1.304161 1.85836,1.665512 1.96768,2.065628 2.07699,2.503452 2.18631,2.977442 2.40494,3.660411 2.51425,4.234679 2.73289,5.046979 2.95151,5.935003 3.17015,6.891854 2.18631,5.041453 v 0"
         clip-path="url(#p87fbb28242)"
         style="fill:none;stroke:#ff7f0e;stroke-width:1.5;stroke-linecap:square"
         id="path68" />
    </g>
    <g
       id="line2d_37">
      <path
         d="m 218.06547,107.05339 3.38089,-9.479655 2.43739,-6.209827 2.12289,-4.821771 1.88701,-3.742059 1.65114,-2.805756 1.49388,-2.132847 1.41526,-1.64633 1.25801,-1.146528 1.17938,-0.797232 1.10076,-0.497754 1.10076,-0.257623 1.02213,-0.02331 1.02213,0.184488 1.10076,0.429849 1.10075,0.667142 1.17939,0.973894 1.258,1.327473 1.41526,1.83796 1.49389,2.318086 1.65113,2.985781 1.80839,3.737112 2.04426,4.741141 2.43739,6.237504 2.67327,7.354392 v 0"
         clip-path="url(#p87fbb28242)"
         style="fill:none;stroke:#1f77b4;stroke-width:1.5;stroke-linecap:square"
         id="path69" />
    </g>
    <g
       id="line2d_38">
      <path
         d="m 218.06547,97.152264 3.61677,8.811896 4.0099,10.37939 4.56028,12.44068 5.89691,16.77975 13.60221,38.95473 4.16715,11.11616 3.3809,8.42282 v 0"
         clip-path="url(#p87fbb28242)"
         style="fill:none;stroke:#ff7f0e;stroke-width:1.5;stroke-linecap:square"
         id="path70" />
    </g>
    <g
       id="line2d_39">
      <path
         d="m 257.29959,106.28752 8.67773,24.14451 2.54547,6.25011 2.19836,4.82987 1.96696,3.79331 1.73554,2.88454 1.61985,2.26983 1.50414,1.72188 1.38844,1.24622 1.27273,0.84458 1.15703,0.51572 1.15703,0.27249 1.15704,0.0274 1.15703,-0.21857 1.15703,-0.46418 1.15703,-0.70839 1.27273,-1.05824 1.27274,-1.34573 1.38844,-1.78824 1.50414,-2.30211 1.61984,-2.8848 1.85125,-3.7805 1.96695,-4.53446 2.31407,-5.93471 2.66117,-7.48075 3.47109,-10.47782 7.63641,-23.267509 0.92563,-2.587673 v 0"
         clip-path="url(#p87fbb28242)"
         style="fill:none;stroke:#1f77b4;stroke-width:1.5;stroke-linecap:square"
         id="path71" />
    </g>
    <g
       id="line2d_40">
      <path
         d="m 257.29959,204.05769 3.00828,6.91467 2.66117,5.57534 2.42977,4.58979 2.19836,3.70353 2.08265,3.08846 1.96696,2.52209 1.85125,2.00924 1.73555,1.55257 1.61984,1.15298 1.50414,0.80996 1.50414,0.55547 1.38844,0.28461 1.38844,0.0641 1.38843,-0.15738 1.38844,-0.3792 1.38844,-0.60081 1.50414,-0.90008 1.50414,-1.15758 1.61984,-1.53176 1.73555,-1.96476 1.85125,-2.45769 1.96696,-3.01037 2.08265,-3.62093 2.19836,-4.28548 2.31406,-4.99771 2.54547,-6.03423 2.77688,-7.16576 3.12398,-8.69763 3.00829,-8.9044 v 0"
         clip-path="url(#p87fbb28242)"
         style="fill:none;stroke:#ff7f0e;stroke-width:1.5;stroke-linecap:square"
         id="path72" />
    </g>
    <g
       id="line2d_41">
      <path
         d="m 315.03546,86.254268 2.24849,-5.845517 1.89958,-4.336603 1.66698,-3.264429 1.47315,-2.41467 1.31808,-1.757871 1.20178,-1.25407 1.12425,-0.861178 1.04671,-0.523964 0.96917,-0.242402 0.93041,-0.01101 0.93041,0.207058 0.96918,0.447421 1.00794,0.714734 1.08548,1.05084 1.16301,1.443379 0.31014,0.439305 v 0"
         clip-path="url(#p87fbb28242)"
         style="fill:none;stroke:#1f77b4;stroke-width:1.5;stroke-linecap:square"
         id="path73" />
    </g>
    <g
       id="line2d_42">
      <path
         d="m 315.03546,181.01469 4.34191,-13.52311 7.24944,-23.43983 7.0556,-22.53856 0.69781,-2.16122 v 0"
         clip-path="url(#p87fbb28242)"
         style="fill:none;stroke:#ff7f0e;stroke-width:1.5;stroke-linecap:square"
         id="path74" />
    </g>
    <g
       id="line2d_43">
      <path
         d="m 334.38022,70.045287 1.30869,2.099455 1.41775,2.707989 1.5268,3.394236 1.74493,4.444822 1.96303,5.656208 2.18116,6.996946 2.61738,9.203687 3.38079,12.79022 8.17932,31.31613 2.39927,8.11441 1.96303,5.87634 1.63587,4.2272 1.41775,3.07733 1.19963,2.11883 1.09058,1.4975 0.98152,0.96703 0.87246,0.53362 0.7634,0.19901 0.65435,-0.0392 0.65434,-0.24187 0.76341,-0.55009 0.7634,-0.85202 0.87246,-1.36184 0.87246,-1.79664 0.98152,-2.56848 1.09058,-3.57108 1.09057,-4.36938 1.19964,-5.78294 1.19963,-6.86637 1.30869,-8.80083 1.41775,-11.17225 1.41775,-12.98259 1.52681,-16.134604 1.5268,-18.507867 0.43624,-5.744356 v 0"
         clip-path="url(#p87fbb28242)"
         style="fill:none;stroke:#1f77b4;stroke-width:1.5;stroke-linecap:square"
         id="path75" />
    </g>
    <g
       id="line2d_44">
      <path
         d="m 334.38022,119.35197 4.25324,-12.75497 3.59891,-10.103467 3.27172,-8.523458 2.94456,-7.06765 2.72644,-5.995885 2.61739,-5.236639 2.50832,-4.527713 2.39927,-3.875739 2.29021,-3.284464 2.18115,-2.755248 2.18115,-2.399202 2.0721,-1.959574 2.0721,-1.660833 2.07209,-1.377543 2.07209,-1.112611 2.0721,-0.868941 2.18115,-0.678038 2.39927,-0.502858 2.61738,-0.312277 3.16267,-0.143998 2.72645,-0.01633 v 0"
         clip-path="url(#p87fbb28242)"
         style="fill:none;stroke:#ff7f0e;stroke-width:1.5;stroke-linecap:square"
         id="path76" />
    </g>
    <g
       id="line2d_45">
      <path
         d="m 388.79998,150.25727 h 2e-5 v 0"
         clip-path="url(#p87fbb28242)"
         style="fill:none;stroke:#1f77b4;stroke-width:1.5;stroke-linecap:square"
         id="path77" />
    </g>
    <g
       id="line2d_46">
      <path
         d="m 388.79998,150.25727 h 2e-5 v 0"
         clip-path="url(#p87fbb28242)"
         style="fill:none;stroke:#ff7f0e;stroke-width:1.5;stroke-linecap:square"
         id="path78" />
    </g>
    <g
       id="patch_3">
      <path
         d="M 54,256.32 V 34.56"
         style="fill:none;stroke:#000000;stroke-width:0.8;stroke-linecap:square;stroke-linejoin:miter"
         id="path79" />
    </g>
    <g
       id="patch_4">
      <path
         d="M 388.8,256.32 V 34.56"
         style="fill:none;stroke:#000000;stroke-width:0.8;stroke-linecap:square;stroke-linejoin:miter"
         id="path80" />
    </g>
    <g
       id="patch_5">
      <path
         d="M 54,256.32 H 388.8"
         style="fill:none;stroke:#000000;stroke-width:0.8;stroke-linecap:square;stroke-linejoin:miter"
         id="path81" />
    </g>
    <g
       id="patch_6">
      <path
         d="M 54,34.56 H 388.8"
         style="fill:none;stroke:#000000;stroke-width:0.8;stroke-linecap:square;stroke-linejoin:miter"
         id="path82" />
    </g>
  </g>
  <defs
     id="defs82">
    <clipPath
       id="p87fbb28242">
      <rect
         x="54"
         y="34.560001"
         width="334.79999"
         height="221.75999"
         id="rect82" />
    </clipPath>
  </defs>
</svg>
