<?xml version="1.0" encoding="UTF-8" standalone="no"?>
<svg
   width="347.82126pt"
   height="350.87204pt"
   viewBox="0 0 347.82126 350.87204"
   version="1.1"
   id="svg38"
   sodipodi:docname="gcs_simple_2d_first_order_min_length.svg"
   inkscape:version="1.3.2 (091e20e, 2023-11-25)"
   xmlns:inkscape="http://www.inkscape.org/namespaces/inkscape"
   xmlns:sodipodi="http://sodipodi.sourceforge.net/DTD/sodipodi-0.dtd"
   xmlns:xlink="http://www.w3.org/1999/xlink"
   xmlns="http://www.w3.org/2000/svg"
   xmlns:svg="http://www.w3.org/2000/svg"
   xmlns:rdf="http://www.w3.org/1999/02/22-rdf-syntax-ns#"
   xmlns:cc="http://creativecommons.org/ns#"
   xmlns:dc="http://purl.org/dc/elements/1.1/">
  <sodipodi:namedview
     id="namedview38"
     pagecolor="#ffffff"
     bordercolor="#000000"
     borderopacity="0.25"
     inkscape:showpageshadow="2"
     inkscape:pageopacity="0.0"
     inkscape:pagecheckerboard="0"
     inkscape:deskcolor="#d1d1d1"
     inkscape:document-units="pt"
     inkscape:zoom="0.40972222"
     inkscape:cx="230.64407"
     inkscape:cy="224.54237"
     inkscape:window-width="1312"
     inkscape:window-height="449"
     inkscape:window-x="0"
     inkscape:window-y="38"
     inkscape:window-maximized="0"
     inkscape:current-layer="svg38" />
  <metadata
     id="metadata1">
    <rdf:RDF>
      <cc:Work>
        <dc:type
           rdf:resource="http://purl.org/dc/dcmitype/StillImage" />
        <dc:date>2024-03-24T21:35:22.706402</dc:date>
        <dc:format>image/svg+xml</dc:format>
        <dc:creator>
          <cc:Agent>
            <dc:title>Matplotlib v3.8.3, https://matplotlib.org/</dc:title>
          </cc:Agent>
        </dc:creator>
      </cc:Work>
    </rdf:RDF>
  </metadata>
  <defs
     id="defs1">
    <style
       type="text/css"
       id="style1">*{stroke-linejoin: round; stroke-linecap: butt}</style>
  </defs>
  <g
     id="axes_1"
     transform="translate(-42.206562,-48.348594)">
    <g
       id="patch_2">
      <path
         d="M 55.08,384.48 H 387.72 V 51.84 H 55.08 Z"
         style="fill:#ffffff"
         id="path2" />
    </g>
    <g
       id="matplotlib.axis_1">
      <g
         id="xtick_1">
        <g
           id="line2d_1">
          <path
             d="M 55.08,384.48 V 51.84"
             clip-path="url(#p6ca67b206e)"
             style="fill:none;stroke:#b0b0b0;stroke-width:0.8;stroke-linecap:square"
             id="path3" />
        </g>
        <g
           id="line2d_2">
          <defs
             id="defs3">
            <path
               id="m515dc63668"
               d="M 0,0 V 3.5"
               style="stroke:#000000;stroke-width:0.8" />
          </defs>
          <g
             id="g3">
            <use
               xlink:href="#m515dc63668"
               x="55.080002"
               y="384.48001"
               style="stroke:#000000;stroke-width:0.8"
               id="use3" />
          </g>
        </g>
        <g
           id="text_1">
          <!-- 0 -->
          <g
             transform="matrix(0.1,0,0,-0.1,51.89875,399.07844)"
             id="g4">
            <defs
               id="defs4">
              <path
                 id="DejaVuSans-30"
                 d="m 2034,4250 q -487,0 -733,-480 -245,-479 -245,-1442 0,-959 245,-1439 246,-480 733,-480 491,0 736,480 246,480 246,1439 0,963 -246,1442 -245,480 -736,480 z m 0,500 q 785,0 1199,-621 414,-620 414,-1801 0,-1178 -414,-1799 -414,-620 -1199,-620 -784,0 -1198,620 -414,621 -414,1799 0,1181 414,1801 414,621 1198,621 z"
                 transform="scale(0.015625)" />
            </defs>
            <use
               xlink:href="#DejaVuSans-30"
               id="use4" />
          </g>
        </g>
      </g>
      <g
         id="xtick_2">
        <g
           id="line2d_3">
          <path
             d="M 121.608,384.48 V 51.84"
             clip-path="url(#p6ca67b206e)"
             style="fill:none;stroke:#b0b0b0;stroke-width:0.8;stroke-linecap:square"
             id="path4" />
        </g>
        <g
           id="line2d_4">
          <g
             id="g5">
            <use
               xlink:href="#m515dc63668"
               x="121.608"
               y="384.48001"
               style="stroke:#000000;stroke-width:0.8"
               id="use5" />
          </g>
        </g>
        <g
           id="text_2">
          <!-- 1 -->
          <g
             transform="matrix(0.1,0,0,-0.1,118.42675,399.07844)"
             id="g6">
            <defs
               id="defs5">
              <path
                 id="DejaVuSans-31"
                 d="M 794,531 H 1825 V 4091 L 703,3866 v 575 l 1116,225 h 631 V 531 H 3481 V 0 H 794 Z"
                 transform="scale(0.015625)" />
            </defs>
            <use
               xlink:href="#DejaVuSans-31"
               id="use6" />
          </g>
        </g>
      </g>
      <g
         id="xtick_3">
        <g
           id="line2d_5">
          <path
             d="M 188.136,384.48 V 51.84"
             clip-path="url(#p6ca67b206e)"
             style="fill:none;stroke:#b0b0b0;stroke-width:0.8;stroke-linecap:square"
             id="path6" />
        </g>
        <g
           id="line2d_6">
          <g
             id="g7">
            <use
               xlink:href="#m515dc63668"
               x="188.136"
               y="384.48001"
               style="stroke:#000000;stroke-width:0.8"
               id="use7" />
          </g>
        </g>
        <g
           id="text_3">
          <!-- 2 -->
          <g
             transform="matrix(0.1,0,0,-0.1,184.95475,399.07844)"
             id="g8">
            <defs
               id="defs7">
              <path
                 id="DejaVuSans-32"
                 d="M 1228,531 H 3431 V 0 H 469 v 531 q 359,372 979,998 621,627 780,809 303,340 423,576 121,236 121,464 0,372 -261,606 -261,235 -680,235 -297,0 -627,-103 -329,-103 -704,-313 v 638 q 381,153 712,231 332,78 607,78 725,0 1156,-363 431,-362 431,-968 0,-288 -108,-546 -107,-257 -392,-607 -78,-91 -497,-524 Q 1991,1309 1228,531 Z"
                 transform="scale(0.015625)" />
            </defs>
            <use
               xlink:href="#DejaVuSans-32"
               id="use8" />
          </g>
        </g>
      </g>
      <g
         id="xtick_4">
        <g
           id="line2d_7">
          <path
             d="M 254.664,384.48 V 51.84"
             clip-path="url(#p6ca67b206e)"
             style="fill:none;stroke:#b0b0b0;stroke-width:0.8;stroke-linecap:square"
             id="path8" />
        </g>
        <g
           id="line2d_8">
          <g
             id="g9">
            <use
               xlink:href="#m515dc63668"
               x="254.664"
               y="384.48001"
               style="stroke:#000000;stroke-width:0.8"
               id="use9" />
          </g>
        </g>
        <g
           id="text_4">
          <!-- 3 -->
          <g
             transform="matrix(0.1,0,0,-0.1,251.48275,399.07844)"
             id="g10">
            <defs
               id="defs9">
              <path
                 id="DejaVuSans-33"
                 d="m 2597,2516 q 453,-97 707,-404 255,-306 255,-756 0,-690 -475,-1069 -475,-378 -1350,-378 -293,0 -604,58 -311,58 -642,174 v 609 q 262,-153 574,-231 313,-78 654,-78 593,0 904,234 311,234 311,681 0,413 -289,645 -289,233 -804,233 h -544 v 519 h 569 q 465,0 712,186 247,186 247,536 0,359 -255,551 -254,193 -729,193 -260,0 -557,-57 -297,-56 -653,-174 v 562 q 360,100 674,150 314,50 592,50 719,0 1137,-327 419,-326 419,-882 0,-388 -222,-655 -222,-267 -631,-370 z"
                 transform="scale(0.015625)" />
            </defs>
            <use
               xlink:href="#DejaVuSans-33"
               id="use10" />
          </g>
        </g>
      </g>
      <g
         id="xtick_5">
        <g
           id="line2d_9">
          <path
             d="M 321.192,384.48 V 51.84"
             clip-path="url(#p6ca67b206e)"
             style="fill:none;stroke:#b0b0b0;stroke-width:0.8;stroke-linecap:square"
             id="path10" />
        </g>
        <g
           id="line2d_10">
          <g
             id="g11">
            <use
               xlink:href="#m515dc63668"
               x="321.19199"
               y="384.48001"
               style="stroke:#000000;stroke-width:0.8"
               id="use11" />
          </g>
        </g>
        <g
           id="text_5">
          <!-- 4 -->
          <g
             transform="matrix(0.1,0,0,-0.1,318.01075,399.07844)"
             id="g12">
            <defs
               id="defs11">
              <path
                 id="DejaVuSans-34"
                 d="M 2419,4116 825,1625 h 1594 z m -166,550 h 794 V 1625 h 666 V 1100 H 3047 V 0 H 2419 V 1100 H 313 v 609 z"
                 transform="scale(0.015625)" />
            </defs>
            <use
               xlink:href="#DejaVuSans-34"
               id="use12" />
          </g>
        </g>
      </g>
      <g
         id="xtick_6">
        <g
           id="line2d_11">
          <path
             d="M 387.72,384.48 V 51.84"
             clip-path="url(#p6ca67b206e)"
             style="fill:none;stroke:#b0b0b0;stroke-width:0.8;stroke-linecap:square"
             id="path12" />
        </g>
        <g
           id="line2d_12">
          <g
             id="g13">
            <use
               xlink:href="#m515dc63668"
               x="387.72"
               y="384.48001"
               style="stroke:#000000;stroke-width:0.8"
               id="use13" />
          </g>
        </g>
        <g
           id="text_6">
          <!-- 5 -->
          <g
             transform="matrix(0.1,0,0,-0.1,384.53875,399.07844)"
             id="g14">
            <defs
               id="defs13">
              <path
                 id="DejaVuSans-35"
                 d="M 691,4666 H 3169 V 4134 H 1269 V 2991 q 137,47 274,70 138,23 276,23 781,0 1237,-428 457,-428 457,-1159 Q 3513,744 3044,326 2575,-91 1722,-91 1428,-91 1123,-41 819,9 494,109 v 635 q 281,-153 581,-228 300,-75 634,-75 541,0 856,284 316,284 316,772 0,487 -316,771 -315,285 -856,285 -253,0 -505,-56 -251,-56 -513,-175 z"
                 transform="scale(0.015625)" />
            </defs>
            <use
               xlink:href="#DejaVuSans-35"
               id="use14" />
          </g>
        </g>
      </g>
    </g>
    <g
       id="matplotlib.axis_2">
      <g
         id="ytick_1">
        <g
           id="line2d_13">
          <path
             d="M 55.08,384.48 H 387.72"
             clip-path="url(#p6ca67b206e)"
             style="fill:none;stroke:#b0b0b0;stroke-width:0.8;stroke-linecap:square"
             id="path14" />
        </g>
        <g
           id="line2d_14">
          <defs
             id="defs14">
            <path
               id="m3451384431"
               d="M 0,0 H -3.5"
               style="stroke:#000000;stroke-width:0.8" />
          </defs>
          <g
             id="g15">
            <use
               xlink:href="#m3451384431"
               x="55.080002"
               y="384.48001"
               style="stroke:#000000;stroke-width:0.8"
               id="use15" />
          </g>
        </g>
        <g
           id="text_7">
          <!-- 0 -->
          <g
             transform="matrix(0.1,0,0,-0.1,41.7175,388.27922)"
             id="g16">
            <use
               xlink:href="#DejaVuSans-30"
               id="use16" />
          </g>
        </g>
      </g>
      <g
         id="ytick_2">
        <g
           id="line2d_15">
          <path
             d="M 55.08,317.952 H 387.72"
             clip-path="url(#p6ca67b206e)"
             style="fill:none;stroke:#b0b0b0;stroke-width:0.8;stroke-linecap:square"
             id="path16" />
        </g>
        <g
           id="line2d_16">
          <g
             id="g17">
            <use
               xlink:href="#m3451384431"
               x="55.080002"
               y="317.952"
               style="stroke:#000000;stroke-width:0.8"
               id="use17" />
          </g>
        </g>
        <g
           id="text_8">
          <!-- 1 -->
          <g
             transform="matrix(0.1,0,0,-0.1,41.7175,321.75122)"
             id="g18">
            <use
               xlink:href="#DejaVuSans-31"
               id="use18" />
          </g>
        </g>
      </g>
      <g
         id="ytick_3">
        <g
           id="line2d_17">
          <path
             d="M 55.08,251.424 H 387.72"
             clip-path="url(#p6ca67b206e)"
             style="fill:none;stroke:#b0b0b0;stroke-width:0.8;stroke-linecap:square"
             id="path18" />
        </g>
        <g
           id="line2d_18">
          <g
             id="g19">
            <use
               xlink:href="#m3451384431"
               x="55.080002"
               y="251.424"
               style="stroke:#000000;stroke-width:0.8"
               id="use19" />
          </g>
        </g>
        <g
           id="text_9">
          <!-- 2 -->
          <g
             transform="matrix(0.1,0,0,-0.1,41.7175,255.22322)"
             id="g20">
            <use
               xlink:href="#DejaVuSans-32"
               id="use20" />
          </g>
        </g>
      </g>
      <g
         id="ytick_4">
        <g
           id="line2d_19">
          <path
             d="M 55.08,184.896 H 387.72"
             clip-path="url(#p6ca67b206e)"
             style="fill:none;stroke:#b0b0b0;stroke-width:0.8;stroke-linecap:square"
             id="path20" />
        </g>
        <g
           id="line2d_20">
          <g
             id="g21">
            <use
               xlink:href="#m3451384431"
               x="55.080002"
               y="184.896"
               style="stroke:#000000;stroke-width:0.8"
               id="use21" />
          </g>
        </g>
        <g
           id="text_10">
          <!-- 3 -->
          <g
             transform="matrix(0.1,0,0,-0.1,41.7175,188.69522)"
             id="g22">
            <use
               xlink:href="#DejaVuSans-33"
               id="use22" />
          </g>
        </g>
      </g>
      <g
         id="ytick_5">
        <g
           id="line2d_21">
          <path
             d="M 55.08,118.368 H 387.72"
             clip-path="url(#p6ca67b206e)"
             style="fill:none;stroke:#b0b0b0;stroke-width:0.8;stroke-linecap:square"
             id="path22" />
        </g>
        <g
           id="line2d_22">
          <g
             id="g23">
            <use
               xlink:href="#m3451384431"
               x="55.080002"
               y="118.368"
               style="stroke:#000000;stroke-width:0.8"
               id="use23" />
          </g>
        </g>
        <g
           id="text_11">
          <!-- 4 -->
          <g
             transform="matrix(0.1,0,0,-0.1,41.7175,122.16722)"
             id="g24">
            <use
               xlink:href="#DejaVuSans-34"
               id="use24" />
          </g>
        </g>
      </g>
      <g
         id="ytick_6">
        <g
           id="line2d_23">
          <path
             d="M 55.08,51.84 H 387.72"
             clip-path="url(#p6ca67b206e)"
             style="fill:none;stroke:#b0b0b0;stroke-width:0.8;stroke-linecap:square"
             id="path24" />
        </g>
        <g
           id="line2d_24">
          <g
             id="g25">
            <use
               xlink:href="#m3451384431"
               x="55.080002"
               y="51.84"
               style="stroke:#000000;stroke-width:0.8"
               id="use25" />
          </g>
        </g>
        <g
           id="text_12">
          <!-- 5 -->
          <g
             transform="matrix(0.1,0,0,-0.1,41.7175,55.639219)"
             id="g26">
            <use
               xlink:href="#DejaVuSans-35"
               id="use26" />
          </g>
        </g>
      </g>
    </g>
    <g
       id="line2d_25">
      <defs
         id="defs26">
        <path
           id="m56c9f59119"
           d="m -3,3 6,-6 m -6,0 6,6"
           style="stroke:#000000" />
      </defs>
      <g
         clip-path="url(#p6ca67b206e)"
         id="g27">
        <use
           xlink:href="#m56c9f59119"
           x="68.385597"
           y="371.17441"
           style="stroke:#000000"
           id="use27" />
      </g>
    </g>
    <g
       id="line2d_26">
      <g
         clip-path="url(#p6ca67b206e)"
         id="g28">
        <use
           xlink:href="#m56c9f59119"
           x="374.4144"
           y="65.145599"
           style="stroke:#000000"
           id="use28" />
      </g>
    </g>
    <g
       id="patch_3">
      <path
         d="M 55.08,384.48 V 51.84"
         style="fill:none;stroke:#000000;stroke-width:0.8;stroke-linecap:square;stroke-linejoin:miter"
         id="path28" />
    </g>
    <g
       id="patch_4">
      <path
         d="M 387.72,384.48 V 51.84"
         style="fill:none;stroke:#000000;stroke-width:0.8;stroke-linecap:square;stroke-linejoin:miter"
         id="path29" />
    </g>
    <g
       id="patch_5">
      <path
         d="M 55.08,384.48 H 387.72"
         style="fill:none;stroke:#000000;stroke-width:0.8;stroke-linecap:square;stroke-linejoin:miter"
         id="path30" />
    </g>
    <g
       id="patch_6">
      <path
         d="M 55.08,51.84 H 387.72"
         style="fill:none;stroke:#000000;stroke-width:0.8;stroke-linecap:square;stroke-linejoin:miter"
         id="path31" />
    </g>
    <g
       id="patch_7">
      <path
         d="M 281.2752,211.5072 V 78.4512 h -66.528 v 133.056 l -66.528,26.6112 159.6672,133.056 66.528,-66.528 z"
         clip-path="url(#p6ca67b206e)"
         style="fill:#f08080;stroke:#000000;stroke-linejoin:miter"
         id="path32" />
    </g>
    <g
       id="patch_8">
      <path
         d="m 148.2192,198.2016 h 53.2224 V 78.4512 h -53.2224 z"
         clip-path="url(#p6ca67b206e)"
         style="fill:#f08080;stroke:#000000;stroke-linejoin:miter"
         id="path33" />
    </g>
    <g
       id="patch_9">
      <path
         d="M 121.608,211.5072 V 51.84 H 81.6912 v 159.6672 z"
         clip-path="url(#p6ca67b206e)"
         style="fill:#f08080;stroke:#000000;stroke-linejoin:miter"
         id="path34" />
    </g>
    <g
       id="patch_10">
      <path
         d="M 121.608,224.8128 V 384.48 H 81.6912 V 224.8128 Z"
         clip-path="url(#p6ca67b206e)"
         style="fill:#f08080;stroke:#000000;stroke-linejoin:miter"
         id="path35" />
    </g>
    <g
       id="patch_11">
      <path
         d="M 307.8864,184.896 V 51.84 h 39.9168 v 133.056 z"
         clip-path="url(#p6ca67b206e)"
         style="fill:#f08080;stroke:#000000;stroke-linejoin:miter"
         id="path36" />
    </g>
    <g
       id="patch_12">
      <path
         d="m 307.8864,198.2016 v 13.3056 H 387.72 v -13.3056 z"
         clip-path="url(#p6ca67b206e)"
         style="fill:#f08080;stroke:#000000;stroke-linejoin:miter"
         id="path37" />
    </g>
    <g
       id="line2d_27">
      <path
         d="m 68.3856,371.1744 13.212368,-145.33604 0.253059,-1.06108 119.537293,-26.56384 0.33298,-2.52912 13.09249,-117.23312 h 65.92865 l 0.61267,0.319654 26.37146,105.485836 0.35961,0.63931 h 39.55719 l 0.34629,-0.83909 L 374.4144,65.1456 v 0"
         clip-path="url(#p6ca67b206e)"
         style="fill:none;stroke:#0000ff;stroke-width:1.5;stroke-linecap:square"
         id="path38" />
    </g>
  </g>
  <defs
     id="defs38">
    <clipPath
       id="p6ca67b206e">
      <rect
         x="55.080002"
         y="51.84"
         width="332.64001"
         height="332.64001"
         id="rect38" />
    </clipPath>
  </defs>
</svg>
