<?xml version="1.0" encoding="UTF-8" standalone="no"?>
<svg
   width="281.29324pt"
   height="284.34402pt"
   viewBox="0 0 281.29325 284.34402"
   version="1.1"
   id="svg62"
   sodipodi:docname="gcs_simple_2d_clique_cover.svg"
   inkscape:version="1.3.2 (091e20e, 2023-11-25)"
   xmlns:inkscape="http://www.inkscape.org/namespaces/inkscape"
   xmlns:sodipodi="http://sodipodi.sourceforge.net/DTD/sodipodi-0.dtd"
   xmlns:xlink="http://www.w3.org/1999/xlink"
   xmlns="http://www.w3.org/2000/svg"
   xmlns:svg="http://www.w3.org/2000/svg"
   xmlns:rdf="http://www.w3.org/1999/02/22-rdf-syntax-ns#"
   xmlns:cc="http://creativecommons.org/ns#"
   xmlns:dc="http://purl.org/dc/elements/1.1/">
  <sodipodi:namedview
     id="namedview62"
     pagecolor="#ffffff"
     bordercolor="#000000"
     borderopacity="0.25"
     inkscape:showpageshadow="2"
     inkscape:pageopacity="0.0"
     inkscape:pagecheckerboard="0"
     inkscape:deskcolor="#d1d1d1"
     inkscape:document-units="pt"
     inkscape:zoom="0.51215277"
     inkscape:cx="186.4678"
     inkscape:cy="179.6339"
     inkscape:window-width="1312"
     inkscape:window-height="449"
     inkscape:window-x="0"
     inkscape:window-y="38"
     inkscape:window-maximized="0"
     inkscape:current-layer="svg62" />
  <metadata
     id="metadata1">
    <rdf:RDF>
      <cc:Work>
        <dc:type
           rdf:resource="http://purl.org/dc/dcmitype/StillImage" />
        <dc:date>2024-08-21T05:34:56.082525</dc:date>
        <dc:format>image/svg+xml</dc:format>
        <dc:creator>
          <cc:Agent>
            <dc:title>Matplotlib v3.9.2, https://matplotlib.org/</dc:title>
          </cc:Agent>
        </dc:creator>
      </cc:Work>
    </rdf:RDF>
  </metadata>
  <defs
     id="defs1">
    <style
       type="text/css"
       id="style1">*{stroke-linejoin: round; stroke-linecap: butt}</style>
  </defs>
  <g
     id="axes_1"
     transform="translate(-90.230562,-37.980594)">
    <g
       id="patch_2">
      <path
         d="M 103.104,307.584 H 369.216 V 41.472 H 103.104 Z"
         style="fill:#ffffff"
         id="path2" />
    </g>
    <g
       id="matplotlib.axis_1">
      <g
         id="xtick_1">
        <g
           id="line2d_1">
          <path
             d="M 103.104,307.584 V 41.472"
             clip-path="url(#pe0c8fe5c84)"
             style="fill:none;stroke:#b0b0b0;stroke-width:0.8;stroke-linecap:square"
             id="path3" />
        </g>
        <g
           id="line2d_2">
          <defs
             id="defs3">
            <path
               id="m40bf25d29f"
               d="M 0,0 V 3.5"
               style="stroke:#000000;stroke-width:0.8" />
          </defs>
          <g
             id="g3">
            <use
               xlink:href="#m40bf25d29f"
               x="103.104"
               y="307.58401"
               style="stroke:#000000;stroke-width:0.8"
               id="use3" />
          </g>
        </g>
        <g
           id="text_1">
          <!-- 0 -->
          <g
             transform="matrix(0.1,0,0,-0.1,99.92275,322.18244)"
             id="g4">
            <defs
               id="defs4">
              <path
                 id="DejaVuSans-30"
                 d="m 2034,4250 q -487,0 -733,-480 -245,-479 -245,-1442 0,-959 245,-1439 246,-480 733,-480 491,0 736,480 246,480 246,1439 0,963 -246,1442 -245,480 -736,480 z m 0,500 q 785,0 1199,-621 414,-620 414,-1801 0,-1178 -414,-1799 -414,-620 -1199,-620 -784,0 -1198,620 -414,621 -414,1799 0,1181 414,1801 414,621 1198,621 z"
                 transform="scale(0.015625)" />
            </defs>
            <use
               xlink:href="#DejaVuSans-30"
               id="use4" />
          </g>
        </g>
      </g>
      <g
         id="xtick_2">
        <g
           id="line2d_3">
          <path
             d="M 156.3264,307.584 V 41.472"
             clip-path="url(#pe0c8fe5c84)"
             style="fill:none;stroke:#b0b0b0;stroke-width:0.8;stroke-linecap:square"
             id="path4" />
        </g>
        <g
           id="line2d_4">
          <g
             id="g5">
            <use
               xlink:href="#m40bf25d29f"
               x="156.3264"
               y="307.58401"
               style="stroke:#000000;stroke-width:0.8"
               id="use5" />
          </g>
        </g>
        <g
           id="text_2">
          <!-- 1 -->
          <g
             transform="matrix(0.1,0,0,-0.1,153.14515,322.18244)"
             id="g6">
            <defs
               id="defs5">
              <path
                 id="DejaVuSans-31"
                 d="M 794,531 H 1825 V 4091 L 703,3866 v 575 l 1116,225 h 631 V 531 H 3481 V 0 H 794 Z"
                 transform="scale(0.015625)" />
            </defs>
            <use
               xlink:href="#DejaVuSans-31"
               id="use6" />
          </g>
        </g>
      </g>
      <g
         id="xtick_3">
        <g
           id="line2d_5">
          <path
             d="M 209.5488,307.584 V 41.472"
             clip-path="url(#pe0c8fe5c84)"
             style="fill:none;stroke:#b0b0b0;stroke-width:0.8;stroke-linecap:square"
             id="path6" />
        </g>
        <g
           id="line2d_6">
          <g
             id="g7">
            <use
               xlink:href="#m40bf25d29f"
               x="209.5488"
               y="307.58401"
               style="stroke:#000000;stroke-width:0.8"
               id="use7" />
          </g>
        </g>
        <g
           id="text_3">
          <!-- 2 -->
          <g
             transform="matrix(0.1,0,0,-0.1,206.36755,322.18244)"
             id="g8">
            <defs
               id="defs7">
              <path
                 id="DejaVuSans-32"
                 d="M 1228,531 H 3431 V 0 H 469 v 531 q 359,372 979,998 621,627 780,809 303,340 423,576 121,236 121,464 0,372 -261,606 -261,235 -680,235 -297,0 -627,-103 -329,-103 -704,-313 v 638 q 381,153 712,231 332,78 607,78 725,0 1156,-363 431,-362 431,-968 0,-288 -108,-546 -107,-257 -392,-607 -78,-91 -497,-524 Q 1991,1309 1228,531 Z"
                 transform="scale(0.015625)" />
            </defs>
            <use
               xlink:href="#DejaVuSans-32"
               id="use8" />
          </g>
        </g>
      </g>
      <g
         id="xtick_4">
        <g
           id="line2d_7">
          <path
             d="M 262.7712,307.584 V 41.472"
             clip-path="url(#pe0c8fe5c84)"
             style="fill:none;stroke:#b0b0b0;stroke-width:0.8;stroke-linecap:square"
             id="path8" />
        </g>
        <g
           id="line2d_8">
          <g
             id="g9">
            <use
               xlink:href="#m40bf25d29f"
               x="262.77121"
               y="307.58401"
               style="stroke:#000000;stroke-width:0.8"
               id="use9" />
          </g>
        </g>
        <g
           id="text_4">
          <!-- 3 -->
          <g
             transform="matrix(0.1,0,0,-0.1,259.58995,322.18244)"
             id="g10">
            <defs
               id="defs9">
              <path
                 id="DejaVuSans-33"
                 d="m 2597,2516 q 453,-97 707,-404 255,-306 255,-756 0,-690 -475,-1069 -475,-378 -1350,-378 -293,0 -604,58 -311,58 -642,174 v 609 q 262,-153 574,-231 313,-78 654,-78 593,0 904,234 311,234 311,681 0,413 -289,645 -289,233 -804,233 h -544 v 519 h 569 q 465,0 712,186 247,186 247,536 0,359 -255,551 -254,193 -729,193 -260,0 -557,-57 -297,-56 -653,-174 v 562 q 360,100 674,150 314,50 592,50 719,0 1137,-327 419,-326 419,-882 0,-388 -222,-655 -222,-267 -631,-370 z"
                 transform="scale(0.015625)" />
            </defs>
            <use
               xlink:href="#DejaVuSans-33"
               id="use10" />
          </g>
        </g>
      </g>
      <g
         id="xtick_5">
        <g
           id="line2d_9">
          <path
             d="M 315.9936,307.584 V 41.472"
             clip-path="url(#pe0c8fe5c84)"
             style="fill:none;stroke:#b0b0b0;stroke-width:0.8;stroke-linecap:square"
             id="path10" />
        </g>
        <g
           id="line2d_10">
          <g
             id="g11">
            <use
               xlink:href="#m40bf25d29f"
               x="315.99359"
               y="307.58401"
               style="stroke:#000000;stroke-width:0.8"
               id="use11" />
          </g>
        </g>
        <g
           id="text_5">
          <!-- 4 -->
          <g
             transform="matrix(0.1,0,0,-0.1,312.81235,322.18244)"
             id="g12">
            <defs
               id="defs11">
              <path
                 id="DejaVuSans-34"
                 d="M 2419,4116 825,1625 h 1594 z m -166,550 h 794 V 1625 h 666 V 1100 H 3047 V 0 H 2419 V 1100 H 313 v 609 z"
                 transform="scale(0.015625)" />
            </defs>
            <use
               xlink:href="#DejaVuSans-34"
               id="use12" />
          </g>
        </g>
      </g>
      <g
         id="xtick_6">
        <g
           id="line2d_11">
          <path
             d="M 369.216,307.584 V 41.472"
             clip-path="url(#pe0c8fe5c84)"
             style="fill:none;stroke:#b0b0b0;stroke-width:0.8;stroke-linecap:square"
             id="path12" />
        </g>
        <g
           id="line2d_12">
          <g
             id="g13">
            <use
               xlink:href="#m40bf25d29f"
               x="369.216"
               y="307.58401"
               style="stroke:#000000;stroke-width:0.8"
               id="use13" />
          </g>
        </g>
        <g
           id="text_6">
          <!-- 5 -->
          <g
             transform="matrix(0.1,0,0,-0.1,366.03475,322.18244)"
             id="g14">
            <defs
               id="defs13">
              <path
                 id="DejaVuSans-35"
                 d="M 691,4666 H 3169 V 4134 H 1269 V 2991 q 137,47 274,70 138,23 276,23 781,0 1237,-428 457,-428 457,-1159 Q 3513,744 3044,326 2575,-91 1722,-91 1428,-91 1123,-41 819,9 494,109 v 635 q 281,-153 581,-228 300,-75 634,-75 541,0 856,284 316,284 316,772 0,487 -316,771 -315,285 -856,285 -253,0 -505,-56 -251,-56 -513,-175 z"
                 transform="scale(0.015625)" />
            </defs>
            <use
               xlink:href="#DejaVuSans-35"
               id="use14" />
          </g>
        </g>
      </g>
    </g>
    <g
       id="matplotlib.axis_2">
      <g
         id="ytick_1">
        <g
           id="line2d_13">
          <path
             d="M 103.104,307.584 H 369.216"
             clip-path="url(#pe0c8fe5c84)"
             style="fill:none;stroke:#b0b0b0;stroke-width:0.8;stroke-linecap:square"
             id="path14" />
        </g>
        <g
           id="line2d_14">
          <defs
             id="defs14">
            <path
               id="m06b7e8e442"
               d="M 0,0 H -3.5"
               style="stroke:#000000;stroke-width:0.8" />
          </defs>
          <g
             id="g15">
            <use
               xlink:href="#m06b7e8e442"
               x="103.104"
               y="307.58401"
               style="stroke:#000000;stroke-width:0.8"
               id="use15" />
          </g>
        </g>
        <g
           id="text_7">
          <!-- 0 -->
          <g
             transform="matrix(0.1,0,0,-0.1,89.7415,311.38322)"
             id="g16">
            <use
               xlink:href="#DejaVuSans-30"
               id="use16" />
          </g>
        </g>
      </g>
      <g
         id="ytick_2">
        <g
           id="line2d_15">
          <path
             d="M 103.104,254.3616 H 369.216"
             clip-path="url(#pe0c8fe5c84)"
             style="fill:none;stroke:#b0b0b0;stroke-width:0.8;stroke-linecap:square"
             id="path16" />
        </g>
        <g
           id="line2d_16">
          <g
             id="g17">
            <use
               xlink:href="#m06b7e8e442"
               x="103.104"
               y="254.3616"
               style="stroke:#000000;stroke-width:0.8"
               id="use17" />
          </g>
        </g>
        <g
           id="text_8">
          <!-- 1 -->
          <g
             transform="matrix(0.1,0,0,-0.1,89.7415,258.16082)"
             id="g18">
            <use
               xlink:href="#DejaVuSans-31"
               id="use18" />
          </g>
        </g>
      </g>
      <g
         id="ytick_3">
        <g
           id="line2d_17">
          <path
             d="M 103.104,201.1392 H 369.216"
             clip-path="url(#pe0c8fe5c84)"
             style="fill:none;stroke:#b0b0b0;stroke-width:0.8;stroke-linecap:square"
             id="path18" />
        </g>
        <g
           id="line2d_18">
          <g
             id="g19">
            <use
               xlink:href="#m06b7e8e442"
               x="103.104"
               y="201.13921"
               style="stroke:#000000;stroke-width:0.8"
               id="use19" />
          </g>
        </g>
        <g
           id="text_9">
          <!-- 2 -->
          <g
             transform="matrix(0.1,0,0,-0.1,89.7415,204.93842)"
             id="g20">
            <use
               xlink:href="#DejaVuSans-32"
               id="use20" />
          </g>
        </g>
      </g>
      <g
         id="ytick_4">
        <g
           id="line2d_19">
          <path
             d="M 103.104,147.9168 H 369.216"
             clip-path="url(#pe0c8fe5c84)"
             style="fill:none;stroke:#b0b0b0;stroke-width:0.8;stroke-linecap:square"
             id="path20" />
        </g>
        <g
           id="line2d_20">
          <g
             id="g21">
            <use
               xlink:href="#m06b7e8e442"
               x="103.104"
               y="147.91679"
               style="stroke:#000000;stroke-width:0.8"
               id="use21" />
          </g>
        </g>
        <g
           id="text_10">
          <!-- 3 -->
          <g
             transform="matrix(0.1,0,0,-0.1,89.7415,151.71602)"
             id="g22">
            <use
               xlink:href="#DejaVuSans-33"
               id="use22" />
          </g>
        </g>
      </g>
      <g
         id="ytick_5">
        <g
           id="line2d_21">
          <path
             d="M 103.104,94.6944 H 369.216"
             clip-path="url(#pe0c8fe5c84)"
             style="fill:none;stroke:#b0b0b0;stroke-width:0.8;stroke-linecap:square"
             id="path22" />
        </g>
        <g
           id="line2d_22">
          <g
             id="g23">
            <use
               xlink:href="#m06b7e8e442"
               x="103.104"
               y="94.694397"
               style="stroke:#000000;stroke-width:0.8"
               id="use23" />
          </g>
        </g>
        <g
           id="text_11">
          <!-- 4 -->
          <g
             transform="matrix(0.1,0,0,-0.1,89.7415,98.493619)"
             id="g24">
            <use
               xlink:href="#DejaVuSans-34"
               id="use24" />
          </g>
        </g>
      </g>
      <g
         id="ytick_6">
        <g
           id="line2d_23">
          <path
             d="M 103.104,41.472 H 369.216"
             clip-path="url(#pe0c8fe5c84)"
             style="fill:none;stroke:#b0b0b0;stroke-width:0.8;stroke-linecap:square"
             id="path24" />
        </g>
        <g
           id="line2d_24">
          <g
             id="g25">
            <use
               xlink:href="#m06b7e8e442"
               x="103.104"
               y="41.472"
               style="stroke:#000000;stroke-width:0.8"
               id="use25" />
          </g>
        </g>
        <g
           id="text_12">
          <!-- 5 -->
          <g
             transform="matrix(0.1,0,0,-0.1,89.7415,45.271219)"
             id="g26">
            <use
               xlink:href="#DejaVuSans-35"
               id="use26" />
          </g>
        </g>
      </g>
    </g>
    <g
       id="patch_3">
      <path
         d="M 103.104,307.584 V 41.472"
         style="fill:none;stroke:#000000;stroke-width:0.8;stroke-linecap:square;stroke-linejoin:miter"
         id="path26" />
    </g>
    <g
       id="patch_4">
      <path
         d="M 369.216,307.584 V 41.472"
         style="fill:none;stroke:#000000;stroke-width:0.8;stroke-linecap:square;stroke-linejoin:miter"
         id="path27" />
    </g>
    <g
       id="patch_5">
      <path
         d="M 103.104,307.584 H 369.216"
         style="fill:none;stroke:#000000;stroke-width:0.8;stroke-linecap:square;stroke-linejoin:miter"
         id="path28" />
    </g>
    <g
       id="patch_6">
      <path
         d="M 103.104,41.472 H 369.216"
         style="fill:none;stroke:#000000;stroke-width:0.8;stroke-linecap:square;stroke-linejoin:miter"
         id="path29" />
    </g>
    <g
       id="patch_7">
      <path
         d="m 368.15156,232.7143 -55.33723,73.80525 h 55.33721 z"
         clip-path="url(#pe0c8fe5c84)"
         style="fill:#e0ffff;stroke:#000000;stroke-linejoin:miter"
         id="path30" />
    </g>
    <g
       id="patch_8">
      <path
         d="m 157.39085,58.865496 146.89382,3.282719 10e-6,-19.611767 H 157.39085 Z"
         clip-path="url(#pe0c8fe5c84)"
         style="fill:#e0ffff;stroke:#000000;stroke-linejoin:miter"
         id="path31" />
    </g>
    <g
       id="patch_9">
      <path
         d="M 157.39085,61.696512 H 304.28467 V 42.53645 l -146.89382,-2e-6 z"
         clip-path="url(#pe0c8fe5c84)"
         style="fill:#e0ffff;stroke:#000000;stroke-linejoin:miter"
         id="path32" />
    </g>
    <g
       id="patch_10">
      <path
         d="m 157.39085,297.53473 19.16006,8.92986 V 42.536446 l -19.16006,3e-6 z"
         clip-path="url(#pe0c8fe5c84)"
         style="fill:#e0ffff;stroke:#000000;stroke-linejoin:miter"
         id="path33" />
    </g>
    <g
       id="patch_11">
      <path
         d="m 157.39085,197.4427 72.41477,-28.9828 -2.05215,-8.83416 -70.36262,-2e-5 z"
         clip-path="url(#pe0c8fe5c84)"
         style="fill:#e0ffff;stroke:#000000;stroke-linejoin:miter"
         id="path34" />
    </g>
    <g
       id="patch_12">
      <path
         d="M 315.18245,306.51955 157.39085,175.02656 v 131.49299 z"
         clip-path="url(#pe0c8fe5c84)"
         style="fill:#e0ffff;stroke:#000000;stroke-linejoin:miter"
         id="path35" />
    </g>
    <g
       id="patch_13">
      <path
         d="m 300.6651,42.536436 -15.54049,1.4e-5 v 126.2284 l 18.6244,18.62441 0.74543,-33.34596 z"
         clip-path="url(#pe0c8fe5c84)"
         style="fill:#e0ffff;stroke:#000000;stroke-linejoin:miter"
         id="path36" />
    </g>
    <g
       id="patch_14">
      <path
         d="m 286.62993,170.27021 81.52162,81.52156 v -81.52156 z"
         clip-path="url(#pe0c8fe5c84)"
         style="fill:#e0ffff;stroke:#000000;stroke-linejoin:miter"
         id="path37" />
    </g>
    <g
       id="patch_15">
      <path
         d="m 285.12461,168.76485 68.16067,68.16067 -68.16067,-93.71783 z"
         clip-path="url(#pe0c8fe5c84)"
         style="fill:#e0ffff;stroke:#000000;stroke-linejoin:miter"
         id="path38" />
    </g>
    <g
       id="patch_16">
      <path
         d="m 286.62995,170.27021 81.5216,81.52156 v -81.52156 z"
         clip-path="url(#pe0c8fe5c84)"
         style="fill:#e0ffff;stroke:#000000;stroke-linejoin:miter"
         id="path39" />
    </g>
    <g
       id="patch_17">
      <path
         d="m 338.34701,157.49683 h 29.80454 V 42.536448 h -29.80454 z"
         clip-path="url(#pe0c8fe5c84)"
         style="fill:#e0ffff;stroke:#000000;stroke-linejoin:miter"
         id="path40" />
    </g>
    <g
       id="patch_18">
      <path
         d="m 123.32851,42.536418 -19.16006,5.6e-5 V 306.51955 h 19.16006 z"
         clip-path="url(#pe0c8fe5c84)"
         style="fill:#e0ffff;stroke:#000000;stroke-linejoin:miter"
         id="path41" />
    </g>
    <g
       id="patch_19">
      <path
         d="m 221.25772,42.536443 1e-5,129.344607 8.51558,-3.40822 V 42.536462 Z"
         clip-path="url(#pe0c8fe5c84)"
         style="fill:#e0ffff;stroke:#000000;stroke-linejoin:miter"
         id="path42" />
    </g>
    <g
       id="patch_20">
      <path
         d="m 104.16843,181.77681 125.60482,-18.64823 1.9e-4,-3.89925 -125.60493,18.90197 z"
         clip-path="url(#pe0c8fe5c84)"
         style="fill:#e0ffff;stroke:#000000;stroke-linejoin:miter"
         id="path43" />
    </g>
    <g
       id="patch_21">
      <path
         d="m 106.75833,178.78579 h 97.2476 l 25.76738,-10.31296 v -9.98249 l -15.3213,1.82789 z"
         clip-path="url(#pe0c8fe5c84)"
         style="fill:#e0ffff;stroke:#000000;stroke-linejoin:miter"
         id="path44" />
    </g>
    <g
       id="patch_22">
      <path
         d="m 297.27446,306.51954 70.87709,4e-5 v -70.87714 z"
         clip-path="url(#pe0c8fe5c84)"
         style="fill:#e0ffff;stroke:#000000;stroke-linejoin:miter"
         id="path45" />
    </g>
    <g
       id="patch_23">
      <path
         d="m 225.28248,170.27021 h -120.7486 l 1.57072,1.15648 85.15846,12.45922 z"
         clip-path="url(#pe0c8fe5c84)"
         style="fill:#e0ffff;stroke:#000000;stroke-linejoin:miter"
         id="path46" />
    </g>
    <g
       id="patch_24">
      <path
         d="M 315.18246,306.51957 157.39085,175.02656 v 131.49297 z"
         clip-path="url(#pe0c8fe5c84)"
         style="fill:#e0ffff;stroke:#000000;stroke-linejoin:miter"
         id="path47" />
    </g>
    <g
       id="patch_25">
      <path
         d="m 104.16845,178.78579 h 24.42768 l -24.42768,-43.12486 z"
         clip-path="url(#pe0c8fe5c84)"
         style="fill:#e0ffff;stroke:#000000;stroke-linejoin:miter"
         id="path48" />
    </g>
    <g
       id="patch_26">
      <path
         d="m 157.39083,61.696509 146.89384,6e-6 V 42.536448 h -146.8938 z"
         clip-path="url(#pe0c8fe5c84)"
         style="fill:#e0ffff;stroke:#000000;stroke-linejoin:miter"
         id="path49" />
    </g>
    <g
       id="patch_27">
      <path
         d="m 157.29022,306.51955 h 19.26069 V 42.536447 l -19.06723,2e-6 z"
         clip-path="url(#pe0c8fe5c84)"
         style="fill:#e0ffff;stroke:#000000;stroke-linejoin:miter"
         id="path50" />
    </g>
    <g
       id="patch_28">
      <path
         d="M 157.39085,306.51955 H 315.18246 L 157.39085,175.02659 Z"
         clip-path="url(#pe0c8fe5c84)"
         style="fill:#e0ffff;stroke:#000000;stroke-linejoin:miter"
         id="path51" />
    </g>
    <g
       id="patch_29">
      <path
         d="m 297.2744,306.51961 70.87715,-1.3e-4 v -70.87704 z"
         clip-path="url(#pe0c8fe5c84)"
         style="fill:#e0ffff;stroke:#000000;stroke-linejoin:miter"
         id="path52" />
    </g>
    <g
       id="patch_30">
      <path
         d="m 286.62994,170.27021 81.52161,81.52154 v -81.52154 z"
         clip-path="url(#pe0c8fe5c84)"
         style="fill:#e0ffff;stroke:#000000;stroke-linejoin:miter"
         id="path53" />
    </g>
    <g
       id="patch_31">
      <path
         d="M 123.83289,280.0723 122.75221,42.536448 H 104.16845 V 306.51955 h 17.47697 z"
         clip-path="url(#pe0c8fe5c84)"
         style="fill:#e0ffff;stroke:#000000;stroke-linejoin:miter"
         id="path54" />
    </g>
    <g
       id="patch_32">
      <path
         d="m 285.12461,148.98125 v 8.51558 h 83.02694 v -8.51558 z"
         clip-path="url(#pe0c8fe5c84)"
         style="fill:#e0ffff;stroke:#000000;stroke-linejoin:miter"
         id="path55" />
    </g>
    <g
       id="patch_33">
      <path
         d="m 304.28468,42.536456 -19.16007,-1.8e-5 V 168.76495 l 19.16006,19.15988 z"
         clip-path="url(#pe0c8fe5c84)"
         style="fill:#e0ffff;stroke:#000000;stroke-linejoin:miter"
         id="path56" />
    </g>
    <g
       id="patch_34">
      <path
         d="m 368.15155,42.536445 -29.80454,6e-6 V 157.49682 l 29.80454,2e-5 z"
         clip-path="url(#pe0c8fe5c84)"
         style="fill:#e0ffff;stroke:#000000;stroke-linejoin:miter"
         id="path57" />
    </g>
    <g
       id="patch_35">
      <path
         d="m 157.39083,306.51955 h 19.1601 l -3e-5,-263.983095 -19.16004,-1.5e-5 z"
         clip-path="url(#pe0c8fe5c84)"
         style="fill:#e0ffff;stroke:#000000;stroke-linejoin:miter"
         id="path58" />
    </g>
    <g
       id="patch_36">
      <path
         d="m 368.15158,235.64238 -70.87711,70.87717 h 70.87705 z"
         clip-path="url(#pe0c8fe5c84)"
         style="fill:#e0ffff;stroke:#000000;stroke-linejoin:miter"
         id="path59" />
    </g>
    <g
       id="patch_37">
      <path
         d="M 188.66136,62.191226 304.28467,60.834805 V 42.536449 l -146.89382,-2e-6 v 14.75287 z"
         clip-path="url(#pe0c8fe5c84)"
         style="fill:#e0ffff;stroke:#000000;stroke-linejoin:miter"
         id="path60" />
    </g>
    <g
       id="patch_38">
      <path
         d="m 123.78996,241.11696 -1.27434,-198.580515 -18.34717,6e-6 -1e-5,263.983099 h 16.88233 z"
         clip-path="url(#pe0c8fe5c84)"
         style="fill:#e0ffff;stroke:#000000;stroke-linejoin:miter"
         id="path61" />
    </g>
    <g
       id="patch_39">
      <path
         d="M 157.39085,306.51955 H 315.18242 L 157.39085,175.02654 Z"
         clip-path="url(#pe0c8fe5c84)"
         style="fill:#e0ffff;stroke:#000000;stroke-linejoin:miter"
         id="path62" />
    </g>
  </g>
  <defs
     id="defs62">
    <clipPath
       id="pe0c8fe5c84">
      <rect
         x="103.104"
         y="41.472"
         width="266.112"
         height="266.112"
         id="rect62" />
    </clipPath>
  </defs>
</svg>
