<?xml version="1.0" encoding="UTF-8" standalone="no"?>
<svg
   width="347.82126pt"
   height="350.87204pt"
   viewBox="0 0 347.82126 350.87204"
   version="1.1"
   id="svg38"
   sodipodi:docname="gcs_simple_2d_fifth_order_min_time.svg"
   inkscape:version="1.3.2 (091e20e, 2023-11-25)"
   xmlns:inkscape="http://www.inkscape.org/namespaces/inkscape"
   xmlns:sodipodi="http://sodipodi.sourceforge.net/DTD/sodipodi-0.dtd"
   xmlns:xlink="http://www.w3.org/1999/xlink"
   xmlns="http://www.w3.org/2000/svg"
   xmlns:svg="http://www.w3.org/2000/svg"
   xmlns:rdf="http://www.w3.org/1999/02/22-rdf-syntax-ns#"
   xmlns:cc="http://creativecommons.org/ns#"
   xmlns:dc="http://purl.org/dc/elements/1.1/">
  <sodipodi:namedview
     id="namedview38"
     pagecolor="#ffffff"
     bordercolor="#000000"
     borderopacity="0.25"
     inkscape:showpageshadow="2"
     inkscape:pageopacity="0.0"
     inkscape:pagecheckerboard="0"
     inkscape:deskcolor="#d1d1d1"
     inkscape:document-units="pt"
     inkscape:zoom="0.40972222"
     inkscape:cx="230.64407"
     inkscape:cy="224.54237"
     inkscape:window-width="1312"
     inkscape:window-height="449"
     inkscape:window-x="0"
     inkscape:window-y="38"
     inkscape:window-maximized="0"
     inkscape:current-layer="svg38" />
  <metadata
     id="metadata1">
    <rdf:RDF>
      <cc:Work>
        <dc:type
           rdf:resource="http://purl.org/dc/dcmitype/StillImage" />
        <dc:date>2024-08-21T05:01:56.971257</dc:date>
        <dc:format>image/svg+xml</dc:format>
        <dc:creator>
          <cc:Agent>
            <dc:title>Matplotlib v3.9.2, https://matplotlib.org/</dc:title>
          </cc:Agent>
        </dc:creator>
      </cc:Work>
    </rdf:RDF>
  </metadata>
  <defs
     id="defs1">
    <style
       type="text/css"
       id="style1">*{stroke-linejoin: round; stroke-linecap: butt}</style>
  </defs>
  <g
     id="axes_1"
     transform="translate(-42.206562,-48.348594)">
    <g
       id="patch_2">
      <path
         d="M 55.08,384.48 H 387.72 V 51.84 H 55.08 Z"
         style="fill:#ffffff"
         id="path2" />
    </g>
    <g
       id="matplotlib.axis_1">
      <g
         id="xtick_1">
        <g
           id="line2d_1">
          <path
             d="M 55.08,384.48 V 51.84"
             clip-path="url(#pccd3ae6932)"
             style="fill:none;stroke:#b0b0b0;stroke-width:0.8;stroke-linecap:square"
             id="path3" />
        </g>
        <g
           id="line2d_2">
          <defs
             id="defs3">
            <path
               id="mc8e2645f44"
               d="M 0,0 V 3.5"
               style="stroke:#000000;stroke-width:0.8" />
          </defs>
          <g
             id="g3">
            <use
               xlink:href="#mc8e2645f44"
               x="55.080002"
               y="384.48001"
               style="stroke:#000000;stroke-width:0.8"
               id="use3" />
          </g>
        </g>
        <g
           id="text_1">
          <!-- 0 -->
          <g
             transform="matrix(0.1,0,0,-0.1,51.89875,399.07844)"
             id="g4">
            <defs
               id="defs4">
              <path
                 id="DejaVuSans-30"
                 d="m 2034,4250 q -487,0 -733,-480 -245,-479 -245,-1442 0,-959 245,-1439 246,-480 733,-480 491,0 736,480 246,480 246,1439 0,963 -246,1442 -245,480 -736,480 z m 0,500 q 785,0 1199,-621 414,-620 414,-1801 0,-1178 -414,-1799 -414,-620 -1199,-620 -784,0 -1198,620 -414,621 -414,1799 0,1181 414,1801 414,621 1198,621 z"
                 transform="scale(0.015625)" />
            </defs>
            <use
               xlink:href="#DejaVuSans-30"
               id="use4" />
          </g>
        </g>
      </g>
      <g
         id="xtick_2">
        <g
           id="line2d_3">
          <path
             d="M 121.608,384.48 V 51.84"
             clip-path="url(#pccd3ae6932)"
             style="fill:none;stroke:#b0b0b0;stroke-width:0.8;stroke-linecap:square"
             id="path4" />
        </g>
        <g
           id="line2d_4">
          <g
             id="g5">
            <use
               xlink:href="#mc8e2645f44"
               x="121.608"
               y="384.48001"
               style="stroke:#000000;stroke-width:0.8"
               id="use5" />
          </g>
        </g>
        <g
           id="text_2">
          <!-- 1 -->
          <g
             transform="matrix(0.1,0,0,-0.1,118.42675,399.07844)"
             id="g6">
            <defs
               id="defs5">
              <path
                 id="DejaVuSans-31"
                 d="M 794,531 H 1825 V 4091 L 703,3866 v 575 l 1116,225 h 631 V 531 H 3481 V 0 H 794 Z"
                 transform="scale(0.015625)" />
            </defs>
            <use
               xlink:href="#DejaVuSans-31"
               id="use6" />
          </g>
        </g>
      </g>
      <g
         id="xtick_3">
        <g
           id="line2d_5">
          <path
             d="M 188.136,384.48 V 51.84"
             clip-path="url(#pccd3ae6932)"
             style="fill:none;stroke:#b0b0b0;stroke-width:0.8;stroke-linecap:square"
             id="path6" />
        </g>
        <g
           id="line2d_6">
          <g
             id="g7">
            <use
               xlink:href="#mc8e2645f44"
               x="188.136"
               y="384.48001"
               style="stroke:#000000;stroke-width:0.8"
               id="use7" />
          </g>
        </g>
        <g
           id="text_3">
          <!-- 2 -->
          <g
             transform="matrix(0.1,0,0,-0.1,184.95475,399.07844)"
             id="g8">
            <defs
               id="defs7">
              <path
                 id="DejaVuSans-32"
                 d="M 1228,531 H 3431 V 0 H 469 v 531 q 359,372 979,998 621,627 780,809 303,340 423,576 121,236 121,464 0,372 -261,606 -261,235 -680,235 -297,0 -627,-103 -329,-103 -704,-313 v 638 q 381,153 712,231 332,78 607,78 725,0 1156,-363 431,-362 431,-968 0,-288 -108,-546 -107,-257 -392,-607 -78,-91 -497,-524 Q 1991,1309 1228,531 Z"
                 transform="scale(0.015625)" />
            </defs>
            <use
               xlink:href="#DejaVuSans-32"
               id="use8" />
          </g>
        </g>
      </g>
      <g
         id="xtick_4">
        <g
           id="line2d_7">
          <path
             d="M 254.664,384.48 V 51.84"
             clip-path="url(#pccd3ae6932)"
             style="fill:none;stroke:#b0b0b0;stroke-width:0.8;stroke-linecap:square"
             id="path8" />
        </g>
        <g
           id="line2d_8">
          <g
             id="g9">
            <use
               xlink:href="#mc8e2645f44"
               x="254.664"
               y="384.48001"
               style="stroke:#000000;stroke-width:0.8"
               id="use9" />
          </g>
        </g>
        <g
           id="text_4">
          <!-- 3 -->
          <g
             transform="matrix(0.1,0,0,-0.1,251.48275,399.07844)"
             id="g10">
            <defs
               id="defs9">
              <path
                 id="DejaVuSans-33"
                 d="m 2597,2516 q 453,-97 707,-404 255,-306 255,-756 0,-690 -475,-1069 -475,-378 -1350,-378 -293,0 -604,58 -311,58 -642,174 v 609 q 262,-153 574,-231 313,-78 654,-78 593,0 904,234 311,234 311,681 0,413 -289,645 -289,233 -804,233 h -544 v 519 h 569 q 465,0 712,186 247,186 247,536 0,359 -255,551 -254,193 -729,193 -260,0 -557,-57 -297,-56 -653,-174 v 562 q 360,100 674,150 314,50 592,50 719,0 1137,-327 419,-326 419,-882 0,-388 -222,-655 -222,-267 -631,-370 z"
                 transform="scale(0.015625)" />
            </defs>
            <use
               xlink:href="#DejaVuSans-33"
               id="use10" />
          </g>
        </g>
      </g>
      <g
         id="xtick_5">
        <g
           id="line2d_9">
          <path
             d="M 321.192,384.48 V 51.84"
             clip-path="url(#pccd3ae6932)"
             style="fill:none;stroke:#b0b0b0;stroke-width:0.8;stroke-linecap:square"
             id="path10" />
        </g>
        <g
           id="line2d_10">
          <g
             id="g11">
            <use
               xlink:href="#mc8e2645f44"
               x="321.19199"
               y="384.48001"
               style="stroke:#000000;stroke-width:0.8"
               id="use11" />
          </g>
        </g>
        <g
           id="text_5">
          <!-- 4 -->
          <g
             transform="matrix(0.1,0,0,-0.1,318.01075,399.07844)"
             id="g12">
            <defs
               id="defs11">
              <path
                 id="DejaVuSans-34"
                 d="M 2419,4116 825,1625 h 1594 z m -166,550 h 794 V 1625 h 666 V 1100 H 3047 V 0 H 2419 V 1100 H 313 v 609 z"
                 transform="scale(0.015625)" />
            </defs>
            <use
               xlink:href="#DejaVuSans-34"
               id="use12" />
          </g>
        </g>
      </g>
      <g
         id="xtick_6">
        <g
           id="line2d_11">
          <path
             d="M 387.72,384.48 V 51.84"
             clip-path="url(#pccd3ae6932)"
             style="fill:none;stroke:#b0b0b0;stroke-width:0.8;stroke-linecap:square"
             id="path12" />
        </g>
        <g
           id="line2d_12">
          <g
             id="g13">
            <use
               xlink:href="#mc8e2645f44"
               x="387.72"
               y="384.48001"
               style="stroke:#000000;stroke-width:0.8"
               id="use13" />
          </g>
        </g>
        <g
           id="text_6">
          <!-- 5 -->
          <g
             transform="matrix(0.1,0,0,-0.1,384.53875,399.07844)"
             id="g14">
            <defs
               id="defs13">
              <path
                 id="DejaVuSans-35"
                 d="M 691,4666 H 3169 V 4134 H 1269 V 2991 q 137,47 274,70 138,23 276,23 781,0 1237,-428 457,-428 457,-1159 Q 3513,744 3044,326 2575,-91 1722,-91 1428,-91 1123,-41 819,9 494,109 v 635 q 281,-153 581,-228 300,-75 634,-75 541,0 856,284 316,284 316,772 0,487 -316,771 -315,285 -856,285 -253,0 -505,-56 -251,-56 -513,-175 z"
                 transform="scale(0.015625)" />
            </defs>
            <use
               xlink:href="#DejaVuSans-35"
               id="use14" />
          </g>
        </g>
      </g>
    </g>
    <g
       id="matplotlib.axis_2">
      <g
         id="ytick_1">
        <g
           id="line2d_13">
          <path
             d="M 55.08,384.48 H 387.72"
             clip-path="url(#pccd3ae6932)"
             style="fill:none;stroke:#b0b0b0;stroke-width:0.8;stroke-linecap:square"
             id="path14" />
        </g>
        <g
           id="line2d_14">
          <defs
             id="defs14">
            <path
               id="mfe06d96456"
               d="M 0,0 H -3.5"
               style="stroke:#000000;stroke-width:0.8" />
          </defs>
          <g
             id="g15">
            <use
               xlink:href="#mfe06d96456"
               x="55.080002"
               y="384.48001"
               style="stroke:#000000;stroke-width:0.8"
               id="use15" />
          </g>
        </g>
        <g
           id="text_7">
          <!-- 0 -->
          <g
             transform="matrix(0.1,0,0,-0.1,41.7175,388.27922)"
             id="g16">
            <use
               xlink:href="#DejaVuSans-30"
               id="use16" />
          </g>
        </g>
      </g>
      <g
         id="ytick_2">
        <g
           id="line2d_15">
          <path
             d="M 55.08,317.952 H 387.72"
             clip-path="url(#pccd3ae6932)"
             style="fill:none;stroke:#b0b0b0;stroke-width:0.8;stroke-linecap:square"
             id="path16" />
        </g>
        <g
           id="line2d_16">
          <g
             id="g17">
            <use
               xlink:href="#mfe06d96456"
               x="55.080002"
               y="317.952"
               style="stroke:#000000;stroke-width:0.8"
               id="use17" />
          </g>
        </g>
        <g
           id="text_8">
          <!-- 1 -->
          <g
             transform="matrix(0.1,0,0,-0.1,41.7175,321.75122)"
             id="g18">
            <use
               xlink:href="#DejaVuSans-31"
               id="use18" />
          </g>
        </g>
      </g>
      <g
         id="ytick_3">
        <g
           id="line2d_17">
          <path
             d="M 55.08,251.424 H 387.72"
             clip-path="url(#pccd3ae6932)"
             style="fill:none;stroke:#b0b0b0;stroke-width:0.8;stroke-linecap:square"
             id="path18" />
        </g>
        <g
           id="line2d_18">
          <g
             id="g19">
            <use
               xlink:href="#mfe06d96456"
               x="55.080002"
               y="251.424"
               style="stroke:#000000;stroke-width:0.8"
               id="use19" />
          </g>
        </g>
        <g
           id="text_9">
          <!-- 2 -->
          <g
             transform="matrix(0.1,0,0,-0.1,41.7175,255.22322)"
             id="g20">
            <use
               xlink:href="#DejaVuSans-32"
               id="use20" />
          </g>
        </g>
      </g>
      <g
         id="ytick_4">
        <g
           id="line2d_19">
          <path
             d="M 55.08,184.896 H 387.72"
             clip-path="url(#pccd3ae6932)"
             style="fill:none;stroke:#b0b0b0;stroke-width:0.8;stroke-linecap:square"
             id="path20" />
        </g>
        <g
           id="line2d_20">
          <g
             id="g21">
            <use
               xlink:href="#mfe06d96456"
               x="55.080002"
               y="184.896"
               style="stroke:#000000;stroke-width:0.8"
               id="use21" />
          </g>
        </g>
        <g
           id="text_10">
          <!-- 3 -->
          <g
             transform="matrix(0.1,0,0,-0.1,41.7175,188.69522)"
             id="g22">
            <use
               xlink:href="#DejaVuSans-33"
               id="use22" />
          </g>
        </g>
      </g>
      <g
         id="ytick_5">
        <g
           id="line2d_21">
          <path
             d="M 55.08,118.368 H 387.72"
             clip-path="url(#pccd3ae6932)"
             style="fill:none;stroke:#b0b0b0;stroke-width:0.8;stroke-linecap:square"
             id="path22" />
        </g>
        <g
           id="line2d_22">
          <g
             id="g23">
            <use
               xlink:href="#mfe06d96456"
               x="55.080002"
               y="118.368"
               style="stroke:#000000;stroke-width:0.8"
               id="use23" />
          </g>
        </g>
        <g
           id="text_11">
          <!-- 4 -->
          <g
             transform="matrix(0.1,0,0,-0.1,41.7175,122.16722)"
             id="g24">
            <use
               xlink:href="#DejaVuSans-34"
               id="use24" />
          </g>
        </g>
      </g>
      <g
         id="ytick_6">
        <g
           id="line2d_23">
          <path
             d="M 55.08,51.84 H 387.72"
             clip-path="url(#pccd3ae6932)"
             style="fill:none;stroke:#b0b0b0;stroke-width:0.8;stroke-linecap:square"
             id="path24" />
        </g>
        <g
           id="line2d_24">
          <g
             id="g25">
            <use
               xlink:href="#mfe06d96456"
               x="55.080002"
               y="51.84"
               style="stroke:#000000;stroke-width:0.8"
               id="use25" />
          </g>
        </g>
        <g
           id="text_12">
          <!-- 5 -->
          <g
             transform="matrix(0.1,0,0,-0.1,41.7175,55.639219)"
             id="g26">
            <use
               xlink:href="#DejaVuSans-35"
               id="use26" />
          </g>
        </g>
      </g>
    </g>
    <g
       id="line2d_25">
      <defs
         id="defs26">
        <path
           id="mecb052da64"
           d="m -3,3 6,-6 m -6,0 6,6"
           style="stroke:#000000" />
      </defs>
      <g
         clip-path="url(#pccd3ae6932)"
         id="g27">
        <use
           xlink:href="#mecb052da64"
           x="68.385597"
           y="371.17441"
           style="stroke:#000000"
           id="use27" />
      </g>
    </g>
    <g
       id="line2d_26">
      <g
         clip-path="url(#pccd3ae6932)"
         id="g28">
        <use
           xlink:href="#mecb052da64"
           x="374.4144"
           y="65.145599"
           style="stroke:#000000"
           id="use28" />
      </g>
    </g>
    <g
       id="patch_3">
      <path
         d="M 55.08,384.48 V 51.84"
         style="fill:none;stroke:#000000;stroke-width:0.8;stroke-linecap:square;stroke-linejoin:miter"
         id="path28" />
    </g>
    <g
       id="patch_4">
      <path
         d="M 387.72,384.48 V 51.84"
         style="fill:none;stroke:#000000;stroke-width:0.8;stroke-linecap:square;stroke-linejoin:miter"
         id="path29" />
    </g>
    <g
       id="patch_5">
      <path
         d="M 55.08,384.48 H 387.72"
         style="fill:none;stroke:#000000;stroke-width:0.8;stroke-linecap:square;stroke-linejoin:miter"
         id="path30" />
    </g>
    <g
       id="patch_6">
      <path
         d="M 55.08,51.84 H 387.72"
         style="fill:none;stroke:#000000;stroke-width:0.8;stroke-linecap:square;stroke-linejoin:miter"
         id="path31" />
    </g>
    <g
       id="patch_7">
      <path
         d="M 281.2752,211.5072 V 78.4512 h -66.528 v 133.056 l -66.528,26.6112 159.6672,133.056 66.528,-66.528 z"
         clip-path="url(#pccd3ae6932)"
         style="fill:#f08080;stroke:#000000;stroke-linejoin:miter"
         id="path32" />
    </g>
    <g
       id="patch_8">
      <path
         d="m 148.2192,198.2016 h 53.2224 V 78.4512 h -53.2224 z"
         clip-path="url(#pccd3ae6932)"
         style="fill:#f08080;stroke:#000000;stroke-linejoin:miter"
         id="path33" />
    </g>
    <g
       id="patch_9">
      <path
         d="M 121.608,211.5072 V 51.84 H 81.6912 v 159.6672 z"
         clip-path="url(#pccd3ae6932)"
         style="fill:#f08080;stroke:#000000;stroke-linejoin:miter"
         id="path34" />
    </g>
    <g
       id="patch_10">
      <path
         d="M 121.608,224.8128 V 384.48 H 81.6912 V 224.8128 Z"
         clip-path="url(#pccd3ae6932)"
         style="fill:#f08080;stroke:#000000;stroke-linejoin:miter"
         id="path35" />
    </g>
    <g
       id="patch_11">
      <path
         d="M 307.8864,184.896 V 51.84 h 39.9168 v 133.056 z"
         clip-path="url(#pccd3ae6932)"
         style="fill:#f08080;stroke:#000000;stroke-linejoin:miter"
         id="path36" />
    </g>
    <g
       id="patch_12">
      <path
         d="m 307.8864,198.2016 v 13.3056 H 387.72 v -13.3056 z"
         clip-path="url(#pccd3ae6932)"
         style="fill:#f08080;stroke:#000000;stroke-linejoin:miter"
         id="path37" />
    </g>
    <g
       id="line2d_27">
      <path
         d="m 68.3856,371.1744 1.808409,-4.63399 1.570331,-4.63404 1.321453,-4.634 1.067061,-4.63383 0.812075,-4.63346 0.561061,-4.63274 0.318245,-4.63151 0.08751,-4.62955 -0.12761,-4.62664 -0.323924,-4.6225 -0.617175,-5.53935 -0.981335,-6.44781 -1.374641,-7.3412 -2.506576,-11.83388 -2.198697,-10.7632 -1.050981,-6.17723 -0.684439,-5.21842 -0.431105,-5.13411 -0.131419,-4.20349 0.10279,-4.12543 0.359961,-4.0372 0.486868,-3.15886 0.67352,-3.08933 0.867838,-3.01338 1.068362,-2.93063 1.273519,-2.8407 1.481619,-2.74318 1.690864,-2.63763 1.899338,-2.52365 2.105018,-2.40081 2.305761,-2.26862 2.499318,-2.12667 2.683333,-1.97446 2.855525,-1.81173 3.013941,-1.63865 3.157039,-1.45591 3.283672,-1.26474 3.393101,-1.06688 3.48499,-0.86459 3.5594,-0.66069 3.6168,-0.45847 3.65807,-0.26178 3.68447,-0.075 4.62281,0.14589 4.62245,0.37357 5.5241,0.67374 9.10152,1.38779 8.02991,1.16018 5.24175,0.55074 4.28373,0.25527 4.19316,0.0328 4.08842,-0.21608 3.1853,-0.36511 3.10081,-0.54334 3.00838,-0.72568 2.90801,-0.90979 2.79987,-1.09361 2.68419,-1.27525 2.56134,-1.45311 2.43179,-1.62572 2.29613,-1.79194 2.15504,-1.95076 2.0093,-2.10143 1.85986,-2.24344 1.70771,-2.37648 1.55397,-2.50046 1.39987,-2.6155 1.24661,-2.72175 1.34585,-3.53856 1.11576,-3.67479 0.8943,-3.79507 0.68375,-3.89984 0.48612,-3.98949 0.34339,-4.88508 0.10882,-4.96848 -0.12725,-5.8703 -0.34916,-5.91524 -0.68174,-7.61552 -1.57117,-14.18556 -0.8732,-8.87225 -0.40521,-6.22665 -0.12185,-5.25784 0.10903,-4.34577 0.33663,-4.181777 0.4728,-3.349502 0.66121,-3.218277 0.8602,-3.079688 1.06751,-2.934052 1.28067,-2.781675 1.49703,-2.622863 1.71373,-2.457918 1.92772,-2.287132 2.13581,-2.110798 2.33489,-1.929224 2.52216,-1.742735 2.69507,-1.551682 2.85136,-1.356438 2.98906,-1.1574 3.10652,-0.954988 3.20231,-0.749644 3.27533,-0.541834 3.32478,-0.332047 3.3501,-0.120792 3.35103,0.09139 3.32764,0.30395 3.28021,0.5163 3.20939,0.727838 3.11602,0.937939 3.00133,1.14595 2.86676,1.351199 2.71405,1.552992 2.54526,1.750607 2.36269,1.943303 2.16897,2.130315 1.96698,2.310854 1.75989,2.484112 1.55096,2.649283 1.34331,2.805604 1.13986,2.952367 0.94326,3.088911 0.75603,3.214629 0.58039,3.328963 0.48401,4.12891 0.27792,4.25501 0.1044,5.09391 -0.10552,5.94799 -0.38514,8.29941 -0.68133,14.26084 -0.0489,5.82241 0.17501,4.93998 0.3552,4.0899 0.57786,3.93266 0.67218,3.14127 0.86103,3.00457 1.06242,2.85611 1.27418,2.69637 1.17727,2.03487 1.32087,1.92058 1.46623,1.80135 1.61216,1.6775 1.7574,1.54931 1.90058,1.41709 2.0403,1.28121 2.17509,1.142 2.30339,0.99984 3.04724,1.04602 3.2161,0.81573 3.36296,0.58218 3.48516,0.34626 3.58054,0.10888 3.64739,-0.12915 3.68446,-0.36693 3.69098,-0.60366 3.66663,-0.83853 3.61159,-1.07074 3.52645,-1.2995 3.41232,-1.52406 3.27062,-1.74372 3.1031,-1.95775 2.34572,-1.71615 2.2119,-1.84571 2.06778,-1.97161 1.91437,-2.09363 1.75279,-2.21162 1.58422,-2.3254 1.40987,-2.43482 1.23111,-2.53978 1.0493,-2.64014 0.8659,-2.73582 0.68247,-2.82676 0.50061,-2.9129 0.322,-2.99418 0.15916,-3.84964 -0.0981,-3.95956 -0.33686,-4.06005 -0.55217,-4.15117 -0.90621,-5.0888 -1.3166,-6.06551 -4.73798,-20.6309 -0.72373,-4.578961 -0.38877,-3.677521 -0.17245,-3.687352 0.0907,-3.69478 0.27056,-2.774688 0.46878,-2.776914 0.69022,-2.778482 0.93592,-2.779499 1.20695,-2.780083 1.50434,-2.780351 1.82917,-2.78036 v 0"
         clip-path="url(#pccd3ae6932)"
         style="fill:none;stroke:#0000ff;stroke-width:1.5;stroke-linecap:square"
         id="path38" />
    </g>
  </g>
  <defs
     id="defs38">
    <clipPath
       id="pccd3ae6932">
      <rect
         x="55.080002"
         y="51.84"
         width="332.64001"
         height="332.64001"
         id="rect38" />
    </clipPath>
  </defs>
</svg>
