# Blender v2.93.8 OBJ File: 'edit_shelf_geom.blend'
# www.blender.org
mtllib table_wide.mtl
o KitchenTable_02_Cube.118
v -0.630110 -0.934437 -0.104977
v 0.630111 -0.934437 -0.104977
v -0.630111 0.937713 -0.104977
v 0.630110 0.937713 -0.104977
v -0.630110 -0.934437 -0.040981
v 0.630111 -0.934437 -0.040981
v -0.630111 0.937713 -0.040981
v 0.630110 0.937713 -0.040981
v 0.638434 -0.986578 -0.059548
v 0.683482 -0.919462 -0.059548
v 0.714748 -1.034896 -0.059548
v 0.704952 -1.089377 0.003294
v 0.750000 -1.022262 0.003294
v -0.683482 -0.919463 -0.059548
v -0.638434 -0.986578 -0.059548
v -0.714748 -1.034896 -0.059548
v -0.750000 -1.022262 0.003294
v -0.704952 -1.089377 0.003294
v 0.683482 0.922739 -0.059548
v 0.638434 0.989854 -0.059548
v 0.714748 1.038172 -0.059548
v 0.750000 1.025538 0.003294
v 0.704952 1.092653 0.003294
v -0.638434 0.989854 -0.059548
v -0.683482 0.922738 -0.059548
v -0.714748 1.038172 -0.059548
v -0.704952 1.092653 0.003294
v -0.750000 1.025538 0.003294
v -0.704952 -1.089377 -0.059548
v -0.750000 -1.022262 -0.059548
v -0.718735 -1.041058 -0.059548
v 0.750000 -1.022262 -0.059548
v 0.704952 -1.089377 -0.059548
v 0.718735 -1.041058 -0.059548
v -0.750000 1.025538 -0.059548
v -0.704952 1.092653 -0.059548
v -0.718735 1.044334 -0.059548
v 0.704952 1.092653 -0.059548
v 0.750000 1.025538 -0.059548
v 0.718735 1.044335 -0.059548
v -0.638434 -0.986578 -0.104977
v -0.683482 -0.919463 -0.104977
v -0.645811 -0.949775 -0.104977
v 0.683482 -0.919462 -0.104977
v 0.638434 -0.986578 -0.104977
v 0.645811 -0.949775 -0.104977
v -0.683482 0.922738 -0.104977
v -0.638434 0.989854 -0.104977
v -0.645811 0.953051 -0.104977
v 0.638434 0.989854 -0.104977
v 0.683482 0.922739 -0.104977
v 0.645811 0.953051 -0.104977
v 0.512081 -0.918692 -0.996706
v 0.512081 -0.787480 -0.996706
v 0.512081 -0.918692 -0.037756
v 0.600150 -0.918692 -0.996706
v 0.600150 -0.787480 -0.996706
v 0.600150 -0.918692 -0.037756
v 0.600150 -0.787480 -0.037756
v 0.512081 -0.787480 -0.037756
v 0.512081 0.796526 -0.996706
v 0.512081 0.927737 -0.996706
v 0.512081 0.796526 -0.037756
v 0.600150 0.796526 -0.996706
v 0.600150 0.927737 -0.996706
v 0.600150 0.796526 -0.037756
v 0.600150 0.927737 -0.037756
v 0.512081 0.927737 -0.037756
v -0.600150 0.796526 -0.996706
v -0.600150 0.927737 -0.996706
v -0.600150 0.796526 -0.037756
v -0.512080 0.796526 -0.996706
v -0.512080 0.927737 -0.996706
v -0.512080 0.796526 -0.037756
v -0.512080 0.927737 -0.037756
v -0.600150 0.927737 -0.037756
v -0.600150 -0.918692 -0.996706
v -0.600150 -0.787481 -0.996706
v -0.600150 -0.918692 -0.037756
v -0.512080 -0.918692 -0.996706
v -0.512080 -0.787481 -0.996706
v -0.512080 -0.918692 -0.037756
v -0.512080 -0.787481 -0.037756
v -0.600150 -0.787481 -0.037756
vt 0.406964 0.026442
vt 0.423903 0.012012
vt 0.768597 0.012012
vt 0.785536 0.026442
vt 0.785536 0.478069
vt 0.768597 0.492499
vt 0.423903 0.492499
vt 0.406965 0.478069
vt 0.991371 0.007741
vt 0.991371 0.296956
vt 0.977085 0.296956
vt 0.977085 0.007741
vt 0.321690 0.936233
vt 0.321690 0.532554
vt 0.325561 0.527525
vt 0.334849 0.529888
vt 0.334850 0.938900
vt 0.325561 0.941263
vt 0.893842 0.241729
vt 0.913603 0.241729
vt 0.913603 0.561078
vt 0.893842 0.561078
vt 0.893842 0.013685
vt 0.913603 0.013685
vt 0.913603 0.221322
vt 0.893842 0.221322
vt 0.985357 0.760524
vt 0.985357 0.511084
vt 0.999643 0.511084
vt 0.999643 0.760524
vt 0.963512 0.501847
vt 0.963512 0.678227
vt 0.949226 0.678227
vt 0.949226 0.501847
vt 0.976234 0.316136
vt 0.956472 0.316136
vt 0.956472 0.022493
vt 0.976234 0.022493
vt 0.955484 0.348249
vt 0.935723 0.348249
vt 0.935722 0.028901
vt 0.955484 0.028901
vt 0.374286 0.481206
vt 0.362091 0.456761
vt 0.362091 0.047749
vt 0.374286 0.023304
vt 0.375841 0.022027
vt 0.388036 0.026442
vt 0.388036 0.478069
vt 0.375841 0.482484
vt 0.934725 0.192593
vt 0.934725 0.478038
vt 0.914601 0.478038
vt 0.914601 0.192593
vt 0.023214 0.481206
vt 0.052348 0.471191
vt 0.345153 0.471191
vt 0.371097 0.492499
vt 0.026403 0.492499
vt 0.021659 0.482484
vt 0.023214 0.023304
vt 0.035409 0.047749
vt 0.035409 0.456761
vt 0.009464 0.478069
vt 0.009464 0.026442
vt 0.021659 0.022027
vt 0.345153 0.033319
vt 0.052347 0.033319
vt 0.026403 0.012012
vt 0.371097 0.012012
vt 0.021326 0.936233
vt 0.317911 0.953330
vt 0.025106 0.953330
vt 0.017455 0.941263
vt 0.021326 0.532554
vt 0.017455 0.527525
vt 0.025106 0.515458
vt 0.317911 0.515458
vt 0.008167 0.938900
vt 0.008167 0.529888
vt 0.650890 0.918282
vt 0.350526 0.918282
vt 0.350526 0.514603
vt 0.650890 0.514603
vt 0.984497 0.496833
vt 0.984497 0.782278
vt 0.964372 0.782278
vt 0.964372 0.496833
vt 0.889389 0.545872
vt 0.889389 0.801751
vt 0.869264 0.801751
vt 0.869264 0.545872
vt 0.934725 0.011659
vt 0.914601 0.011659
vt 0.976234 0.330566
vt 0.956472 0.330566
vt 0.956472 0.008063
vt 0.976234 0.008063
vt 0.935722 0.008494
vt 0.955484 0.008494
vt 0.963512 0.698635
vt 0.949226 0.698635
vt 0.991371 0.317363
vt 0.977085 0.317363
vt 0.985357 0.496655
vt 0.999643 0.496655
vt 0.999643 0.774954
vt 0.985357 0.774954
vt 0.963512 0.987850
vt 0.949226 0.987850
vt 0.914925 0.789761
vt 0.948041 0.789761
vt 0.948041 0.817972
vt 0.914925 0.817972
vt 0.692342 0.510933
vt 0.692342 0.767826
vt 0.659227 0.767826
vt 0.659227 0.510933
vt 0.868761 0.533052
vt 0.868761 0.276160
vt 0.892177 0.276160
vt 0.892177 0.533053
vt 0.845345 0.533053
vt 0.845345 0.276160
vt 0.936056 0.415281
vt 0.936056 0.387070
vt 0.969172 0.387070
vt 0.969172 0.415281
vt 0.786714 0.510933
vt 0.786714 0.767826
vt 0.763297 0.767826
vt 0.763297 0.510933
vt 0.693998 0.774953
vt 0.727113 0.774953
vt 0.727113 0.803164
vt 0.693998 0.803164
vt 0.727113 0.510933
vt 0.727113 0.767826
vt 0.693998 0.767826
vt 0.693998 0.510933
vt 0.868761 0.006422
vt 0.868761 0.263315
vt 0.845345 0.263315
vt 0.845345 0.006422
vt 0.892177 0.006422
vt 0.892177 0.263315
vt 0.914925 0.788351
vt 0.914925 0.760140
vt 0.948041 0.760140
vt 0.948041 0.788351
vt 0.843589 0.545897
vt 0.843589 0.802790
vt 0.820173 0.802790
vt 0.820173 0.545897
vt 0.969172 0.444902
vt 0.936056 0.444902
vt 0.936056 0.416691
vt 0.969172 0.416691
vt 0.948041 0.496119
vt 0.948041 0.753012
vt 0.914925 0.753012
vt 0.914925 0.496119
vt 0.844760 0.802790
vt 0.844760 0.545897
vt 0.868176 0.545897
vt 0.868176 0.802790
vt 0.819587 0.276160
vt 0.819587 0.533053
vt 0.796171 0.533053
vt 0.796171 0.276160
vt 0.969172 0.385659
vt 0.936056 0.385659
vt 0.936056 0.357449
vt 0.969172 0.357449
vt 0.843003 0.276160
vt 0.843003 0.533053
vt 0.659227 0.803164
vt 0.659227 0.774954
vt 0.692342 0.774953
vt 0.692342 0.803164
vt 0.761884 0.510933
vt 0.761884 0.767826
vt 0.728769 0.767826
vt 0.728769 0.510933
vt 0.819002 0.545897
vt 0.819002 0.802790
vt 0.795586 0.802790
vt 0.795586 0.545897
vt 0.819587 0.006422
vt 0.819587 0.263315
vt 0.796171 0.263315
vt 0.796171 0.006422
vt 0.753356 0.774954
vt 0.786471 0.774954
vt 0.786471 0.803164
vt 0.753356 0.803164
vt 0.843003 0.006422
vt 0.843003 0.263315
vn -0.0000 0.0000 1.0000
vn -0.0000 1.0000 0.0000
vn 0.0000 0.0000 -1.0000
vn 0.0000 -1.0000 0.0000
vn 1.0000 0.0000 0.0000
vn -1.0000 -0.0000 0.0000
vn 0.8303 -0.5573 0.0000
vn -0.8303 -0.5573 0.0000
vn -0.8303 0.5573 0.0000
vn 0.8303 0.5573 0.0000
usemtl InteriorPack_01.008
s off
f 27/1/1 28/2/1 17/3/1 18/4/1 12/5/1 13/6/1 22/7/1 23/8/1
f 24/9/2 20/10/2 50/11/2 48/12/2
f 1/13/3 2/14/3 46/15/3 45/16/3 41/17/3 43/18/3
f 33/19/4 12/20/4 18/21/4 29/22/4
f 39/23/5 22/24/5 13/25/5 32/26/5
f 14/27/6 25/28/6 47/29/6 42/30/6
f 19/31/5 10/32/5 44/33/5 51/34/5
f 30/35/6 17/36/6 28/37/6 35/38/6
f 36/39/2 27/40/2 23/41/2 38/42/2
f 16/43/3 15/44/3 9/45/3 11/46/3 34/47/3 33/48/3 29/49/3 31/50/3
f 3/51/4 4/52/4 8/53/4 7/54/4
f 26/55/3 25/56/3 14/57/3 16/43/3 31/50/3 30/58/3 35/59/3 37/60/3
f 21/61/3 20/62/3 24/63/3 26/55/3 37/60/3 36/64/3 38/65/3 40/66/3
f 11/46/3 10/67/3 19/68/3 21/61/3 40/66/3 39/69/3 32/70/3 34/47/3
f 3/71/3 1/13/3 43/18/3 42/72/3 47/73/3 49/74/3
f 2/14/3 4/75/3 52/76/3 51/77/3 44/78/3 46/15/3
f 4/75/3 3/71/3 49/74/3 48/79/3 50/80/3 52/76/3
f 5/81/3 7/82/3 8/83/3 6/84/3
f 2/85/2 1/86/2 5/87/2 6/88/2
f 4/89/6 2/90/6 6/91/6 8/92/6
f 1/93/5 3/51/5 7/54/5 5/94/5
f 9/45/3 10/67/3 11/46/3
f 14/57/3 15/44/3 16/43/3
f 19/68/3 20/62/3 21/61/3
f 24/63/3 25/56/3 26/55/3
f 29/49/3 30/58/3 31/50/3
f 32/70/3 33/48/3 34/47/3
f 35/59/3 36/64/3 37/60/3
f 38/65/3 39/69/3 40/66/3
f 41/17/3 42/72/3 43/18/3
f 44/78/3 45/16/3 46/15/3
f 47/73/3 48/79/3 49/74/3
f 50/80/3 51/77/3 52/76/3
f 32/26/7 13/25/7 12/20/7 33/19/7
f 17/36/8 30/35/8 29/95/8 18/96/8
f 27/97/9 36/98/9 35/38/9 28/37/9
f 22/99/10 39/100/10 38/42/10 23/41/10
f 9/101/7 45/102/7 44/33/7 10/32/7
f 50/11/10 20/10/10 19/103/10 51/104/10
f 24/105/9 48/106/9 47/29/9 25/28/9
f 41/107/8 15/108/8 14/27/8 42/30/8
f 9/101/4 15/109/4 41/110/4 45/102/4
f 54/111/3 57/112/3 56/113/3 53/114/3
f 53/115/6 55/116/6 60/117/6 54/118/6
f 56/119/4 58/120/4 55/121/4 53/122/4
f 57/123/5 59/124/5 58/120/5 56/119/5
f 59/125/1 60/126/1 55/127/1 58/128/1
f 54/129/2 60/130/2 59/131/2 57/132/2
f 62/133/3 65/134/3 64/135/3 61/136/3
f 61/137/6 63/138/6 68/139/6 62/140/6
f 64/141/4 66/142/4 63/143/4 61/144/4
f 65/145/5 67/146/5 66/142/5 64/141/5
f 67/147/1 68/148/1 63/149/1 66/150/1
f 62/151/2 68/152/2 67/153/2 65/154/2
f 70/155/3 73/156/3 72/157/3 69/158/3
f 69/159/6 71/160/6 76/161/6 70/162/6
f 72/163/4 74/164/4 71/165/4 69/166/4
f 73/167/5 75/168/5 74/169/5 72/170/5
f 75/171/1 76/172/1 71/173/1 74/174/1
f 70/175/2 76/176/2 75/168/2 73/167/2
f 78/177/3 81/178/3 80/179/3 77/180/3
f 77/181/6 79/182/6 84/183/6 78/184/6
f 80/185/4 82/186/4 79/187/4 77/188/4
f 81/189/5 83/190/5 82/191/5 80/192/5
f 83/193/1 84/194/1 79/195/1 82/196/1
f 78/197/2 84/198/2 83/190/2 81/189/2
